solid OpenSCAD_Model
  facet normal 0.994522 0.104528 0
    outer loop
      vertex 36.3 0 7
      vertex 35.5068 7.54719 0
      vertex 35.5068 7.54719 7
    endloop
  endfacet
  facet normal 0.994522 0.104528 0
    outer loop
      vertex 35.5068 7.54719 0
      vertex 36.3 0 7
      vertex 36.3 0 0
    endloop
  endfacet
  facet normal -0.994522 0.104528 0
    outer loop
      vertex -36.3 0 0
      vertex -35.5068 7.54719 7
      vertex -35.5068 7.54719 0
    endloop
  endfacet
  facet normal -0.994522 0.104528 0
    outer loop
      vertex -35.5068 7.54719 7
      vertex -36.3 0 0
      vertex -36.3 0 7
    endloop
  endfacet
  facet normal 0 1 -0
    outer loop
      vertex 3.79438 36.1011 0
      vertex -3.79438 36.1011 7
      vertex 3.79438 36.1011 7
    endloop
  endfacet
  facet normal 0 1 0
    outer loop
      vertex -3.79438 36.1011 7
      vertex 3.79438 36.1011 0
      vertex -3.79438 36.1011 0
    endloop
  endfacet
  facet normal 0 -1 0
    outer loop
      vertex -3.79438 -36.1011 0
      vertex 3.79438 -36.1011 7
      vertex -3.79438 -36.1011 7
    endloop
  endfacet
  facet normal 0 -1 -0
    outer loop
      vertex 3.79438 -36.1011 7
      vertex -3.79438 -36.1011 0
      vertex 3.79438 -36.1011 0
    endloop
  endfacet
  facet normal 0.587785 0.809017 -0
    outer loop
      vertex 24.2894 26.9762 0
      vertex 18.15 31.4367 7
      vertex 24.2894 26.9762 7
    endloop
  endfacet
  facet normal 0.587785 0.809017 0
    outer loop
      vertex 18.15 31.4367 7
      vertex 24.2894 26.9762 0
      vertex 18.15 31.4367 0
    endloop
  endfacet
  facet normal -0.743145 0.669131 0
    outer loop
      vertex -29.3673 21.3366 0
      vertex -24.2894 26.9762 7
      vertex -24.2894 26.9762 0
    endloop
  endfacet
  facet normal -0.743145 0.669131 0
    outer loop
      vertex -24.2894 26.9762 7
      vertex -29.3673 21.3366 0
      vertex -29.3673 21.3366 7
    endloop
  endfacet
  facet normal 0 0 1
    outer loop
      vertex 34.3 0 7
      vertex 36.3 0 7
      vertex 35.5068 7.54719 7
    endloop
  endfacet
  facet normal 0 0 1
    outer loop
      vertex 36.3 0 7
      vertex 34.3 0 7
      vertex 35.5068 -7.54719 7
    endloop
  endfacet
  facet normal 0 0 1
    outer loop
      vertex 35.5068 7.54719 7
      vertex 33.5505 7.13137 7
      vertex 34.3 0 7
    endloop
  endfacet
  facet normal 0 0 1
    outer loop
      vertex 33.1617 14.7645 7
      vertex 33.5505 7.13137 7
      vertex 35.5068 7.54719 7
    endloop
  endfacet
  facet normal 0 0 1
    outer loop
      vertex 33.1617 14.7645 7
      vertex 31.3346 13.9511 7
      vertex 33.5505 7.13137 7
    endloop
  endfacet
  facet normal 0 0 1
    outer loop
      vertex 29.3673 21.3366 7
      vertex 31.3346 13.9511 7
      vertex 33.1617 14.7645 7
    endloop
  endfacet
  facet normal 0 0 1
    outer loop
      vertex 29.3673 21.3366 7
      vertex 27.7493 20.161 7
      vertex 31.3346 13.9511 7
    endloop
  endfacet
  facet normal 0 0 1
    outer loop
      vertex 24.2894 26.9762 7
      vertex 27.7493 20.161 7
      vertex 29.3673 21.3366 7
    endloop
  endfacet
  facet normal 0 0 1
    outer loop
      vertex 24.2894 26.9762 7
      vertex 22.9512 25.4899 7
      vertex 27.7493 20.161 7
    endloop
  endfacet
  facet normal 0 0 1
    outer loop
      vertex 18.15 31.4367 7
      vertex 22.9512 25.4899 7
      vertex 24.2894 26.9762 7
    endloop
  endfacet
  facet normal 0 0 1
    outer loop
      vertex 18.15 31.4367 7
      vertex 17.15 29.7047 7
      vertex 22.9512 25.4899 7
    endloop
  endfacet
  facet normal 0 0 1
    outer loop
      vertex 11.2173 34.5233 7
      vertex 17.15 29.7047 7
      vertex 18.15 31.4367 7
    endloop
  endfacet
  facet normal 0 0 1
    outer loop
      vertex 11.2173 34.5233 7
      vertex 10.5993 32.6212 7
      vertex 17.15 29.7047 7
    endloop
  endfacet
  facet normal 0 0 1
    outer loop
      vertex 3.79438 36.1011 7
      vertex 10.5993 32.6212 7
      vertex 11.2173 34.5233 7
    endloop
  endfacet
  facet normal 0 0 1
    outer loop
      vertex 3.79438 36.1011 7
      vertex 3.58533 34.1121 7
      vertex 10.5993 32.6212 7
    endloop
  endfacet
  facet normal 0 0 1
    outer loop
      vertex 3.79438 36.1011 7
      vertex -3.58533 34.1121 7
      vertex 3.58533 34.1121 7
    endloop
  endfacet
  facet normal -0 0 1
    outer loop
      vertex -3.79438 36.1011 7
      vertex -3.58533 34.1121 7
      vertex 3.79438 36.1011 7
    endloop
  endfacet
  facet normal 0 0 1
    outer loop
      vertex -3.79438 36.1011 7
      vertex -10.5993 32.6212 7
      vertex -3.58533 34.1121 7
    endloop
  endfacet
  facet normal -0 0 1
    outer loop
      vertex -11.2173 34.5233 7
      vertex -10.5993 32.6212 7
      vertex -3.79438 36.1011 7
    endloop
  endfacet
  facet normal 0 0 1
    outer loop
      vertex -11.2173 34.5233 7
      vertex -17.15 29.7047 7
      vertex -10.5993 32.6212 7
    endloop
  endfacet
  facet normal -0 0 1
    outer loop
      vertex -18.15 31.4367 7
      vertex -17.15 29.7047 7
      vertex -11.2173 34.5233 7
    endloop
  endfacet
  facet normal 0 0 1
    outer loop
      vertex -18.15 31.4367 7
      vertex -22.9512 25.4899 7
      vertex -17.15 29.7047 7
    endloop
  endfacet
  facet normal -0 0 1
    outer loop
      vertex -24.2894 26.9762 7
      vertex -22.9512 25.4899 7
      vertex -18.15 31.4367 7
    endloop
  endfacet
  facet normal 0 0 1
    outer loop
      vertex -24.2894 26.9762 7
      vertex -27.7493 20.161 7
      vertex -22.9512 25.4899 7
    endloop
  endfacet
  facet normal -0 0 1
    outer loop
      vertex -29.3673 21.3366 7
      vertex -27.7493 20.161 7
      vertex -24.2894 26.9762 7
    endloop
  endfacet
  facet normal 0 0 1
    outer loop
      vertex -29.3673 21.3366 7
      vertex -31.3346 13.9511 7
      vertex -27.7493 20.161 7
    endloop
  endfacet
  facet normal -0 0 1
    outer loop
      vertex -33.1617 14.7645 7
      vertex -31.3346 13.9511 7
      vertex -29.3673 21.3366 7
    endloop
  endfacet
  facet normal 0 0 1
    outer loop
      vertex -33.1617 14.7645 7
      vertex -33.5505 7.13137 7
      vertex -31.3346 13.9511 7
    endloop
  endfacet
  facet normal -0 0 1
    outer loop
      vertex -35.5068 7.54719 7
      vertex -33.5505 7.13137 7
      vertex -33.1617 14.7645 7
    endloop
  endfacet
  facet normal 0 0 1
    outer loop
      vertex -33.5505 7.13137 7
      vertex -35.5068 7.54719 7
      vertex -34.3 0 7
    endloop
  endfacet
  facet normal -0 0 1
    outer loop
      vertex 33.5505 -7.13137 7
      vertex 35.5068 -7.54719 7
      vertex 34.3 0 7
    endloop
  endfacet
  facet normal 0 0 1
    outer loop
      vertex 33.5505 -7.13137 7
      vertex 33.1617 -14.7645 7
      vertex 35.5068 -7.54719 7
    endloop
  endfacet
  facet normal -0 0 1
    outer loop
      vertex 31.3346 -13.9511 7
      vertex 33.1617 -14.7645 7
      vertex 33.5505 -7.13137 7
    endloop
  endfacet
  facet normal 0 0 1
    outer loop
      vertex 31.3346 -13.9511 7
      vertex 29.3673 -21.3366 7
      vertex 33.1617 -14.7645 7
    endloop
  endfacet
  facet normal -0 0 1
    outer loop
      vertex 27.7493 -20.161 7
      vertex 29.3673 -21.3366 7
      vertex 31.3346 -13.9511 7
    endloop
  endfacet
  facet normal 0 0 1
    outer loop
      vertex 27.7493 -20.161 7
      vertex 24.2894 -26.9762 7
      vertex 29.3673 -21.3366 7
    endloop
  endfacet
  facet normal -0 0 1
    outer loop
      vertex 22.9512 -25.4899 7
      vertex 24.2894 -26.9762 7
      vertex 27.7493 -20.161 7
    endloop
  endfacet
  facet normal 0 0 1
    outer loop
      vertex 22.9512 -25.4899 7
      vertex 18.15 -31.4367 7
      vertex 24.2894 -26.9762 7
    endloop
  endfacet
  facet normal -0 0 1
    outer loop
      vertex 17.15 -29.7047 7
      vertex 18.15 -31.4367 7
      vertex 22.9512 -25.4899 7
    endloop
  endfacet
  facet normal 0 0 1
    outer loop
      vertex 17.15 -29.7047 7
      vertex 11.2173 -34.5233 7
      vertex 18.15 -31.4367 7
    endloop
  endfacet
  facet normal -0 0 1
    outer loop
      vertex 10.5993 -32.6212 7
      vertex 11.2173 -34.5233 7
      vertex 17.15 -29.7047 7
    endloop
  endfacet
  facet normal 0 0 1
    outer loop
      vertex 10.5993 -32.6212 7
      vertex 3.79438 -36.1011 7
      vertex 11.2173 -34.5233 7
    endloop
  endfacet
  facet normal -0 0 1
    outer loop
      vertex 3.58533 -34.1121 7
      vertex 3.79438 -36.1011 7
      vertex 10.5993 -32.6212 7
    endloop
  endfacet
  facet normal -0 0 1
    outer loop
      vertex -3.58533 -34.1121 7
      vertex 3.79438 -36.1011 7
      vertex 3.58533 -34.1121 7
    endloop
  endfacet
  facet normal 0 0 1
    outer loop
      vertex -3.58533 -34.1121 7
      vertex -3.79438 -36.1011 7
      vertex 3.79438 -36.1011 7
    endloop
  endfacet
  facet normal 0 0 1
    outer loop
      vertex -10.5993 -32.6212 7
      vertex -3.79438 -36.1011 7
      vertex -3.58533 -34.1121 7
    endloop
  endfacet
  facet normal 0 0 1
    outer loop
      vertex -10.5993 -32.6212 7
      vertex -11.2173 -34.5233 7
      vertex -3.79438 -36.1011 7
    endloop
  endfacet
  facet normal 0 0 1
    outer loop
      vertex -17.15 -29.7047 7
      vertex -11.2173 -34.5233 7
      vertex -10.5993 -32.6212 7
    endloop
  endfacet
  facet normal 0 0 1
    outer loop
      vertex -17.15 -29.7047 7
      vertex -18.15 -31.4367 7
      vertex -11.2173 -34.5233 7
    endloop
  endfacet
  facet normal 0 0 1
    outer loop
      vertex -22.9512 -25.4899 7
      vertex -18.15 -31.4367 7
      vertex -17.15 -29.7047 7
    endloop
  endfacet
  facet normal 0 0 1
    outer loop
      vertex -22.9512 -25.4899 7
      vertex -24.2894 -26.9762 7
      vertex -18.15 -31.4367 7
    endloop
  endfacet
  facet normal 0 0 1
    outer loop
      vertex -27.7493 -20.161 7
      vertex -24.2894 -26.9762 7
      vertex -22.9512 -25.4899 7
    endloop
  endfacet
  facet normal 0 0 1
    outer loop
      vertex -27.7493 -20.161 7
      vertex -29.3673 -21.3366 7
      vertex -24.2894 -26.9762 7
    endloop
  endfacet
  facet normal 0 0 1
    outer loop
      vertex -31.3346 -13.9511 7
      vertex -29.3673 -21.3366 7
      vertex -27.7493 -20.161 7
    endloop
  endfacet
  facet normal 0 0 1
    outer loop
      vertex -31.3346 -13.9511 7
      vertex -33.1617 -14.7645 7
      vertex -29.3673 -21.3366 7
    endloop
  endfacet
  facet normal 0 0 1
    outer loop
      vertex -33.5505 -7.13137 7
      vertex -33.1617 -14.7645 7
      vertex -31.3346 -13.9511 7
    endloop
  endfacet
  facet normal 0 0 1
    outer loop
      vertex -35.5068 -7.54719 7
      vertex -33.5505 -7.13137 7
      vertex -34.3 0 7
    endloop
  endfacet
  facet normal 0 0 1
    outer loop
      vertex -36.3 0 7
      vertex -34.3 0 7
      vertex -35.5068 7.54719 7
    endloop
  endfacet
  facet normal 0 0 1
    outer loop
      vertex -33.5505 -7.13137 7
      vertex -35.5068 -7.54719 7
      vertex -33.1617 -14.7645 7
    endloop
  endfacet
  facet normal 0 0 1
    outer loop
      vertex -34.3 0 7
      vertex -36.3 0 7
      vertex -35.5068 -7.54719 7
    endloop
  endfacet
  facet normal -0.406736 0.913546 0
    outer loop
      vertex -11.2173 34.5233 0
      vertex -18.15 31.4367 7
      vertex -11.2173 34.5233 7
    endloop
  endfacet
  facet normal -0.406736 0.913546 0
    outer loop
      vertex -18.15 31.4367 7
      vertex -11.2173 34.5233 0
      vertex -18.15 31.4367 0
    endloop
  endfacet
  facet normal 0.866026 -0.5 0
    outer loop
      vertex 29.3673 -21.3366 7
      vertex 33.1617 -14.7645 0
      vertex 33.1617 -14.7645 7
    endloop
  endfacet
  facet normal 0.866026 -0.5 0
    outer loop
      vertex 33.1617 -14.7645 0
      vertex 29.3673 -21.3366 7
      vertex 29.3673 -21.3366 0
    endloop
  endfacet
  facet normal 0.866026 0.5 0
    outer loop
      vertex 33.1617 14.7645 7
      vertex 29.3673 21.3366 0
      vertex 29.3673 21.3366 7
    endloop
  endfacet
  facet normal 0.866026 0.5 0
    outer loop
      vertex 29.3673 21.3366 0
      vertex 33.1617 14.7645 7
      vertex 33.1617 14.7645 0
    endloop
  endfacet
  facet normal 0.951056 0.309018 0
    outer loop
      vertex 35.5068 7.54719 7
      vertex 33.1617 14.7645 0
      vertex 33.1617 14.7645 7
    endloop
  endfacet
  facet normal 0.951056 0.309018 0
    outer loop
      vertex 33.1617 14.7645 0
      vertex 35.5068 7.54719 7
      vertex 35.5068 7.54719 0
    endloop
  endfacet
  facet normal 0.743145 0.669131 0
    outer loop
      vertex 29.3673 21.3366 7
      vertex 24.2894 26.9762 0
      vertex 24.2894 26.9762 7
    endloop
  endfacet
  facet normal 0.743145 0.669131 0
    outer loop
      vertex 24.2894 26.9762 0
      vertex 29.3673 21.3366 7
      vertex 29.3673 21.3366 0
    endloop
  endfacet
  facet normal 0.207912 0.978148 -0
    outer loop
      vertex 11.2173 34.5233 0
      vertex 3.79438 36.1011 7
      vertex 11.2173 34.5233 7
    endloop
  endfacet
  facet normal 0.207912 0.978148 0
    outer loop
      vertex 3.79438 36.1011 7
      vertex 11.2173 34.5233 0
      vertex 3.79438 36.1011 0
    endloop
  endfacet
  facet normal 0.406736 0.913546 -0
    outer loop
      vertex 18.15 31.4367 0
      vertex 11.2173 34.5233 7
      vertex 18.15 31.4367 7
    endloop
  endfacet
  facet normal 0.406736 0.913546 0
    outer loop
      vertex 11.2173 34.5233 7
      vertex 18.15 31.4367 0
      vertex 11.2173 34.5233 0
    endloop
  endfacet
  facet normal -0.866026 0.5 0
    outer loop
      vertex -33.1617 14.7645 0
      vertex -29.3673 21.3366 7
      vertex -29.3673 21.3366 0
    endloop
  endfacet
  facet normal -0.866026 0.5 0
    outer loop
      vertex -29.3673 21.3366 7
      vertex -33.1617 14.7645 0
      vertex -33.1617 14.7645 7
    endloop
  endfacet
  facet normal -0.951056 0.309018 0
    outer loop
      vertex -35.5068 7.54719 0
      vertex -33.1617 14.7645 7
      vertex -33.1617 14.7645 0
    endloop
  endfacet
  facet normal -0.951056 0.309018 0
    outer loop
      vertex -33.1617 14.7645 7
      vertex -35.5068 7.54719 0
      vertex -35.5068 7.54719 7
    endloop
  endfacet
  facet normal -0.587785 0.809017 0
    outer loop
      vertex -18.15 31.4367 0
      vertex -24.2894 26.9762 7
      vertex -18.15 31.4367 7
    endloop
  endfacet
  facet normal -0.587785 0.809017 0
    outer loop
      vertex -24.2894 26.9762 7
      vertex -18.15 31.4367 0
      vertex -24.2894 26.9762 0
    endloop
  endfacet
  facet normal -0.207912 0.978148 0
    outer loop
      vertex -3.79438 36.1011 0
      vertex -11.2173 34.5233 7
      vertex -3.79438 36.1011 7
    endloop
  endfacet
  facet normal -0.207912 0.978148 0
    outer loop
      vertex -11.2173 34.5233 7
      vertex -3.79438 36.1011 0
      vertex -11.2173 34.5233 0
    endloop
  endfacet
  facet normal 0.994522 -0.104528 0
    outer loop
      vertex 35.5068 -7.54719 7
      vertex 36.3 0 0
      vertex 36.3 0 7
    endloop
  endfacet
  facet normal 0.994522 -0.104528 0
    outer loop
      vertex 36.3 0 0
      vertex 35.5068 -7.54719 7
      vertex 35.5068 -7.54719 0
    endloop
  endfacet
  facet normal 0.951056 -0.309018 0
    outer loop
      vertex 33.1617 -14.7645 7
      vertex 35.5068 -7.54719 0
      vertex 35.5068 -7.54719 7
    endloop
  endfacet
  facet normal 0.951056 -0.309018 0
    outer loop
      vertex 35.5068 -7.54719 0
      vertex 33.1617 -14.7645 7
      vertex 33.1617 -14.7645 0
    endloop
  endfacet
  facet normal 0 0 -1
    outer loop
      vertex 35.5068 -7.54719 0
      vertex 35.5068 7.54719 0
      vertex 36.3 0 0
    endloop
  endfacet
  facet normal 0 0 -1
    outer loop
      vertex 33.1617 -14.7645 0
      vertex 35.5068 7.54719 0
      vertex 35.5068 -7.54719 0
    endloop
  endfacet
  facet normal 0 0 -1
    outer loop
      vertex 33.1617 -14.7645 0
      vertex 33.1617 14.7645 0
      vertex 35.5068 7.54719 0
    endloop
  endfacet
  facet normal 0 0 -1
    outer loop
      vertex 29.3673 -21.3366 0
      vertex 33.1617 14.7645 0
      vertex 33.1617 -14.7645 0
    endloop
  endfacet
  facet normal 0 0 -1
    outer loop
      vertex 29.3673 -21.3366 0
      vertex 29.3673 21.3366 0
      vertex 33.1617 14.7645 0
    endloop
  endfacet
  facet normal 0 0 -1
    outer loop
      vertex 24.2894 -26.9762 0
      vertex 29.3673 21.3366 0
      vertex 29.3673 -21.3366 0
    endloop
  endfacet
  facet normal 0 0 -1
    outer loop
      vertex 24.2894 -26.9762 0
      vertex 24.2894 26.9762 0
      vertex 29.3673 21.3366 0
    endloop
  endfacet
  facet normal 0 0 -1
    outer loop
      vertex 18.15 -31.4367 0
      vertex 24.2894 26.9762 0
      vertex 24.2894 -26.9762 0
    endloop
  endfacet
  facet normal 0 0 -1
    outer loop
      vertex 18.15 -31.4367 0
      vertex 18.15 31.4367 0
      vertex 24.2894 26.9762 0
    endloop
  endfacet
  facet normal 0 0 -1
    outer loop
      vertex 11.2173 -34.5233 0
      vertex 18.15 31.4367 0
      vertex 18.15 -31.4367 0
    endloop
  endfacet
  facet normal 0 0 -1
    outer loop
      vertex 11.2173 -34.5233 0
      vertex 11.2173 34.5233 0
      vertex 18.15 31.4367 0
    endloop
  endfacet
  facet normal 0 0 -1
    outer loop
      vertex 3.79438 -36.1011 0
      vertex 11.2173 34.5233 0
      vertex 11.2173 -34.5233 0
    endloop
  endfacet
  facet normal 0 0 -1
    outer loop
      vertex 3.79438 -36.1011 0
      vertex 3.79438 36.1011 0
      vertex 11.2173 34.5233 0
    endloop
  endfacet
  facet normal 0 0 -1
    outer loop
      vertex -3.79438 -36.1011 0
      vertex 3.79438 36.1011 0
      vertex 3.79438 -36.1011 0
    endloop
  endfacet
  facet normal 0 0 -1
    outer loop
      vertex -3.79438 -36.1011 0
      vertex -3.79438 36.1011 0
      vertex 3.79438 36.1011 0
    endloop
  endfacet
  facet normal 0 0 -1
    outer loop
      vertex -11.2173 -34.5233 0
      vertex -3.79438 36.1011 0
      vertex -3.79438 -36.1011 0
    endloop
  endfacet
  facet normal 0 0 -1
    outer loop
      vertex -11.2173 -34.5233 0
      vertex -11.2173 34.5233 0
      vertex -3.79438 36.1011 0
    endloop
  endfacet
  facet normal 0 0 -1
    outer loop
      vertex -18.15 -31.4367 0
      vertex -11.2173 34.5233 0
      vertex -11.2173 -34.5233 0
    endloop
  endfacet
  facet normal 0 0 -1
    outer loop
      vertex -18.15 -31.4367 0
      vertex -18.15 31.4367 0
      vertex -11.2173 34.5233 0
    endloop
  endfacet
  facet normal 0 0 -1
    outer loop
      vertex -24.2894 -26.9762 0
      vertex -18.15 31.4367 0
      vertex -18.15 -31.4367 0
    endloop
  endfacet
  facet normal 0 0 -1
    outer loop
      vertex -24.2894 -26.9762 0
      vertex -24.2894 26.9762 0
      vertex -18.15 31.4367 0
    endloop
  endfacet
  facet normal 0 0 -1
    outer loop
      vertex -29.3673 -21.3366 0
      vertex -24.2894 26.9762 0
      vertex -24.2894 -26.9762 0
    endloop
  endfacet
  facet normal 0 0 -1
    outer loop
      vertex -29.3673 -21.3366 0
      vertex -29.3673 21.3366 0
      vertex -24.2894 26.9762 0
    endloop
  endfacet
  facet normal 0 0 -1
    outer loop
      vertex -33.1617 -14.7645 0
      vertex -29.3673 21.3366 0
      vertex -29.3673 -21.3366 0
    endloop
  endfacet
  facet normal 0 0 -1
    outer loop
      vertex -33.1617 -14.7645 0
      vertex -33.1617 14.7645 0
      vertex -29.3673 21.3366 0
    endloop
  endfacet
  facet normal 0 0 -1
    outer loop
      vertex -35.5068 -7.54719 0
      vertex -33.1617 14.7645 0
      vertex -33.1617 -14.7645 0
    endloop
  endfacet
  facet normal 0 0 -1
    outer loop
      vertex -35.5068 -7.54719 0
      vertex -35.5068 7.54719 0
      vertex -33.1617 14.7645 0
    endloop
  endfacet
  facet normal 0 -0 -1
    outer loop
      vertex -35.5068 7.54719 0
      vertex -35.5068 -7.54719 0
      vertex -36.3 0 0
    endloop
  endfacet
  facet normal 0.587785 -0.809017 0
    outer loop
      vertex 18.15 -31.4367 0
      vertex 24.2894 -26.9762 7
      vertex 18.15 -31.4367 7
    endloop
  endfacet
  facet normal 0.587785 -0.809017 0
    outer loop
      vertex 24.2894 -26.9762 7
      vertex 18.15 -31.4367 0
      vertex 24.2894 -26.9762 0
    endloop
  endfacet
  facet normal -0.207912 -0.978148 0
    outer loop
      vertex -11.2173 -34.5233 0
      vertex -3.79438 -36.1011 7
      vertex -11.2173 -34.5233 7
    endloop
  endfacet
  facet normal -0.207912 -0.978148 -0
    outer loop
      vertex -3.79438 -36.1011 7
      vertex -11.2173 -34.5233 0
      vertex -3.79438 -36.1011 0
    endloop
  endfacet
  facet normal -0.743145 -0.669131 0
    outer loop
      vertex -24.2894 -26.9762 0
      vertex -29.3673 -21.3366 7
      vertex -29.3673 -21.3366 0
    endloop
  endfacet
  facet normal -0.743145 -0.669131 0
    outer loop
      vertex -29.3673 -21.3366 7
      vertex -24.2894 -26.9762 0
      vertex -24.2894 -26.9762 7
    endloop
  endfacet
  facet normal -0.866026 -0.5 0
    outer loop
      vertex -29.3673 -21.3366 0
      vertex -33.1617 -14.7645 7
      vertex -33.1617 -14.7645 0
    endloop
  endfacet
  facet normal -0.866026 -0.5 0
    outer loop
      vertex -33.1617 -14.7645 7
      vertex -29.3673 -21.3366 0
      vertex -29.3673 -21.3366 7
    endloop
  endfacet
  facet normal -0.951056 -0.309018 0
    outer loop
      vertex -33.1617 -14.7645 0
      vertex -35.5068 -7.54719 7
      vertex -35.5068 -7.54719 0
    endloop
  endfacet
  facet normal -0.951056 -0.309018 0
    outer loop
      vertex -35.5068 -7.54719 7
      vertex -33.1617 -14.7645 0
      vertex -33.1617 -14.7645 7
    endloop
  endfacet
  facet normal -0.994522 -0.104528 0
    outer loop
      vertex -35.5068 -7.54719 0
      vertex -36.3 0 7
      vertex -36.3 0 0
    endloop
  endfacet
  facet normal -0.994522 -0.104528 0
    outer loop
      vertex -36.3 0 7
      vertex -35.5068 -7.54719 0
      vertex -35.5068 -7.54719 7
    endloop
  endfacet
  facet normal 0.406736 -0.913546 0
    outer loop
      vertex 11.2173 -34.5233 0
      vertex 18.15 -31.4367 7
      vertex 11.2173 -34.5233 7
    endloop
  endfacet
  facet normal 0.406736 -0.913546 0
    outer loop
      vertex 18.15 -31.4367 7
      vertex 11.2173 -34.5233 0
      vertex 18.15 -31.4367 0
    endloop
  endfacet
  facet normal 0.207912 -0.978148 0
    outer loop
      vertex 3.79438 -36.1011 0
      vertex 11.2173 -34.5233 7
      vertex 3.79438 -36.1011 7
    endloop
  endfacet
  facet normal 0.207912 -0.978148 0
    outer loop
      vertex 11.2173 -34.5233 7
      vertex 3.79438 -36.1011 0
      vertex 11.2173 -34.5233 0
    endloop
  endfacet
  facet normal 0.743145 -0.669131 0
    outer loop
      vertex 24.2894 -26.9762 7
      vertex 29.3673 -21.3366 0
      vertex 29.3673 -21.3366 7
    endloop
  endfacet
  facet normal 0.743145 -0.669131 0
    outer loop
      vertex 29.3673 -21.3366 0
      vertex 24.2894 -26.9762 7
      vertex 24.2894 -26.9762 0
    endloop
  endfacet
  facet normal -0.406736 -0.913546 0
    outer loop
      vertex -18.15 -31.4367 0
      vertex -11.2173 -34.5233 7
      vertex -18.15 -31.4367 7
    endloop
  endfacet
  facet normal -0.406736 -0.913546 -0
    outer loop
      vertex -11.2173 -34.5233 7
      vertex -18.15 -31.4367 0
      vertex -11.2173 -34.5233 0
    endloop
  endfacet
  facet normal -0.587785 -0.809017 0
    outer loop
      vertex -24.2894 -26.9762 0
      vertex -18.15 -31.4367 7
      vertex -24.2894 -26.9762 7
    endloop
  endfacet
  facet normal -0.587785 -0.809017 -0
    outer loop
      vertex -18.15 -31.4367 7
      vertex -24.2894 -26.9762 0
      vertex -18.15 -31.4367 0
    endloop
  endfacet
  facet normal -0.994522 -0.104529 0
    outer loop
      vertex 34.3 0 2
      vertex 33.5505 7.13137 7
      vertex 33.5505 7.13137 2
    endloop
  endfacet
  facet normal -0.994522 -0.104529 0
    outer loop
      vertex 33.5505 7.13137 7
      vertex 34.3 0 2
      vertex 34.3 0 7
    endloop
  endfacet
  facet normal 0.994522 -0.104529 0
    outer loop
      vertex -34.3 0 7
      vertex -33.5505 7.13137 2
      vertex -33.5505 7.13137 7
    endloop
  endfacet
  facet normal 0.994522 -0.104529 0
    outer loop
      vertex -33.5505 7.13137 2
      vertex -34.3 0 7
      vertex -34.3 0 2
    endloop
  endfacet
  facet normal 0 -1 0
    outer loop
      vertex -3.58533 34.1121 2
      vertex 3.58533 34.1121 7
      vertex -3.58533 34.1121 7
    endloop
  endfacet
  facet normal 0 -1 -0
    outer loop
      vertex 3.58533 34.1121 7
      vertex -3.58533 34.1121 2
      vertex 3.58533 34.1121 2
    endloop
  endfacet
  facet normal 0 1 -0
    outer loop
      vertex 3.58533 -34.1121 2
      vertex -3.58533 -34.1121 7
      vertex 3.58533 -34.1121 7
    endloop
  endfacet
  facet normal 0 1 0
    outer loop
      vertex -3.58533 -34.1121 7
      vertex 3.58533 -34.1121 2
      vertex -3.58533 -34.1121 2
    endloop
  endfacet
  facet normal -0.743145 -0.669131 0
    outer loop
      vertex 27.7493 20.161 2
      vertex 22.9512 25.4899 7
      vertex 22.9512 25.4899 2
    endloop
  endfacet
  facet normal -0.743145 -0.669131 0
    outer loop
      vertex 22.9512 25.4899 7
      vertex 27.7493 20.161 2
      vertex 27.7493 20.161 7
    endloop
  endfacet
  facet normal 0.743145 -0.669131 0
    outer loop
      vertex -27.7493 20.161 7
      vertex -22.9512 25.4899 2
      vertex -22.9512 25.4899 7
    endloop
  endfacet
  facet normal 0.743145 -0.669131 0
    outer loop
      vertex -22.9512 25.4899 2
      vertex -27.7493 20.161 7
      vertex -27.7493 20.161 2
    endloop
  endfacet
  facet normal 0.866025 -0.5 0
    outer loop
      vertex -31.3346 13.9511 7
      vertex -27.7493 20.161 2
      vertex -27.7493 20.161 7
    endloop
  endfacet
  facet normal 0.866025 -0.5 0
    outer loop
      vertex -27.7493 20.161 2
      vertex -31.3346 13.9511 7
      vertex -31.3346 13.9511 2
    endloop
  endfacet
  facet normal 0.406737 -0.913545 0
    outer loop
      vertex -17.15 29.7047 2
      vertex -10.5993 32.6212 7
      vertex -17.15 29.7047 7
    endloop
  endfacet
  facet normal 0.406737 -0.913545 0
    outer loop
      vertex -10.5993 32.6212 7
      vertex -17.15 29.7047 2
      vertex -10.5993 32.6212 2
    endloop
  endfacet
  facet normal -0.866025 0.5 0
    outer loop
      vertex 27.7493 -20.161 2
      vertex 31.3346 -13.9511 7
      vertex 31.3346 -13.9511 2
    endloop
  endfacet
  facet normal -0.866025 0.5 0
    outer loop
      vertex 31.3346 -13.9511 7
      vertex 27.7493 -20.161 2
      vertex 27.7493 -20.161 7
    endloop
  endfacet
  facet normal -0.866025 -0.5 0
    outer loop
      vertex 31.3346 13.9511 2
      vertex 27.7493 20.161 7
      vertex 27.7493 20.161 2
    endloop
  endfacet
  facet normal -0.866025 -0.5 0
    outer loop
      vertex 27.7493 20.161 7
      vertex 31.3346 13.9511 2
      vertex 31.3346 13.9511 7
    endloop
  endfacet
  facet normal -0.951057 -0.309017 0
    outer loop
      vertex 33.5505 7.13137 2
      vertex 31.3346 13.9511 7
      vertex 31.3346 13.9511 2
    endloop
  endfacet
  facet normal -0.951057 -0.309017 0
    outer loop
      vertex 31.3346 13.9511 7
      vertex 33.5505 7.13137 2
      vertex 33.5505 7.13137 7
    endloop
  endfacet
  facet normal -0.406737 -0.913545 0
    outer loop
      vertex 10.5993 32.6212 2
      vertex 17.15 29.7047 7
      vertex 10.5993 32.6212 7
    endloop
  endfacet
  facet normal -0.406737 -0.913545 -0
    outer loop
      vertex 17.15 29.7047 7
      vertex 10.5993 32.6212 2
      vertex 17.15 29.7047 2
    endloop
  endfacet
  facet normal -0.207911 -0.978148 0
    outer loop
      vertex 3.58533 34.1121 2
      vertex 10.5993 32.6212 7
      vertex 3.58533 34.1121 7
    endloop
  endfacet
  facet normal -0.207911 -0.978148 -0
    outer loop
      vertex 10.5993 32.6212 7
      vertex 3.58533 34.1121 2
      vertex 10.5993 32.6212 2
    endloop
  endfacet
  facet normal -0.587785 -0.809017 0
    outer loop
      vertex 17.15 29.7047 2
      vertex 22.9512 25.4899 7
      vertex 17.15 29.7047 7
    endloop
  endfacet
  facet normal -0.587785 -0.809017 -0
    outer loop
      vertex 22.9512 25.4899 7
      vertex 17.15 29.7047 2
      vertex 22.9512 25.4899 2
    endloop
  endfacet
  facet normal 0.951057 -0.309017 0
    outer loop
      vertex -33.5505 7.13137 7
      vertex -31.3346 13.9511 2
      vertex -31.3346 13.9511 7
    endloop
  endfacet
  facet normal 0.951057 -0.309017 0
    outer loop
      vertex -31.3346 13.9511 2
      vertex -33.5505 7.13137 7
      vertex -33.5505 7.13137 2
    endloop
  endfacet
  facet normal 0.587785 -0.809017 0
    outer loop
      vertex -22.9512 25.4899 2
      vertex -17.15 29.7047 7
      vertex -22.9512 25.4899 7
    endloop
  endfacet
  facet normal 0.587785 -0.809017 0
    outer loop
      vertex -17.15 29.7047 7
      vertex -22.9512 25.4899 2
      vertex -17.15 29.7047 2
    endloop
  endfacet
  facet normal 0.207911 -0.978148 0
    outer loop
      vertex -10.5993 32.6212 2
      vertex -3.58533 34.1121 7
      vertex -10.5993 32.6212 7
    endloop
  endfacet
  facet normal 0.207911 -0.978148 0
    outer loop
      vertex -3.58533 34.1121 7
      vertex -10.5993 32.6212 2
      vertex -3.58533 34.1121 2
    endloop
  endfacet
  facet normal 0 0 1
    outer loop
      vertex 33.5505 7.13137 2
      vertex 33.5505 -7.13137 2
      vertex 34.3 0 2
    endloop
  endfacet
  facet normal 0 0 1
    outer loop
      vertex 31.3346 13.9511 2
      vertex 33.5505 -7.13137 2
      vertex 33.5505 7.13137 2
    endloop
  endfacet
  facet normal 0 0 1
    outer loop
      vertex 31.3346 13.9511 2
      vertex 31.3346 -13.9511 2
      vertex 33.5505 -7.13137 2
    endloop
  endfacet
  facet normal 0 0 1
    outer loop
      vertex 27.7493 20.161 2
      vertex 31.3346 -13.9511 2
      vertex 31.3346 13.9511 2
    endloop
  endfacet
  facet normal 0 0 1
    outer loop
      vertex 27.7493 20.161 2
      vertex 27.7493 -20.161 2
      vertex 31.3346 -13.9511 2
    endloop
  endfacet
  facet normal 0 0 1
    outer loop
      vertex 22.9512 25.4899 2
      vertex 27.7493 -20.161 2
      vertex 27.7493 20.161 2
    endloop
  endfacet
  facet normal 0 0 1
    outer loop
      vertex 22.9512 25.4899 2
      vertex 22.9512 -25.4899 2
      vertex 27.7493 -20.161 2
    endloop
  endfacet
  facet normal 0 0 1
    outer loop
      vertex 17.15 29.7047 2
      vertex 22.9512 -25.4899 2
      vertex 22.9512 25.4899 2
    endloop
  endfacet
  facet normal 0 0 1
    outer loop
      vertex 17.15 29.7047 2
      vertex 17.15 -29.7047 2
      vertex 22.9512 -25.4899 2
    endloop
  endfacet
  facet normal 0 0 1
    outer loop
      vertex 10.5993 32.6212 2
      vertex 17.15 -29.7047 2
      vertex 17.15 29.7047 2
    endloop
  endfacet
  facet normal 0 0 1
    outer loop
      vertex 10.5993 32.6212 2
      vertex 10.5993 -32.6212 2
      vertex 17.15 -29.7047 2
    endloop
  endfacet
  facet normal 0 0 1
    outer loop
      vertex 3.58533 34.1121 2
      vertex 10.5993 -32.6212 2
      vertex 10.5993 32.6212 2
    endloop
  endfacet
  facet normal 0 0 1
    outer loop
      vertex 3.58533 34.1121 2
      vertex 3.58533 -34.1121 2
      vertex 10.5993 -32.6212 2
    endloop
  endfacet
  facet normal -0 0 1
    outer loop
      vertex -3.58533 34.1121 2
      vertex 3.58533 -34.1121 2
      vertex 3.58533 34.1121 2
    endloop
  endfacet
  facet normal 0 0 1
    outer loop
      vertex -3.58533 34.1121 2
      vertex -3.58533 -34.1121 2
      vertex 3.58533 -34.1121 2
    endloop
  endfacet
  facet normal -0 0 1
    outer loop
      vertex -10.5993 32.6212 2
      vertex -3.58533 -34.1121 2
      vertex -3.58533 34.1121 2
    endloop
  endfacet
  facet normal 0 0 1
    outer loop
      vertex -10.5993 32.6212 2
      vertex -10.5993 -32.6212 2
      vertex -3.58533 -34.1121 2
    endloop
  endfacet
  facet normal -0 0 1
    outer loop
      vertex -17.15 29.7047 2
      vertex -10.5993 -32.6212 2
      vertex -10.5993 32.6212 2
    endloop
  endfacet
  facet normal 0 0 1
    outer loop
      vertex -17.15 29.7047 2
      vertex -17.15 -29.7047 2
      vertex -10.5993 -32.6212 2
    endloop
  endfacet
  facet normal -0 0 1
    outer loop
      vertex -22.9512 25.4899 2
      vertex -17.15 -29.7047 2
      vertex -17.15 29.7047 2
    endloop
  endfacet
  facet normal 0 0 1
    outer loop
      vertex -22.9512 25.4899 2
      vertex -22.9512 -25.4899 2
      vertex -17.15 -29.7047 2
    endloop
  endfacet
  facet normal -0 0 1
    outer loop
      vertex -27.7493 20.161 2
      vertex -22.9512 -25.4899 2
      vertex -22.9512 25.4899 2
    endloop
  endfacet
  facet normal 0 0 1
    outer loop
      vertex -27.7493 20.161 2
      vertex -27.7493 -20.161 2
      vertex -22.9512 -25.4899 2
    endloop
  endfacet
  facet normal -0 0 1
    outer loop
      vertex -31.3346 13.9511 2
      vertex -27.7493 -20.161 2
      vertex -27.7493 20.161 2
    endloop
  endfacet
  facet normal 0 0 1
    outer loop
      vertex -31.3346 13.9511 2
      vertex -31.3346 -13.9511 2
      vertex -27.7493 -20.161 2
    endloop
  endfacet
  facet normal -0 0 1
    outer loop
      vertex -33.5505 7.13137 2
      vertex -31.3346 -13.9511 2
      vertex -31.3346 13.9511 2
    endloop
  endfacet
  facet normal 0 0 1
    outer loop
      vertex -33.5505 7.13137 2
      vertex -33.5505 -7.13137 2
      vertex -31.3346 -13.9511 2
    endloop
  endfacet
  facet normal 0 -0 1
    outer loop
      vertex -33.5505 -7.13137 2
      vertex -33.5505 7.13137 2
      vertex -34.3 0 2
    endloop
  endfacet
  facet normal -0.743145 0.669131 0
    outer loop
      vertex 22.9512 -25.4899 2
      vertex 27.7493 -20.161 7
      vertex 27.7493 -20.161 2
    endloop
  endfacet
  facet normal -0.743145 0.669131 0
    outer loop
      vertex 27.7493 -20.161 7
      vertex 22.9512 -25.4899 2
      vertex 22.9512 -25.4899 7
    endloop
  endfacet
  facet normal -0.951057 0.309017 0
    outer loop
      vertex 31.3346 -13.9511 2
      vertex 33.5505 -7.13137 7
      vertex 33.5505 -7.13137 2
    endloop
  endfacet
  facet normal -0.951057 0.309017 0
    outer loop
      vertex 33.5505 -7.13137 7
      vertex 31.3346 -13.9511 2
      vertex 31.3346 -13.9511 7
    endloop
  endfacet
  facet normal -0.994522 0.104529 0
    outer loop
      vertex 33.5505 -7.13137 2
      vertex 34.3 0 7
      vertex 34.3 0 2
    endloop
  endfacet
  facet normal -0.994522 0.104529 0
    outer loop
      vertex 34.3 0 7
      vertex 33.5505 -7.13137 2
      vertex 33.5505 -7.13137 7
    endloop
  endfacet
  facet normal 0.406737 0.913545 -0
    outer loop
      vertex -10.5993 -32.6212 2
      vertex -17.15 -29.7047 7
      vertex -10.5993 -32.6212 7
    endloop
  endfacet
  facet normal 0.406737 0.913545 0
    outer loop
      vertex -17.15 -29.7047 7
      vertex -10.5993 -32.6212 2
      vertex -17.15 -29.7047 2
    endloop
  endfacet
  facet normal 0.866025 0.5 0
    outer loop
      vertex -27.7493 -20.161 7
      vertex -31.3346 -13.9511 2
      vertex -31.3346 -13.9511 7
    endloop
  endfacet
  facet normal 0.866025 0.5 0
    outer loop
      vertex -31.3346 -13.9511 2
      vertex -27.7493 -20.161 7
      vertex -27.7493 -20.161 2
    endloop
  endfacet
  facet normal -0.587785 0.809017 0
    outer loop
      vertex 22.9512 -25.4899 2
      vertex 17.15 -29.7047 7
      vertex 22.9512 -25.4899 7
    endloop
  endfacet
  facet normal -0.587785 0.809017 0
    outer loop
      vertex 17.15 -29.7047 7
      vertex 22.9512 -25.4899 2
      vertex 17.15 -29.7047 2
    endloop
  endfacet
  facet normal 0.207911 0.978148 -0
    outer loop
      vertex -3.58533 -34.1121 2
      vertex -10.5993 -32.6212 7
      vertex -3.58533 -34.1121 7
    endloop
  endfacet
  facet normal 0.207911 0.978148 0
    outer loop
      vertex -10.5993 -32.6212 7
      vertex -3.58533 -34.1121 2
      vertex -10.5993 -32.6212 2
    endloop
  endfacet
  facet normal 0.587785 0.809017 -0
    outer loop
      vertex -17.15 -29.7047 2
      vertex -22.9512 -25.4899 7
      vertex -17.15 -29.7047 7
    endloop
  endfacet
  facet normal 0.587785 0.809017 0
    outer loop
      vertex -22.9512 -25.4899 7
      vertex -17.15 -29.7047 2
      vertex -22.9512 -25.4899 2
    endloop
  endfacet
  facet normal 0.743145 0.669131 0
    outer loop
      vertex -22.9512 -25.4899 7
      vertex -27.7493 -20.161 2
      vertex -27.7493 -20.161 7
    endloop
  endfacet
  facet normal 0.743145 0.669131 0
    outer loop
      vertex -27.7493 -20.161 2
      vertex -22.9512 -25.4899 7
      vertex -22.9512 -25.4899 2
    endloop
  endfacet
  facet normal 0.951057 0.309017 0
    outer loop
      vertex -31.3346 -13.9511 7
      vertex -33.5505 -7.13137 2
      vertex -33.5505 -7.13137 7
    endloop
  endfacet
  facet normal 0.951057 0.309017 0
    outer loop
      vertex -33.5505 -7.13137 2
      vertex -31.3346 -13.9511 7
      vertex -31.3346 -13.9511 2
    endloop
  endfacet
  facet normal 0.994522 0.104529 0
    outer loop
      vertex -33.5505 -7.13137 7
      vertex -34.3 0 2
      vertex -34.3 0 7
    endloop
  endfacet
  facet normal 0.994522 0.104529 0
    outer loop
      vertex -34.3 0 2
      vertex -33.5505 -7.13137 7
      vertex -33.5505 -7.13137 2
    endloop
  endfacet
  facet normal -0.406737 0.913545 0
    outer loop
      vertex 17.15 -29.7047 2
      vertex 10.5993 -32.6212 7
      vertex 17.15 -29.7047 7
    endloop
  endfacet
  facet normal -0.406737 0.913545 0
    outer loop
      vertex 10.5993 -32.6212 7
      vertex 17.15 -29.7047 2
      vertex 10.5993 -32.6212 2
    endloop
  endfacet
  facet normal -0.207911 0.978148 0
    outer loop
      vertex 10.5993 -32.6212 2
      vertex 3.58533 -34.1121 7
      vertex 10.5993 -32.6212 7
    endloop
  endfacet
  facet normal -0.207911 0.978148 0
    outer loop
      vertex 3.58533 -34.1121 7
      vertex 10.5993 -32.6212 2
      vertex 3.58533 -34.1121 2
    endloop
  endfacet
endsolid OpenSCAD_Model
