solid OpenSCAD_Model
  facet normal -0.994522 -0.104529 0
    outer loop
      vertex 34.3 0 2
      vertex 33.5505 7.13137 5
      vertex 33.5505 7.13137 2
    endloop
  endfacet
  facet normal -0.994522 -0.104529 0
    outer loop
      vertex 33.5505 7.13137 5
      vertex 34.3 0 2
      vertex 34.3 0 5
    endloop
  endfacet
  facet normal 0.994522 -0.104529 0
    outer loop
      vertex -34.3 0 5
      vertex -33.5505 7.13137 2
      vertex -33.5505 7.13137 5
    endloop
  endfacet
  facet normal 0.994522 -0.104529 0
    outer loop
      vertex -33.5505 7.13137 2
      vertex -34.3 0 5
      vertex -34.3 0 2
    endloop
  endfacet
  facet normal 0 -1 0
    outer loop
      vertex -3.58533 34.1121 2
      vertex 3.58533 34.1121 5
      vertex -3.58533 34.1121 5
    endloop
  endfacet
  facet normal 0 -1 -0
    outer loop
      vertex 3.58533 34.1121 5
      vertex -3.58533 34.1121 2
      vertex 3.58533 34.1121 2
    endloop
  endfacet
  facet normal 0 1 -0
    outer loop
      vertex 3.58533 -34.1121 2
      vertex -3.58533 -34.1121 5
      vertex 3.58533 -34.1121 5
    endloop
  endfacet
  facet normal 0 1 0
    outer loop
      vertex -3.58533 -34.1121 5
      vertex 3.58533 -34.1121 2
      vertex -3.58533 -34.1121 2
    endloop
  endfacet
  facet normal -0.743145 -0.669131 0
    outer loop
      vertex 27.7493 20.161 2
      vertex 22.9512 25.4899 5
      vertex 22.9512 25.4899 2
    endloop
  endfacet
  facet normal -0.743145 -0.669131 0
    outer loop
      vertex 22.9512 25.4899 5
      vertex 27.7493 20.161 2
      vertex 27.7493 20.161 5
    endloop
  endfacet
  facet normal 0.743145 -0.669131 0
    outer loop
      vertex -27.7493 20.161 5
      vertex -22.9512 25.4899 2
      vertex -22.9512 25.4899 5
    endloop
  endfacet
  facet normal 0.743145 -0.669131 0
    outer loop
      vertex -22.9512 25.4899 2
      vertex -27.7493 20.161 5
      vertex -27.7493 20.161 2
    endloop
  endfacet
  facet normal 0.866025 -0.5 0
    outer loop
      vertex -31.3346 13.9511 5
      vertex -27.7493 20.161 2
      vertex -27.7493 20.161 5
    endloop
  endfacet
  facet normal 0.866025 -0.5 0
    outer loop
      vertex -27.7493 20.161 2
      vertex -31.3346 13.9511 5
      vertex -31.3346 13.9511 2
    endloop
  endfacet
  facet normal 0.406737 -0.913545 0
    outer loop
      vertex -17.15 29.7047 2
      vertex -10.5993 32.6212 5
      vertex -17.15 29.7047 5
    endloop
  endfacet
  facet normal 0.406737 -0.913545 0
    outer loop
      vertex -10.5993 32.6212 5
      vertex -17.15 29.7047 2
      vertex -10.5993 32.6212 2
    endloop
  endfacet
  facet normal -0.866025 0.5 0
    outer loop
      vertex 27.7493 -20.161 2
      vertex 31.3346 -13.9511 5
      vertex 31.3346 -13.9511 2
    endloop
  endfacet
  facet normal -0.866025 0.5 0
    outer loop
      vertex 31.3346 -13.9511 5
      vertex 27.7493 -20.161 2
      vertex 27.7493 -20.161 5
    endloop
  endfacet
  facet normal -0.866025 -0.5 0
    outer loop
      vertex 31.3346 13.9511 2
      vertex 27.7493 20.161 5
      vertex 27.7493 20.161 2
    endloop
  endfacet
  facet normal -0.866025 -0.5 0
    outer loop
      vertex 27.7493 20.161 5
      vertex 31.3346 13.9511 2
      vertex 31.3346 13.9511 5
    endloop
  endfacet
  facet normal -0.951057 -0.309017 0
    outer loop
      vertex 33.5505 7.13137 2
      vertex 31.3346 13.9511 5
      vertex 31.3346 13.9511 2
    endloop
  endfacet
  facet normal -0.951057 -0.309017 0
    outer loop
      vertex 31.3346 13.9511 5
      vertex 33.5505 7.13137 2
      vertex 33.5505 7.13137 5
    endloop
  endfacet
  facet normal -0.406737 -0.913545 0
    outer loop
      vertex 10.5993 32.6212 2
      vertex 17.15 29.7047 5
      vertex 10.5993 32.6212 5
    endloop
  endfacet
  facet normal -0.406737 -0.913545 -0
    outer loop
      vertex 17.15 29.7047 5
      vertex 10.5993 32.6212 2
      vertex 17.15 29.7047 2
    endloop
  endfacet
  facet normal -0.207911 -0.978148 0
    outer loop
      vertex 3.58533 34.1121 2
      vertex 10.5993 32.6212 5
      vertex 3.58533 34.1121 5
    endloop
  endfacet
  facet normal -0.207911 -0.978148 -0
    outer loop
      vertex 10.5993 32.6212 5
      vertex 3.58533 34.1121 2
      vertex 10.5993 32.6212 2
    endloop
  endfacet
  facet normal -0.587785 -0.809017 0
    outer loop
      vertex 17.15 29.7047 2
      vertex 22.9512 25.4899 5
      vertex 17.15 29.7047 5
    endloop
  endfacet
  facet normal -0.587785 -0.809017 -0
    outer loop
      vertex 22.9512 25.4899 5
      vertex 17.15 29.7047 2
      vertex 22.9512 25.4899 2
    endloop
  endfacet
  facet normal 0.951057 -0.309017 0
    outer loop
      vertex -33.5505 7.13137 5
      vertex -31.3346 13.9511 2
      vertex -31.3346 13.9511 5
    endloop
  endfacet
  facet normal 0.951057 -0.309017 0
    outer loop
      vertex -31.3346 13.9511 2
      vertex -33.5505 7.13137 5
      vertex -33.5505 7.13137 2
    endloop
  endfacet
  facet normal 0.587785 -0.809017 0
    outer loop
      vertex -22.9512 25.4899 2
      vertex -17.15 29.7047 5
      vertex -22.9512 25.4899 5
    endloop
  endfacet
  facet normal 0.587785 -0.809017 0
    outer loop
      vertex -17.15 29.7047 5
      vertex -22.9512 25.4899 2
      vertex -17.15 29.7047 2
    endloop
  endfacet
  facet normal 0.207911 -0.978148 0
    outer loop
      vertex -10.5993 32.6212 2
      vertex -3.58533 34.1121 5
      vertex -10.5993 32.6212 5
    endloop
  endfacet
  facet normal 0.207911 -0.978148 0
    outer loop
      vertex -3.58533 34.1121 5
      vertex -10.5993 32.6212 2
      vertex -3.58533 34.1121 2
    endloop
  endfacet
  facet normal -0.994522 0.104529 0
    outer loop
      vertex 33.5505 -7.13137 2
      vertex 34.3 0 5
      vertex 34.3 0 2
    endloop
  endfacet
  facet normal -0.994522 0.104529 0
    outer loop
      vertex 34.3 0 5
      vertex 33.5505 -7.13137 2
      vertex 33.5505 -7.13137 5
    endloop
  endfacet
  facet normal 0 0 1
    outer loop
      vertex 33.5505 7.13137 2
      vertex 33.5505 -7.13137 2
      vertex 34.3 0 2
    endloop
  endfacet
  facet normal 0 0 1
    outer loop
      vertex 31.3346 13.9511 2
      vertex 33.5505 -7.13137 2
      vertex 33.5505 7.13137 2
    endloop
  endfacet
  facet normal 0 0 1
    outer loop
      vertex 31.3346 13.9511 2
      vertex 31.3346 -13.9511 2
      vertex 33.5505 -7.13137 2
    endloop
  endfacet
  facet normal 0 0 1
    outer loop
      vertex 27.7493 20.161 2
      vertex 31.3346 -13.9511 2
      vertex 31.3346 13.9511 2
    endloop
  endfacet
  facet normal 0 0 1
    outer loop
      vertex 27.7493 20.161 2
      vertex 27.7493 -20.161 2
      vertex 31.3346 -13.9511 2
    endloop
  endfacet
  facet normal 0 0 1
    outer loop
      vertex 22.9512 25.4899 2
      vertex 27.7493 -20.161 2
      vertex 27.7493 20.161 2
    endloop
  endfacet
  facet normal 0 0 1
    outer loop
      vertex 22.9512 25.4899 2
      vertex 22.9512 -25.4899 2
      vertex 27.7493 -20.161 2
    endloop
  endfacet
  facet normal 0 0 1
    outer loop
      vertex 17.15 29.7047 2
      vertex 22.9512 -25.4899 2
      vertex 22.9512 25.4899 2
    endloop
  endfacet
  facet normal 0 0 1
    outer loop
      vertex 17.15 29.7047 2
      vertex 17.15 -29.7047 2
      vertex 22.9512 -25.4899 2
    endloop
  endfacet
  facet normal 0 0 1
    outer loop
      vertex 10.5993 32.6212 2
      vertex 17.15 -29.7047 2
      vertex 17.15 29.7047 2
    endloop
  endfacet
  facet normal 0 0 1
    outer loop
      vertex 10.5993 32.6212 2
      vertex 10.5993 -32.6212 2
      vertex 17.15 -29.7047 2
    endloop
  endfacet
  facet normal 0 0 1
    outer loop
      vertex 3.58533 34.1121 2
      vertex 10.5993 -32.6212 2
      vertex 10.5993 32.6212 2
    endloop
  endfacet
  facet normal 0 0 1
    outer loop
      vertex 3.58533 34.1121 2
      vertex 3.58533 -34.1121 2
      vertex 10.5993 -32.6212 2
    endloop
  endfacet
  facet normal -0 0 1
    outer loop
      vertex -3.58533 34.1121 2
      vertex 3.58533 -34.1121 2
      vertex 3.58533 34.1121 2
    endloop
  endfacet
  facet normal 0 0 1
    outer loop
      vertex -3.58533 34.1121 2
      vertex -3.58533 -34.1121 2
      vertex 3.58533 -34.1121 2
    endloop
  endfacet
  facet normal -0 0 1
    outer loop
      vertex -10.5993 32.6212 2
      vertex -3.58533 -34.1121 2
      vertex -3.58533 34.1121 2
    endloop
  endfacet
  facet normal 0 0 1
    outer loop
      vertex -10.5993 32.6212 2
      vertex -10.5993 -32.6212 2
      vertex -3.58533 -34.1121 2
    endloop
  endfacet
  facet normal -0 0 1
    outer loop
      vertex -17.15 29.7047 2
      vertex -10.5993 -32.6212 2
      vertex -10.5993 32.6212 2
    endloop
  endfacet
  facet normal 0 0 1
    outer loop
      vertex -17.15 29.7047 2
      vertex -17.15 -29.7047 2
      vertex -10.5993 -32.6212 2
    endloop
  endfacet
  facet normal -0 0 1
    outer loop
      vertex -22.9512 25.4899 2
      vertex -17.15 -29.7047 2
      vertex -17.15 29.7047 2
    endloop
  endfacet
  facet normal 0 0 1
    outer loop
      vertex -22.9512 25.4899 2
      vertex -22.9512 -25.4899 2
      vertex -17.15 -29.7047 2
    endloop
  endfacet
  facet normal -0 0 1
    outer loop
      vertex -27.7493 20.161 2
      vertex -22.9512 -25.4899 2
      vertex -22.9512 25.4899 2
    endloop
  endfacet
  facet normal 0 0 1
    outer loop
      vertex -27.7493 20.161 2
      vertex -27.7493 -20.161 2
      vertex -22.9512 -25.4899 2
    endloop
  endfacet
  facet normal -0 0 1
    outer loop
      vertex -31.3346 13.9511 2
      vertex -27.7493 -20.161 2
      vertex -27.7493 20.161 2
    endloop
  endfacet
  facet normal 0 0 1
    outer loop
      vertex -31.3346 13.9511 2
      vertex -31.3346 -13.9511 2
      vertex -27.7493 -20.161 2
    endloop
  endfacet
  facet normal -0 0 1
    outer loop
      vertex -33.5505 7.13137 2
      vertex -31.3346 -13.9511 2
      vertex -31.3346 13.9511 2
    endloop
  endfacet
  facet normal 0 0 1
    outer loop
      vertex -33.5505 7.13137 2
      vertex -33.5505 -7.13137 2
      vertex -31.3346 -13.9511 2
    endloop
  endfacet
  facet normal 0 -0 1
    outer loop
      vertex -33.5505 -7.13137 2
      vertex -33.5505 7.13137 2
      vertex -34.3 0 2
    endloop
  endfacet
  facet normal -0.951057 0.309017 0
    outer loop
      vertex 31.3346 -13.9511 2
      vertex 33.5505 -7.13137 5
      vertex 33.5505 -7.13137 2
    endloop
  endfacet
  facet normal -0.951057 0.309017 0
    outer loop
      vertex 33.5505 -7.13137 5
      vertex 31.3346 -13.9511 2
      vertex 31.3346 -13.9511 5
    endloop
  endfacet
  facet normal 0.866025 0.5 0
    outer loop
      vertex -27.7493 -20.161 5
      vertex -31.3346 -13.9511 2
      vertex -31.3346 -13.9511 5
    endloop
  endfacet
  facet normal 0.866025 0.5 0
    outer loop
      vertex -31.3346 -13.9511 2
      vertex -27.7493 -20.161 5
      vertex -27.7493 -20.161 2
    endloop
  endfacet
  facet normal -0.587785 0.809017 0
    outer loop
      vertex 22.9512 -25.4899 2
      vertex 17.15 -29.7047 5
      vertex 22.9512 -25.4899 5
    endloop
  endfacet
  facet normal -0.587785 0.809017 0
    outer loop
      vertex 17.15 -29.7047 5
      vertex 22.9512 -25.4899 2
      vertex 17.15 -29.7047 2
    endloop
  endfacet
  facet normal 0.207911 0.978148 -0
    outer loop
      vertex -3.58533 -34.1121 2
      vertex -10.5993 -32.6212 5
      vertex -3.58533 -34.1121 5
    endloop
  endfacet
  facet normal 0.207911 0.978148 0
    outer loop
      vertex -10.5993 -32.6212 5
      vertex -3.58533 -34.1121 2
      vertex -10.5993 -32.6212 2
    endloop
  endfacet
  facet normal 0.587785 0.809017 -0
    outer loop
      vertex -17.15 -29.7047 2
      vertex -22.9512 -25.4899 5
      vertex -17.15 -29.7047 5
    endloop
  endfacet
  facet normal 0.587785 0.809017 0
    outer loop
      vertex -22.9512 -25.4899 5
      vertex -17.15 -29.7047 2
      vertex -22.9512 -25.4899 2
    endloop
  endfacet
  facet normal 0.406737 0.913545 -0
    outer loop
      vertex -10.5993 -32.6212 2
      vertex -17.15 -29.7047 5
      vertex -10.5993 -32.6212 5
    endloop
  endfacet
  facet normal 0.406737 0.913545 0
    outer loop
      vertex -17.15 -29.7047 5
      vertex -10.5993 -32.6212 2
      vertex -17.15 -29.7047 2
    endloop
  endfacet
  facet normal 0.743145 0.669131 0
    outer loop
      vertex -22.9512 -25.4899 5
      vertex -27.7493 -20.161 2
      vertex -27.7493 -20.161 5
    endloop
  endfacet
  facet normal 0.743145 0.669131 0
    outer loop
      vertex -27.7493 -20.161 2
      vertex -22.9512 -25.4899 5
      vertex -22.9512 -25.4899 2
    endloop
  endfacet
  facet normal 0.951057 0.309017 0
    outer loop
      vertex -31.3346 -13.9511 5
      vertex -33.5505 -7.13137 2
      vertex -33.5505 -7.13137 5
    endloop
  endfacet
  facet normal 0.951057 0.309017 0
    outer loop
      vertex -33.5505 -7.13137 2
      vertex -31.3346 -13.9511 5
      vertex -31.3346 -13.9511 2
    endloop
  endfacet
  facet normal 0.994522 0.104529 0
    outer loop
      vertex -33.5505 -7.13137 5
      vertex -34.3 0 2
      vertex -34.3 0 5
    endloop
  endfacet
  facet normal 0.994522 0.104529 0
    outer loop
      vertex -34.3 0 2
      vertex -33.5505 -7.13137 5
      vertex -33.5505 -7.13137 2
    endloop
  endfacet
  facet normal -0.406737 0.913545 0
    outer loop
      vertex 17.15 -29.7047 2
      vertex 10.5993 -32.6212 5
      vertex 17.15 -29.7047 5
    endloop
  endfacet
  facet normal -0.406737 0.913545 0
    outer loop
      vertex 10.5993 -32.6212 5
      vertex 17.15 -29.7047 2
      vertex 10.5993 -32.6212 2
    endloop
  endfacet
  facet normal -0.207911 0.978148 0
    outer loop
      vertex 10.5993 -32.6212 2
      vertex 3.58533 -34.1121 5
      vertex 10.5993 -32.6212 5
    endloop
  endfacet
  facet normal -0.207911 0.978148 0
    outer loop
      vertex 3.58533 -34.1121 5
      vertex 10.5993 -32.6212 2
      vertex 3.58533 -34.1121 2
    endloop
  endfacet
  facet normal -0.743145 0.669131 0
    outer loop
      vertex 22.9512 -25.4899 2
      vertex 27.7493 -20.161 5
      vertex 27.7493 -20.161 2
    endloop
  endfacet
  facet normal -0.743145 0.669131 0
    outer loop
      vertex 27.7493 -20.161 5
      vertex 22.9512 -25.4899 2
      vertex 22.9512 -25.4899 5
    endloop
  endfacet
  facet normal -0.924088 -0.0971259 -0.369633
    outer loop
      vertex 34.3 0 5
      vertex 33.9 0 6
      vertex 33.1592 7.04821 6
    endloop
  endfacet
  facet normal -0.924087 -0.0971256 -0.369634
    outer loop
      vertex 33.5505 7.13137 5
      vertex 34.3 0 5
      vertex 33.1592 7.04821 6
    endloop
  endfacet
  facet normal 0.924088 0.0971259 -0.369633
    outer loop
      vertex -33.9 0 6
      vertex -33.1592 -7.04821 6
      vertex -34.3 0 5
    endloop
  endfacet
  facet normal -0.8837 -0.287131 -0.369636
    outer loop
      vertex 31.3346 13.9511 5
      vertex 33.1592 7.04821 6
      vertex 30.9692 13.7884 6
    endloop
  endfacet
  facet normal -0.804691 -0.464589 -0.369635
    outer loop
      vertex 31.3346 13.9511 5
      vertex 30.9692 13.7884 6
      vertex 27.7493 20.161 5
    endloop
  endfacet
  facet normal 0 0.929177 -0.369634
    outer loop
      vertex 3.58533 -34.1121 5
      vertex -3.54351 -33.7143 6
      vertex 3.54351 -33.7143 6
    endloop
  endfacet
  facet normal 0 0.929177 -0.369634
    outer loop
      vertex -3.54351 -33.7143 6
      vertex 3.58533 -34.1121 5
      vertex -3.58533 -34.1121 5
    endloop
  endfacet
  facet normal 0 -0.929177 -0.369634
    outer loop
      vertex -3.58533 34.1121 5
      vertex 3.54351 33.7143 6
      vertex -3.54351 33.7143 6
    endloop
  endfacet
  facet normal 0 -0.929177 -0.369634
    outer loop
      vertex 3.54351 33.7143 6
      vertex -3.58533 34.1121 5
      vertex 3.58533 34.1121 5
    endloop
  endfacet
  facet normal 0.546157 -0.751721 -0.369633
    outer loop
      vertex -17.15 29.7047 5
      vertex -16.95 29.3583 6
      vertex -22.9512 25.4899 5
    endloop
  endfacet
  facet normal 0.804691 0.464589 -0.369635
    outer loop
      vertex -30.9692 -13.7884 6
      vertex -27.7493 -20.161 5
      vertex -31.3346 -13.9511 5
    endloop
  endfacet
  facet normal 0.8837 0.287131 -0.369636
    outer loop
      vertex -30.9692 -13.7884 6
      vertex -31.3346 -13.9511 5
      vertex -33.1592 -7.04821 6
    endloop
  endfacet
  facet normal -0.546156 0.751719 -0.369636
    outer loop
      vertex 22.6835 -25.1926 6
      vertex 22.9512 -25.4899 5
      vertex 16.95 -29.3583 6
    endloop
  endfacet
  facet normal -0.8837 0.287131 -0.369634
    outer loop
      vertex 33.1592 -7.04821 6
      vertex 33.5505 -7.13137 5
      vertex 31.3346 -13.9511 5
    endloop
  endfacet
  facet normal -0.690513 -0.62174 -0.369636
    outer loop
      vertex 27.7493 20.161 5
      vertex 27.4257 19.9259 6
      vertex 22.9512 25.4899 5
    endloop
  endfacet
  facet normal -0.8837 -0.287131 -0.369634
    outer loop
      vertex 33.5505 7.13137 5
      vertex 33.1592 7.04821 6
      vertex 31.3346 13.9511 5
    endloop
  endfacet
  facet normal 0.924087 -0.0971256 -0.369634
    outer loop
      vertex -33.5505 7.13137 5
      vertex -33.1592 7.04821 6
      vertex -34.3 0 5
    endloop
  endfacet
  facet normal -0.546156 -0.751719 -0.369636
    outer loop
      vertex 22.9512 25.4899 5
      vertex 22.6835 25.1926 6
      vertex 16.95 29.3583 6
    endloop
  endfacet
  facet normal 0.8837 0.287131 -0.369634
    outer loop
      vertex -33.1592 -7.04821 6
      vertex -31.3346 -13.9511 5
      vertex -33.5505 -7.13137 5
    endloop
  endfacet
  facet normal 0.924087 0.0971256 -0.369634
    outer loop
      vertex -33.1592 -7.04821 6
      vertex -33.5505 -7.13137 5
      vertex -34.3 0 5
    endloop
  endfacet
  facet normal 0.193187 0.908873 -0.369634
    outer loop
      vertex -3.54351 -33.7143 6
      vertex -3.58533 -34.1121 5
      vertex -10.4757 -32.2408 6
    endloop
  endfacet
  facet normal 0.546157 0.751721 -0.369633
    outer loop
      vertex -16.95 -29.3583 6
      vertex -17.15 -29.7047 5
      vertex -22.9512 -25.4899 5
    endloop
  endfacet
  facet normal -0.193186 0.908872 -0.369636
    outer loop
      vertex 10.4757 -32.2408 6
      vertex 10.5993 -32.6212 5
      vertex 3.58533 -34.1121 5
    endloop
  endfacet
  facet normal -0.193187 0.908873 -0.369634
    outer loop
      vertex 10.4757 -32.2408 6
      vertex 3.58533 -34.1121 5
      vertex 3.54351 -33.7143 6
    endloop
  endfacet
  facet normal -0.546157 0.751721 -0.369633
    outer loop
      vertex 22.9512 -25.4899 5
      vertex 17.15 -29.7047 5
      vertex 16.95 -29.3583 6
    endloop
  endfacet
  facet normal -0.8837 0.287131 -0.369636
    outer loop
      vertex 33.1592 -7.04821 6
      vertex 31.3346 -13.9511 5
      vertex 30.9692 -13.7884 6
    endloop
  endfacet
  facet normal -0.80469 0.464588 -0.369636
    outer loop
      vertex 30.9692 -13.7884 6
      vertex 27.7493 -20.161 5
      vertex 27.4257 -19.9259 6
    endloop
  endfacet
  facet normal -0.924087 0.0971256 -0.369634
    outer loop
      vertex 34.3 0 5
      vertex 33.5505 -7.13137 5
      vertex 33.1592 -7.04821 6
    endloop
  endfacet
  facet normal -0.924088 0.0971259 -0.369633
    outer loop
      vertex 33.9 0 6
      vertex 34.3 0 5
      vertex 33.1592 -7.04821 6
    endloop
  endfacet
  facet normal 0.924088 -0.0971259 -0.369633
    outer loop
      vertex -33.1592 7.04821 6
      vertex -33.9 0 6
      vertex -34.3 0 5
    endloop
  endfacet
  facet normal 0.377931 -0.848846 -0.369633
    outer loop
      vertex -10.5993 32.6212 5
      vertex -16.95 29.3583 6
      vertex -17.15 29.7047 5
    endloop
  endfacet
  facet normal -0.80469 -0.464588 -0.369636
    outer loop
      vertex 27.7493 20.161 5
      vertex 30.9692 13.7884 6
      vertex 27.4257 19.9259 6
    endloop
  endfacet
  facet normal -0.690513 -0.62174 -0.369636
    outer loop
      vertex 22.9512 25.4899 5
      vertex 27.4257 19.9259 6
      vertex 22.6835 25.1926 6
    endloop
  endfacet
  facet normal -0.37793 -0.848845 -0.369636
    outer loop
      vertex 10.5993 32.6212 5
      vertex 16.95 29.3583 6
      vertex 10.4757 32.2408 6
    endloop
  endfacet
  facet normal -0.377931 -0.848846 -0.369633
    outer loop
      vertex 17.15 29.7047 5
      vertex 16.95 29.3583 6
      vertex 10.5993 32.6212 5
    endloop
  endfacet
  facet normal -0.546157 -0.751721 -0.369633
    outer loop
      vertex 17.15 29.7047 5
      vertex 22.9512 25.4899 5
      vertex 16.95 29.3583 6
    endloop
  endfacet
  facet normal 0.193186 0.908872 -0.369636
    outer loop
      vertex -10.4757 -32.2408 6
      vertex -3.58533 -34.1121 5
      vertex -10.5993 -32.6212 5
    endloop
  endfacet
  facet normal 0.37793 0.848845 -0.369636
    outer loop
      vertex -10.4757 -32.2408 6
      vertex -10.5993 -32.6212 5
      vertex -16.95 -29.3583 6
    endloop
  endfacet
  facet normal 0.80469 0.464588 -0.369636
    outer loop
      vertex -27.4257 -19.9259 6
      vertex -27.7493 -20.161 5
      vertex -30.9692 -13.7884 6
    endloop
  endfacet
  facet normal 0.546156 0.751719 -0.369636
    outer loop
      vertex -22.6835 -25.1926 6
      vertex -16.95 -29.3583 6
      vertex -22.9512 -25.4899 5
    endloop
  endfacet
  facet normal -0.37793 0.848845 -0.369636
    outer loop
      vertex 16.95 -29.3583 6
      vertex 10.5993 -32.6212 5
      vertex 10.4757 -32.2408 6
    endloop
  endfacet
  facet normal -0.377931 0.848846 -0.369633
    outer loop
      vertex 16.95 -29.3583 6
      vertex 17.15 -29.7047 5
      vertex 10.5993 -32.6212 5
    endloop
  endfacet
  facet normal -0.690513 0.62174 -0.369636
    outer loop
      vertex 27.4257 -19.9259 6
      vertex 27.7493 -20.161 5
      vertex 22.9512 -25.4899 5
    endloop
  endfacet
  facet normal -0.804691 0.464589 -0.369635
    outer loop
      vertex 30.9692 -13.7884 6
      vertex 31.3346 -13.9511 5
      vertex 27.7493 -20.161 5
    endloop
  endfacet
  facet normal 0.8837 -0.287131 -0.369634
    outer loop
      vertex -31.3346 13.9511 5
      vertex -33.1592 7.04821 6
      vertex -33.5505 7.13137 5
    endloop
  endfacet
  facet normal 0.8837 -0.287131 -0.369636
    outer loop
      vertex -31.3346 13.9511 5
      vertex -30.9692 13.7884 6
      vertex -33.1592 7.04821 6
    endloop
  endfacet
  facet normal 0.804691 -0.464589 -0.369635
    outer loop
      vertex -27.7493 20.161 5
      vertex -30.9692 13.7884 6
      vertex -31.3346 13.9511 5
    endloop
  endfacet
  facet normal 0.80469 -0.464588 -0.369636
    outer loop
      vertex -27.7493 20.161 5
      vertex -27.4257 19.9259 6
      vertex -30.9692 13.7884 6
    endloop
  endfacet
  facet normal 0.193186 -0.908872 -0.369636
    outer loop
      vertex -3.58533 34.1121 5
      vertex -10.4757 32.2408 6
      vertex -10.5993 32.6212 5
    endloop
  endfacet
  facet normal 0.37793 -0.848845 -0.369636
    outer loop
      vertex -10.5993 32.6212 5
      vertex -10.4757 32.2408 6
      vertex -16.95 29.3583 6
    endloop
  endfacet
  facet normal -0.193186 -0.908872 -0.369636
    outer loop
      vertex 10.5993 32.6212 5
      vertex 10.4757 32.2408 6
      vertex 3.58533 34.1121 5
    endloop
  endfacet
  facet normal 0.377931 0.848846 -0.369633
    outer loop
      vertex -16.95 -29.3583 6
      vertex -10.5993 -32.6212 5
      vertex -17.15 -29.7047 5
    endloop
  endfacet
  facet normal 0.690513 0.62174 -0.369636
    outer loop
      vertex -22.6835 -25.1926 6
      vertex -22.9512 -25.4899 5
      vertex -27.4257 -19.9259 6
    endloop
  endfacet
  facet normal 0.690513 0.62174 -0.369636
    outer loop
      vertex -27.4257 -19.9259 6
      vertex -22.9512 -25.4899 5
      vertex -27.7493 -20.161 5
    endloop
  endfacet
  facet normal -0.690513 0.62174 -0.369636
    outer loop
      vertex 27.4257 -19.9259 6
      vertex 22.9512 -25.4899 5
      vertex 22.6835 -25.1926 6
    endloop
  endfacet
  facet normal 0.690513 -0.62174 -0.369636
    outer loop
      vertex -22.9512 25.4899 5
      vertex -27.4257 19.9259 6
      vertex -27.7493 20.161 5
    endloop
  endfacet
  facet normal 0.193187 -0.908873 -0.369634
    outer loop
      vertex -3.58533 34.1121 5
      vertex -3.54351 33.7143 6
      vertex -10.4757 32.2408 6
    endloop
  endfacet
  facet normal -0.193187 -0.908873 -0.369634
    outer loop
      vertex 3.58533 34.1121 5
      vertex 10.4757 32.2408 6
      vertex 3.54351 33.7143 6
    endloop
  endfacet
  facet normal 0.546156 -0.751719 -0.369636
    outer loop
      vertex -16.95 29.3583 6
      vertex -22.6835 25.1926 6
      vertex -22.9512 25.4899 5
    endloop
  endfacet
  facet normal 0.690513 -0.62174 -0.369636
    outer loop
      vertex -22.9512 25.4899 5
      vertex -22.6835 25.1926 6
      vertex -27.4257 19.9259 6
    endloop
  endfacet
  facet normal -0.994522 -0.104529 0
    outer loop
      vertex 33.9 0 6
      vertex 33.1592 7.04821 8
      vertex 33.1592 7.04821 6
    endloop
  endfacet
  facet normal -0.994522 -0.104529 0
    outer loop
      vertex 33.1592 7.04821 8
      vertex 33.9 0 6
      vertex 33.9 0 8
    endloop
  endfacet
  facet normal 0.994522 -0.104529 0
    outer loop
      vertex -33.9 0 8
      vertex -33.1592 7.04821 6
      vertex -33.1592 7.04821 8
    endloop
  endfacet
  facet normal 0.994522 -0.104529 0
    outer loop
      vertex -33.1592 7.04821 6
      vertex -33.9 0 8
      vertex -33.9 0 6
    endloop
  endfacet
  facet normal 0 -1 0
    outer loop
      vertex -3.54351 33.7143 6
      vertex 3.54351 33.7143 8
      vertex -3.54351 33.7143 8
    endloop
  endfacet
  facet normal 0 -1 -0
    outer loop
      vertex 3.54351 33.7143 8
      vertex -3.54351 33.7143 6
      vertex 3.54351 33.7143 6
    endloop
  endfacet
  facet normal 0 1 -0
    outer loop
      vertex 3.54351 -33.7143 6
      vertex -3.54351 -33.7143 8
      vertex 3.54351 -33.7143 8
    endloop
  endfacet
  facet normal 0 1 0
    outer loop
      vertex -3.54351 -33.7143 8
      vertex 3.54351 -33.7143 6
      vertex -3.54351 -33.7143 6
    endloop
  endfacet
  facet normal -0.587785 -0.809017 0
    outer loop
      vertex 16.95 29.3583 6
      vertex 22.6835 25.1926 8
      vertex 16.95 29.3583 8
    endloop
  endfacet
  facet normal -0.587785 -0.809017 -0
    outer loop
      vertex 22.6835 25.1926 8
      vertex 16.95 29.3583 6
      vertex 22.6835 25.1926 6
    endloop
  endfacet
  facet normal 0.587785 -0.809017 0
    outer loop
      vertex -22.6835 25.1926 6
      vertex -16.95 29.3583 8
      vertex -22.6835 25.1926 8
    endloop
  endfacet
  facet normal 0.587785 -0.809017 0
    outer loop
      vertex -16.95 29.3583 8
      vertex -22.6835 25.1926 6
      vertex -16.95 29.3583 6
    endloop
  endfacet
  facet normal 0.406736 -0.913546 0
    outer loop
      vertex -16.95 29.3583 6
      vertex -10.4757 32.2408 8
      vertex -16.95 29.3583 8
    endloop
  endfacet
  facet normal 0.406736 -0.913546 0
    outer loop
      vertex -10.4757 32.2408 8
      vertex -16.95 29.3583 6
      vertex -10.4757 32.2408 6
    endloop
  endfacet
  facet normal -0.866025 0.5 0
    outer loop
      vertex 27.4257 -19.9259 6
      vertex 30.9692 -13.7884 8
      vertex 30.9692 -13.7884 6
    endloop
  endfacet
  facet normal -0.866025 0.5 0
    outer loop
      vertex 30.9692 -13.7884 8
      vertex 27.4257 -19.9259 6
      vertex 27.4257 -19.9259 8
    endloop
  endfacet
  facet normal -0.866025 -0.5 0
    outer loop
      vertex 30.9692 13.7884 6
      vertex 27.4257 19.9259 8
      vertex 27.4257 19.9259 6
    endloop
  endfacet
  facet normal -0.866025 -0.5 0
    outer loop
      vertex 27.4257 19.9259 8
      vertex 30.9692 13.7884 6
      vertex 30.9692 13.7884 8
    endloop
  endfacet
  facet normal -0.951057 -0.309017 0
    outer loop
      vertex 33.1592 7.04821 6
      vertex 30.9692 13.7884 8
      vertex 30.9692 13.7884 6
    endloop
  endfacet
  facet normal -0.951057 -0.309017 0
    outer loop
      vertex 30.9692 13.7884 8
      vertex 33.1592 7.04821 6
      vertex 33.1592 7.04821 8
    endloop
  endfacet
  facet normal -0.743145 -0.669131 0
    outer loop
      vertex 27.4257 19.9259 6
      vertex 22.6835 25.1926 8
      vertex 22.6835 25.1926 6
    endloop
  endfacet
  facet normal -0.743145 -0.669131 0
    outer loop
      vertex 22.6835 25.1926 8
      vertex 27.4257 19.9259 6
      vertex 27.4257 19.9259 8
    endloop
  endfacet
  facet normal -0.207912 -0.978148 0
    outer loop
      vertex 3.54351 33.7143 6
      vertex 10.4757 32.2408 8
      vertex 3.54351 33.7143 8
    endloop
  endfacet
  facet normal -0.207912 -0.978148 -0
    outer loop
      vertex 10.4757 32.2408 8
      vertex 3.54351 33.7143 6
      vertex 10.4757 32.2408 6
    endloop
  endfacet
  facet normal -0.406736 -0.913546 0
    outer loop
      vertex 10.4757 32.2408 6
      vertex 16.95 29.3583 8
      vertex 10.4757 32.2408 8
    endloop
  endfacet
  facet normal -0.406736 -0.913546 -0
    outer loop
      vertex 16.95 29.3583 8
      vertex 10.4757 32.2408 6
      vertex 16.95 29.3583 6
    endloop
  endfacet
  facet normal 0.866025 -0.5 0
    outer loop
      vertex -30.9692 13.7884 8
      vertex -27.4257 19.9259 6
      vertex -27.4257 19.9259 8
    endloop
  endfacet
  facet normal 0.866025 -0.5 0
    outer loop
      vertex -27.4257 19.9259 6
      vertex -30.9692 13.7884 8
      vertex -30.9692 13.7884 6
    endloop
  endfacet
  facet normal 0.743145 -0.669131 0
    outer loop
      vertex -27.4257 19.9259 8
      vertex -22.6835 25.1926 6
      vertex -22.6835 25.1926 8
    endloop
  endfacet
  facet normal 0.743145 -0.669131 0
    outer loop
      vertex -22.6835 25.1926 6
      vertex -27.4257 19.9259 8
      vertex -27.4257 19.9259 6
    endloop
  endfacet
  facet normal 0.951057 -0.309017 0
    outer loop
      vertex -33.1592 7.04821 8
      vertex -30.9692 13.7884 6
      vertex -30.9692 13.7884 8
    endloop
  endfacet
  facet normal 0.951057 -0.309017 0
    outer loop
      vertex -30.9692 13.7884 6
      vertex -33.1592 7.04821 8
      vertex -33.1592 7.04821 6
    endloop
  endfacet
  facet normal 0 0 1
    outer loop
      vertex 33.9 0 8
      vertex 36.3 0 8
      vertex 35.5068 7.54719 8
    endloop
  endfacet
  facet normal 0 0 1
    outer loop
      vertex 36.3 0 8
      vertex 33.9 0 8
      vertex 35.5068 -7.54719 8
    endloop
  endfacet
  facet normal 0 0 1
    outer loop
      vertex 33.1592 7.04821 8
      vertex 35.5068 7.54719 8
      vertex 33.1617 14.7645 8
    endloop
  endfacet
  facet normal 0 0 1
    outer loop
      vertex 35.5068 7.54719 8
      vertex 33.1592 7.04821 8
      vertex 33.9 0 8
    endloop
  endfacet
  facet normal 0 0 1
    outer loop
      vertex 33.1617 14.7645 8
      vertex 30.9692 13.7884 8
      vertex 33.1592 7.04821 8
    endloop
  endfacet
  facet normal 0 0 1
    outer loop
      vertex 29.3673 21.3366 8
      vertex 30.9692 13.7884 8
      vertex 33.1617 14.7645 8
    endloop
  endfacet
  facet normal 0 0 1
    outer loop
      vertex 29.3673 21.3366 8
      vertex 27.4257 19.9259 8
      vertex 30.9692 13.7884 8
    endloop
  endfacet
  facet normal 0 0 1
    outer loop
      vertex 24.2894 26.9762 8
      vertex 27.4257 19.9259 8
      vertex 29.3673 21.3366 8
    endloop
  endfacet
  facet normal 0 0 1
    outer loop
      vertex 24.2894 26.9762 8
      vertex 22.6835 25.1926 8
      vertex 27.4257 19.9259 8
    endloop
  endfacet
  facet normal 0 0 1
    outer loop
      vertex 18.15 31.4367 8
      vertex 22.6835 25.1926 8
      vertex 24.2894 26.9762 8
    endloop
  endfacet
  facet normal 0 0 1
    outer loop
      vertex 18.15 31.4367 8
      vertex 16.95 29.3583 8
      vertex 22.6835 25.1926 8
    endloop
  endfacet
  facet normal 0 0 1
    outer loop
      vertex 11.2173 34.5233 8
      vertex 16.95 29.3583 8
      vertex 18.15 31.4367 8
    endloop
  endfacet
  facet normal 0 0 1
    outer loop
      vertex 11.2173 34.5233 8
      vertex 10.4757 32.2408 8
      vertex 16.95 29.3583 8
    endloop
  endfacet
  facet normal 0 0 1
    outer loop
      vertex 3.79438 36.1011 8
      vertex 10.4757 32.2408 8
      vertex 11.2173 34.5233 8
    endloop
  endfacet
  facet normal 0 0 1
    outer loop
      vertex 3.79438 36.1011 8
      vertex 3.54351 33.7143 8
      vertex 10.4757 32.2408 8
    endloop
  endfacet
  facet normal 0 0 1
    outer loop
      vertex 3.79438 36.1011 8
      vertex -3.54351 33.7143 8
      vertex 3.54351 33.7143 8
    endloop
  endfacet
  facet normal -0 0 1
    outer loop
      vertex -3.79438 36.1011 8
      vertex -3.54351 33.7143 8
      vertex 3.79438 36.1011 8
    endloop
  endfacet
  facet normal 0 0 1
    outer loop
      vertex -3.79438 36.1011 8
      vertex -10.4757 32.2408 8
      vertex -3.54351 33.7143 8
    endloop
  endfacet
  facet normal -0 0 1
    outer loop
      vertex -11.2173 34.5233 8
      vertex -10.4757 32.2408 8
      vertex -3.79438 36.1011 8
    endloop
  endfacet
  facet normal 0 0 1
    outer loop
      vertex -11.2173 34.5233 8
      vertex -16.95 29.3583 8
      vertex -10.4757 32.2408 8
    endloop
  endfacet
  facet normal -0 0 1
    outer loop
      vertex -18.15 31.4367 8
      vertex -16.95 29.3583 8
      vertex -11.2173 34.5233 8
    endloop
  endfacet
  facet normal 0 0 1
    outer loop
      vertex -18.15 31.4367 8
      vertex -22.6835 25.1926 8
      vertex -16.95 29.3583 8
    endloop
  endfacet
  facet normal -0 0 1
    outer loop
      vertex -24.2894 26.9762 8
      vertex -22.6835 25.1926 8
      vertex -18.15 31.4367 8
    endloop
  endfacet
  facet normal 0 0 1
    outer loop
      vertex -24.2894 26.9762 8
      vertex -27.4257 19.9259 8
      vertex -22.6835 25.1926 8
    endloop
  endfacet
  facet normal -0 0 1
    outer loop
      vertex -29.3673 21.3366 8
      vertex -27.4257 19.9259 8
      vertex -24.2894 26.9762 8
    endloop
  endfacet
  facet normal 0 0 1
    outer loop
      vertex -29.3673 21.3366 8
      vertex -30.9692 13.7884 8
      vertex -27.4257 19.9259 8
    endloop
  endfacet
  facet normal -0 0 1
    outer loop
      vertex -33.1617 14.7645 8
      vertex -30.9692 13.7884 8
      vertex -29.3673 21.3366 8
    endloop
  endfacet
  facet normal 0 0 1
    outer loop
      vertex -30.9692 13.7884 8
      vertex -33.1617 14.7645 8
      vertex -33.1592 7.04821 8
    endloop
  endfacet
  facet normal -0 0 1
    outer loop
      vertex -35.5068 7.54719 8
      vertex -33.1592 7.04821 8
      vertex -33.1617 14.7645 8
    endloop
  endfacet
  facet normal 0 0 1
    outer loop
      vertex -33.1592 7.04821 8
      vertex -35.5068 7.54719 8
      vertex -33.9 0 8
    endloop
  endfacet
  facet normal -0 0 1
    outer loop
      vertex 33.1592 -7.04821 8
      vertex 35.5068 -7.54719 8
      vertex 33.9 0 8
    endloop
  endfacet
  facet normal 0 0 1
    outer loop
      vertex 35.5068 -7.54719 8
      vertex 33.1592 -7.04821 8
      vertex 33.1617 -14.7645 8
    endloop
  endfacet
  facet normal -0 0 1
    outer loop
      vertex 30.9692 -13.7884 8
      vertex 33.1617 -14.7645 8
      vertex 33.1592 -7.04821 8
    endloop
  endfacet
  facet normal 0 0 1
    outer loop
      vertex 30.9692 -13.7884 8
      vertex 29.3673 -21.3366 8
      vertex 33.1617 -14.7645 8
    endloop
  endfacet
  facet normal -0 0 1
    outer loop
      vertex 27.4257 -19.9259 8
      vertex 29.3673 -21.3366 8
      vertex 30.9692 -13.7884 8
    endloop
  endfacet
  facet normal 0 0 1
    outer loop
      vertex 27.4257 -19.9259 8
      vertex 24.2894 -26.9762 8
      vertex 29.3673 -21.3366 8
    endloop
  endfacet
  facet normal -0 0 1
    outer loop
      vertex 22.6835 -25.1926 8
      vertex 24.2894 -26.9762 8
      vertex 27.4257 -19.9259 8
    endloop
  endfacet
  facet normal 0 0 1
    outer loop
      vertex 22.6835 -25.1926 8
      vertex 18.15 -31.4367 8
      vertex 24.2894 -26.9762 8
    endloop
  endfacet
  facet normal -0 0 1
    outer loop
      vertex 16.95 -29.3583 8
      vertex 18.15 -31.4367 8
      vertex 22.6835 -25.1926 8
    endloop
  endfacet
  facet normal 0 0 1
    outer loop
      vertex 16.95 -29.3583 8
      vertex 11.2173 -34.5233 8
      vertex 18.15 -31.4367 8
    endloop
  endfacet
  facet normal -0 0 1
    outer loop
      vertex 10.4757 -32.2408 8
      vertex 11.2173 -34.5233 8
      vertex 16.95 -29.3583 8
    endloop
  endfacet
  facet normal 0 0 1
    outer loop
      vertex 10.4757 -32.2408 8
      vertex 3.79438 -36.1011 8
      vertex 11.2173 -34.5233 8
    endloop
  endfacet
  facet normal -0 0 1
    outer loop
      vertex 3.54351 -33.7143 8
      vertex 3.79438 -36.1011 8
      vertex 10.4757 -32.2408 8
    endloop
  endfacet
  facet normal -0 0 1
    outer loop
      vertex -3.54351 -33.7143 8
      vertex 3.79438 -36.1011 8
      vertex 3.54351 -33.7143 8
    endloop
  endfacet
  facet normal 0 0 1
    outer loop
      vertex -3.54351 -33.7143 8
      vertex -3.79438 -36.1011 8
      vertex 3.79438 -36.1011 8
    endloop
  endfacet
  facet normal 0 0 1
    outer loop
      vertex -10.4757 -32.2408 8
      vertex -3.79438 -36.1011 8
      vertex -3.54351 -33.7143 8
    endloop
  endfacet
  facet normal 0 0 1
    outer loop
      vertex -10.4757 -32.2408 8
      vertex -11.2173 -34.5233 8
      vertex -3.79438 -36.1011 8
    endloop
  endfacet
  facet normal 0 0 1
    outer loop
      vertex -16.95 -29.3583 8
      vertex -11.2173 -34.5233 8
      vertex -10.4757 -32.2408 8
    endloop
  endfacet
  facet normal 0 0 1
    outer loop
      vertex -16.95 -29.3583 8
      vertex -18.15 -31.4367 8
      vertex -11.2173 -34.5233 8
    endloop
  endfacet
  facet normal 0 0 1
    outer loop
      vertex -22.6835 -25.1926 8
      vertex -18.15 -31.4367 8
      vertex -16.95 -29.3583 8
    endloop
  endfacet
  facet normal 0 0 1
    outer loop
      vertex -22.6835 -25.1926 8
      vertex -24.2894 -26.9762 8
      vertex -18.15 -31.4367 8
    endloop
  endfacet
  facet normal 0 0 1
    outer loop
      vertex -27.4257 -19.9259 8
      vertex -24.2894 -26.9762 8
      vertex -22.6835 -25.1926 8
    endloop
  endfacet
  facet normal 0 0 1
    outer loop
      vertex -27.4257 -19.9259 8
      vertex -29.3673 -21.3366 8
      vertex -24.2894 -26.9762 8
    endloop
  endfacet
  facet normal 0 0 1
    outer loop
      vertex -30.9692 -13.7884 8
      vertex -29.3673 -21.3366 8
      vertex -27.4257 -19.9259 8
    endloop
  endfacet
  facet normal 0 0 1
    outer loop
      vertex -33.1617 -14.7645 8
      vertex -30.9692 -13.7884 8
      vertex -33.1592 -7.04821 8
    endloop
  endfacet
  facet normal 0 0 1
    outer loop
      vertex -30.9692 -13.7884 8
      vertex -33.1617 -14.7645 8
      vertex -29.3673 -21.3366 8
    endloop
  endfacet
  facet normal 0 0 1
    outer loop
      vertex -35.5068 -7.54719 8
      vertex -33.1592 -7.04821 8
      vertex -33.9 0 8
    endloop
  endfacet
  facet normal 0 0 1
    outer loop
      vertex -36.3 0 8
      vertex -33.9 0 8
      vertex -35.5068 7.54719 8
    endloop
  endfacet
  facet normal 0 0 1
    outer loop
      vertex -33.1592 -7.04821 8
      vertex -35.5068 -7.54719 8
      vertex -33.1617 -14.7645 8
    endloop
  endfacet
  facet normal 0 0 1
    outer loop
      vertex -33.9 0 8
      vertex -36.3 0 8
      vertex -35.5068 -7.54719 8
    endloop
  endfacet
  facet normal 0.207912 -0.978148 0
    outer loop
      vertex -10.4757 32.2408 6
      vertex -3.54351 33.7143 8
      vertex -10.4757 32.2408 8
    endloop
  endfacet
  facet normal 0.207912 -0.978148 0
    outer loop
      vertex -3.54351 33.7143 8
      vertex -10.4757 32.2408 6
      vertex -3.54351 33.7143 6
    endloop
  endfacet
  facet normal -0.743145 0.669131 0
    outer loop
      vertex 22.6835 -25.1926 6
      vertex 27.4257 -19.9259 8
      vertex 27.4257 -19.9259 6
    endloop
  endfacet
  facet normal -0.743145 0.669131 0
    outer loop
      vertex 27.4257 -19.9259 8
      vertex 22.6835 -25.1926 6
      vertex 22.6835 -25.1926 8
    endloop
  endfacet
  facet normal -0.951057 0.309017 0
    outer loop
      vertex 30.9692 -13.7884 6
      vertex 33.1592 -7.04821 8
      vertex 33.1592 -7.04821 6
    endloop
  endfacet
  facet normal -0.951057 0.309017 0
    outer loop
      vertex 33.1592 -7.04821 8
      vertex 30.9692 -13.7884 6
      vertex 30.9692 -13.7884 8
    endloop
  endfacet
  facet normal -0.994522 0.104529 0
    outer loop
      vertex 33.1592 -7.04821 6
      vertex 33.9 0 8
      vertex 33.9 0 6
    endloop
  endfacet
  facet normal -0.994522 0.104529 0
    outer loop
      vertex 33.9 0 8
      vertex 33.1592 -7.04821 6
      vertex 33.1592 -7.04821 8
    endloop
  endfacet
  facet normal 0.587785 0.809017 -0
    outer loop
      vertex -16.95 -29.3583 6
      vertex -22.6835 -25.1926 8
      vertex -16.95 -29.3583 8
    endloop
  endfacet
  facet normal 0.587785 0.809017 0
    outer loop
      vertex -22.6835 -25.1926 8
      vertex -16.95 -29.3583 6
      vertex -22.6835 -25.1926 6
    endloop
  endfacet
  facet normal 0.866025 0.5 0
    outer loop
      vertex -27.4257 -19.9259 8
      vertex -30.9692 -13.7884 6
      vertex -30.9692 -13.7884 8
    endloop
  endfacet
  facet normal 0.866025 0.5 0
    outer loop
      vertex -30.9692 -13.7884 6
      vertex -27.4257 -19.9259 8
      vertex -27.4257 -19.9259 6
    endloop
  endfacet
  facet normal 0.994522 0.104529 0
    outer loop
      vertex -33.1592 -7.04821 8
      vertex -33.9 0 6
      vertex -33.9 0 8
    endloop
  endfacet
  facet normal 0.994522 0.104529 0
    outer loop
      vertex -33.9 0 6
      vertex -33.1592 -7.04821 8
      vertex -33.1592 -7.04821 6
    endloop
  endfacet
  facet normal -0.207912 0.978148 0
    outer loop
      vertex 10.4757 -32.2408 6
      vertex 3.54351 -33.7143 8
      vertex 10.4757 -32.2408 8
    endloop
  endfacet
  facet normal -0.207912 0.978148 0
    outer loop
      vertex 3.54351 -33.7143 8
      vertex 10.4757 -32.2408 6
      vertex 3.54351 -33.7143 6
    endloop
  endfacet
  facet normal -0.587785 0.809017 0
    outer loop
      vertex 22.6835 -25.1926 6
      vertex 16.95 -29.3583 8
      vertex 22.6835 -25.1926 8
    endloop
  endfacet
  facet normal -0.587785 0.809017 0
    outer loop
      vertex 16.95 -29.3583 8
      vertex 22.6835 -25.1926 6
      vertex 16.95 -29.3583 6
    endloop
  endfacet
  facet normal 0.406736 0.913546 -0
    outer loop
      vertex -10.4757 -32.2408 6
      vertex -16.95 -29.3583 8
      vertex -10.4757 -32.2408 8
    endloop
  endfacet
  facet normal 0.406736 0.913546 0
    outer loop
      vertex -16.95 -29.3583 8
      vertex -10.4757 -32.2408 6
      vertex -16.95 -29.3583 6
    endloop
  endfacet
  facet normal 0.743145 0.669131 0
    outer loop
      vertex -22.6835 -25.1926 8
      vertex -27.4257 -19.9259 6
      vertex -27.4257 -19.9259 8
    endloop
  endfacet
  facet normal 0.743145 0.669131 0
    outer loop
      vertex -27.4257 -19.9259 6
      vertex -22.6835 -25.1926 8
      vertex -22.6835 -25.1926 6
    endloop
  endfacet
  facet normal 0.951057 0.309017 0
    outer loop
      vertex -30.9692 -13.7884 8
      vertex -33.1592 -7.04821 6
      vertex -33.1592 -7.04821 8
    endloop
  endfacet
  facet normal 0.951057 0.309017 0
    outer loop
      vertex -33.1592 -7.04821 6
      vertex -30.9692 -13.7884 8
      vertex -30.9692 -13.7884 6
    endloop
  endfacet
  facet normal -0.406736 0.913546 0
    outer loop
      vertex 16.95 -29.3583 6
      vertex 10.4757 -32.2408 8
      vertex 16.95 -29.3583 8
    endloop
  endfacet
  facet normal -0.406736 0.913546 0
    outer loop
      vertex 10.4757 -32.2408 8
      vertex 16.95 -29.3583 6
      vertex 10.4757 -32.2408 6
    endloop
  endfacet
  facet normal 0.207912 0.978148 -0
    outer loop
      vertex -3.54351 -33.7143 6
      vertex -10.4757 -32.2408 8
      vertex -3.54351 -33.7143 8
    endloop
  endfacet
  facet normal 0.207912 0.978148 0
    outer loop
      vertex -10.4757 -32.2408 8
      vertex -3.54351 -33.7143 6
      vertex -10.4757 -32.2408 6
    endloop
  endfacet
  facet normal 0.994522 0.104528 0
    outer loop
      vertex 36.3 0 8
      vertex 35.5068 7.54719 0
      vertex 35.5068 7.54719 8
    endloop
  endfacet
  facet normal 0.994522 0.104528 0
    outer loop
      vertex 35.5068 7.54719 0
      vertex 36.3 0 8
      vertex 36.3 0 0
    endloop
  endfacet
  facet normal -0.994522 0.104528 0
    outer loop
      vertex -36.3 0 0
      vertex -35.5068 7.54719 8
      vertex -35.5068 7.54719 0
    endloop
  endfacet
  facet normal -0.994522 0.104528 0
    outer loop
      vertex -35.5068 7.54719 8
      vertex -36.3 0 0
      vertex -36.3 0 8
    endloop
  endfacet
  facet normal 0 1 -0
    outer loop
      vertex 3.79438 36.1011 0
      vertex -3.79438 36.1011 8
      vertex 3.79438 36.1011 8
    endloop
  endfacet
  facet normal 0 1 0
    outer loop
      vertex -3.79438 36.1011 8
      vertex 3.79438 36.1011 0
      vertex -3.79438 36.1011 0
    endloop
  endfacet
  facet normal 0 -1 0
    outer loop
      vertex -3.79438 -36.1011 0
      vertex 3.79438 -36.1011 8
      vertex -3.79438 -36.1011 8
    endloop
  endfacet
  facet normal 0 -1 -0
    outer loop
      vertex 3.79438 -36.1011 8
      vertex -3.79438 -36.1011 0
      vertex 3.79438 -36.1011 0
    endloop
  endfacet
  facet normal 0.587785 0.809017 -0
    outer loop
      vertex 24.2894 26.9762 0
      vertex 18.15 31.4367 8
      vertex 24.2894 26.9762 8
    endloop
  endfacet
  facet normal 0.587785 0.809017 0
    outer loop
      vertex 18.15 31.4367 8
      vertex 24.2894 26.9762 0
      vertex 18.15 31.4367 0
    endloop
  endfacet
  facet normal -0.743145 0.669131 0
    outer loop
      vertex -29.3673 21.3366 0
      vertex -24.2894 26.9762 8
      vertex -24.2894 26.9762 0
    endloop
  endfacet
  facet normal -0.743145 0.669131 0
    outer loop
      vertex -24.2894 26.9762 8
      vertex -29.3673 21.3366 0
      vertex -29.3673 21.3366 8
    endloop
  endfacet
  facet normal -0.406736 0.913546 0
    outer loop
      vertex -11.2173 34.5233 0
      vertex -18.15 31.4367 8
      vertex -11.2173 34.5233 8
    endloop
  endfacet
  facet normal -0.406736 0.913546 0
    outer loop
      vertex -18.15 31.4367 8
      vertex -11.2173 34.5233 0
      vertex -18.15 31.4367 0
    endloop
  endfacet
  facet normal 0.866026 -0.5 0
    outer loop
      vertex 29.3673 -21.3366 8
      vertex 33.1617 -14.7645 0
      vertex 33.1617 -14.7645 8
    endloop
  endfacet
  facet normal 0.866026 -0.5 0
    outer loop
      vertex 33.1617 -14.7645 0
      vertex 29.3673 -21.3366 8
      vertex 29.3673 -21.3366 0
    endloop
  endfacet
  facet normal 0.866026 0.5 0
    outer loop
      vertex 33.1617 14.7645 8
      vertex 29.3673 21.3366 0
      vertex 29.3673 21.3366 8
    endloop
  endfacet
  facet normal 0.866026 0.5 0
    outer loop
      vertex 29.3673 21.3366 0
      vertex 33.1617 14.7645 8
      vertex 33.1617 14.7645 0
    endloop
  endfacet
  facet normal 0.951056 0.309018 0
    outer loop
      vertex 35.5068 7.54719 8
      vertex 33.1617 14.7645 0
      vertex 33.1617 14.7645 8
    endloop
  endfacet
  facet normal 0.951056 0.309018 0
    outer loop
      vertex 33.1617 14.7645 0
      vertex 35.5068 7.54719 8
      vertex 35.5068 7.54719 0
    endloop
  endfacet
  facet normal 0.743145 0.669131 0
    outer loop
      vertex 29.3673 21.3366 8
      vertex 24.2894 26.9762 0
      vertex 24.2894 26.9762 8
    endloop
  endfacet
  facet normal 0.743145 0.669131 0
    outer loop
      vertex 24.2894 26.9762 0
      vertex 29.3673 21.3366 8
      vertex 29.3673 21.3366 0
    endloop
  endfacet
  facet normal 0.207912 0.978148 -0
    outer loop
      vertex 11.2173 34.5233 0
      vertex 3.79438 36.1011 8
      vertex 11.2173 34.5233 8
    endloop
  endfacet
  facet normal 0.207912 0.978148 0
    outer loop
      vertex 3.79438 36.1011 8
      vertex 11.2173 34.5233 0
      vertex 3.79438 36.1011 0
    endloop
  endfacet
  facet normal 0.406736 0.913546 -0
    outer loop
      vertex 18.15 31.4367 0
      vertex 11.2173 34.5233 8
      vertex 18.15 31.4367 8
    endloop
  endfacet
  facet normal 0.406736 0.913546 0
    outer loop
      vertex 11.2173 34.5233 8
      vertex 18.15 31.4367 0
      vertex 11.2173 34.5233 0
    endloop
  endfacet
  facet normal -0.866026 0.5 0
    outer loop
      vertex -33.1617 14.7645 0
      vertex -29.3673 21.3366 8
      vertex -29.3673 21.3366 0
    endloop
  endfacet
  facet normal -0.866026 0.5 0
    outer loop
      vertex -29.3673 21.3366 8
      vertex -33.1617 14.7645 0
      vertex -33.1617 14.7645 8
    endloop
  endfacet
  facet normal -0.951056 0.309018 0
    outer loop
      vertex -35.5068 7.54719 0
      vertex -33.1617 14.7645 8
      vertex -33.1617 14.7645 0
    endloop
  endfacet
  facet normal -0.951056 0.309018 0
    outer loop
      vertex -33.1617 14.7645 8
      vertex -35.5068 7.54719 0
      vertex -35.5068 7.54719 8
    endloop
  endfacet
  facet normal -0.587785 0.809017 0
    outer loop
      vertex -18.15 31.4367 0
      vertex -24.2894 26.9762 8
      vertex -18.15 31.4367 8
    endloop
  endfacet
  facet normal -0.587785 0.809017 0
    outer loop
      vertex -24.2894 26.9762 8
      vertex -18.15 31.4367 0
      vertex -24.2894 26.9762 0
    endloop
  endfacet
  facet normal -0.207912 0.978148 0
    outer loop
      vertex -3.79438 36.1011 0
      vertex -11.2173 34.5233 8
      vertex -3.79438 36.1011 8
    endloop
  endfacet
  facet normal -0.207912 0.978148 0
    outer loop
      vertex -11.2173 34.5233 8
      vertex -3.79438 36.1011 0
      vertex -11.2173 34.5233 0
    endloop
  endfacet
  facet normal 0.994522 -0.104528 0
    outer loop
      vertex 35.5068 -7.54719 8
      vertex 36.3 0 0
      vertex 36.3 0 8
    endloop
  endfacet
  facet normal 0.994522 -0.104528 0
    outer loop
      vertex 36.3 0 0
      vertex 35.5068 -7.54719 8
      vertex 35.5068 -7.54719 0
    endloop
  endfacet
  facet normal 0.951056 -0.309018 0
    outer loop
      vertex 33.1617 -14.7645 8
      vertex 35.5068 -7.54719 0
      vertex 35.5068 -7.54719 8
    endloop
  endfacet
  facet normal 0.951056 -0.309018 0
    outer loop
      vertex 35.5068 -7.54719 0
      vertex 33.1617 -14.7645 8
      vertex 33.1617 -14.7645 0
    endloop
  endfacet
  facet normal 0 0 -1
    outer loop
      vertex 35.5068 -7.54719 0
      vertex 35.5068 7.54719 0
      vertex 36.3 0 0
    endloop
  endfacet
  facet normal 0 0 -1
    outer loop
      vertex 33.1617 -14.7645 0
      vertex 35.5068 7.54719 0
      vertex 35.5068 -7.54719 0
    endloop
  endfacet
  facet normal 0 0 -1
    outer loop
      vertex 33.1617 -14.7645 0
      vertex 33.1617 14.7645 0
      vertex 35.5068 7.54719 0
    endloop
  endfacet
  facet normal 0 0 -1
    outer loop
      vertex 29.3673 -21.3366 0
      vertex 33.1617 14.7645 0
      vertex 33.1617 -14.7645 0
    endloop
  endfacet
  facet normal 0 0 -1
    outer loop
      vertex 29.3673 -21.3366 0
      vertex 29.3673 21.3366 0
      vertex 33.1617 14.7645 0
    endloop
  endfacet
  facet normal 0 0 -1
    outer loop
      vertex 24.2894 -26.9762 0
      vertex 29.3673 21.3366 0
      vertex 29.3673 -21.3366 0
    endloop
  endfacet
  facet normal 0 0 -1
    outer loop
      vertex 24.2894 -26.9762 0
      vertex 24.2894 26.9762 0
      vertex 29.3673 21.3366 0
    endloop
  endfacet
  facet normal 0 0 -1
    outer loop
      vertex 18.15 -31.4367 0
      vertex 24.2894 26.9762 0
      vertex 24.2894 -26.9762 0
    endloop
  endfacet
  facet normal 0 0 -1
    outer loop
      vertex 18.15 -31.4367 0
      vertex 18.15 31.4367 0
      vertex 24.2894 26.9762 0
    endloop
  endfacet
  facet normal 0 0 -1
    outer loop
      vertex 11.2173 -34.5233 0
      vertex 18.15 31.4367 0
      vertex 18.15 -31.4367 0
    endloop
  endfacet
  facet normal 0 0 -1
    outer loop
      vertex 11.2173 -34.5233 0
      vertex 11.2173 34.5233 0
      vertex 18.15 31.4367 0
    endloop
  endfacet
  facet normal 0 0 -1
    outer loop
      vertex 3.79438 -36.1011 0
      vertex 11.2173 34.5233 0
      vertex 11.2173 -34.5233 0
    endloop
  endfacet
  facet normal 0 0 -1
    outer loop
      vertex 3.79438 -36.1011 0
      vertex 3.79438 36.1011 0
      vertex 11.2173 34.5233 0
    endloop
  endfacet
  facet normal 0 0 -1
    outer loop
      vertex -3.79438 -36.1011 0
      vertex 3.79438 36.1011 0
      vertex 3.79438 -36.1011 0
    endloop
  endfacet
  facet normal 0 0 -1
    outer loop
      vertex -3.79438 -36.1011 0
      vertex -3.79438 36.1011 0
      vertex 3.79438 36.1011 0
    endloop
  endfacet
  facet normal 0 0 -1
    outer loop
      vertex -11.2173 -34.5233 0
      vertex -3.79438 36.1011 0
      vertex -3.79438 -36.1011 0
    endloop
  endfacet
  facet normal 0 0 -1
    outer loop
      vertex -11.2173 -34.5233 0
      vertex -11.2173 34.5233 0
      vertex -3.79438 36.1011 0
    endloop
  endfacet
  facet normal 0 0 -1
    outer loop
      vertex -18.15 -31.4367 0
      vertex -11.2173 34.5233 0
      vertex -11.2173 -34.5233 0
    endloop
  endfacet
  facet normal 0 0 -1
    outer loop
      vertex -18.15 -31.4367 0
      vertex -18.15 31.4367 0
      vertex -11.2173 34.5233 0
    endloop
  endfacet
  facet normal 0 0 -1
    outer loop
      vertex -24.2894 -26.9762 0
      vertex -18.15 31.4367 0
      vertex -18.15 -31.4367 0
    endloop
  endfacet
  facet normal 0 0 -1
    outer loop
      vertex -24.2894 -26.9762 0
      vertex -24.2894 26.9762 0
      vertex -18.15 31.4367 0
    endloop
  endfacet
  facet normal 0 0 -1
    outer loop
      vertex -29.3673 -21.3366 0
      vertex -24.2894 26.9762 0
      vertex -24.2894 -26.9762 0
    endloop
  endfacet
  facet normal 0 0 -1
    outer loop
      vertex -29.3673 -21.3366 0
      vertex -29.3673 21.3366 0
      vertex -24.2894 26.9762 0
    endloop
  endfacet
  facet normal 0 0 -1
    outer loop
      vertex -33.1617 -14.7645 0
      vertex -29.3673 21.3366 0
      vertex -29.3673 -21.3366 0
    endloop
  endfacet
  facet normal 0 0 -1
    outer loop
      vertex -33.1617 -14.7645 0
      vertex -33.1617 14.7645 0
      vertex -29.3673 21.3366 0
    endloop
  endfacet
  facet normal 0 0 -1
    outer loop
      vertex -35.5068 -7.54719 0
      vertex -33.1617 14.7645 0
      vertex -33.1617 -14.7645 0
    endloop
  endfacet
  facet normal 0 0 -1
    outer loop
      vertex -35.5068 -7.54719 0
      vertex -35.5068 7.54719 0
      vertex -33.1617 14.7645 0
    endloop
  endfacet
  facet normal 0 -0 -1
    outer loop
      vertex -35.5068 7.54719 0
      vertex -35.5068 -7.54719 0
      vertex -36.3 0 0
    endloop
  endfacet
  facet normal 0.587785 -0.809017 0
    outer loop
      vertex 18.15 -31.4367 0
      vertex 24.2894 -26.9762 8
      vertex 18.15 -31.4367 8
    endloop
  endfacet
  facet normal 0.587785 -0.809017 0
    outer loop
      vertex 24.2894 -26.9762 8
      vertex 18.15 -31.4367 0
      vertex 24.2894 -26.9762 0
    endloop
  endfacet
  facet normal -0.207912 -0.978148 0
    outer loop
      vertex -11.2173 -34.5233 0
      vertex -3.79438 -36.1011 8
      vertex -11.2173 -34.5233 8
    endloop
  endfacet
  facet normal -0.207912 -0.978148 -0
    outer loop
      vertex -3.79438 -36.1011 8
      vertex -11.2173 -34.5233 0
      vertex -3.79438 -36.1011 0
    endloop
  endfacet
  facet normal -0.743145 -0.669131 0
    outer loop
      vertex -24.2894 -26.9762 0
      vertex -29.3673 -21.3366 8
      vertex -29.3673 -21.3366 0
    endloop
  endfacet
  facet normal -0.743145 -0.669131 0
    outer loop
      vertex -29.3673 -21.3366 8
      vertex -24.2894 -26.9762 0
      vertex -24.2894 -26.9762 8
    endloop
  endfacet
  facet normal -0.866026 -0.5 0
    outer loop
      vertex -29.3673 -21.3366 0
      vertex -33.1617 -14.7645 8
      vertex -33.1617 -14.7645 0
    endloop
  endfacet
  facet normal -0.866026 -0.5 0
    outer loop
      vertex -33.1617 -14.7645 8
      vertex -29.3673 -21.3366 0
      vertex -29.3673 -21.3366 8
    endloop
  endfacet
  facet normal -0.951056 -0.309018 0
    outer loop
      vertex -33.1617 -14.7645 0
      vertex -35.5068 -7.54719 8
      vertex -35.5068 -7.54719 0
    endloop
  endfacet
  facet normal -0.951056 -0.309018 0
    outer loop
      vertex -35.5068 -7.54719 8
      vertex -33.1617 -14.7645 0
      vertex -33.1617 -14.7645 8
    endloop
  endfacet
  facet normal -0.994522 -0.104528 0
    outer loop
      vertex -35.5068 -7.54719 0
      vertex -36.3 0 8
      vertex -36.3 0 0
    endloop
  endfacet
  facet normal -0.994522 -0.104528 0
    outer loop
      vertex -36.3 0 8
      vertex -35.5068 -7.54719 0
      vertex -35.5068 -7.54719 8
    endloop
  endfacet
  facet normal 0.406736 -0.913546 0
    outer loop
      vertex 11.2173 -34.5233 0
      vertex 18.15 -31.4367 8
      vertex 11.2173 -34.5233 8
    endloop
  endfacet
  facet normal 0.406736 -0.913546 0
    outer loop
      vertex 18.15 -31.4367 8
      vertex 11.2173 -34.5233 0
      vertex 18.15 -31.4367 0
    endloop
  endfacet
  facet normal 0.207912 -0.978148 0
    outer loop
      vertex 3.79438 -36.1011 0
      vertex 11.2173 -34.5233 8
      vertex 3.79438 -36.1011 8
    endloop
  endfacet
  facet normal 0.207912 -0.978148 0
    outer loop
      vertex 11.2173 -34.5233 8
      vertex 3.79438 -36.1011 0
      vertex 11.2173 -34.5233 0
    endloop
  endfacet
  facet normal 0.743145 -0.669131 0
    outer loop
      vertex 24.2894 -26.9762 8
      vertex 29.3673 -21.3366 0
      vertex 29.3673 -21.3366 8
    endloop
  endfacet
  facet normal 0.743145 -0.669131 0
    outer loop
      vertex 29.3673 -21.3366 0
      vertex 24.2894 -26.9762 8
      vertex 24.2894 -26.9762 0
    endloop
  endfacet
  facet normal -0.406736 -0.913546 0
    outer loop
      vertex -18.15 -31.4367 0
      vertex -11.2173 -34.5233 8
      vertex -18.15 -31.4367 8
    endloop
  endfacet
  facet normal -0.406736 -0.913546 -0
    outer loop
      vertex -11.2173 -34.5233 8
      vertex -18.15 -31.4367 0
      vertex -11.2173 -34.5233 0
    endloop
  endfacet
  facet normal -0.587785 -0.809017 0
    outer loop
      vertex -24.2894 -26.9762 0
      vertex -18.15 -31.4367 8
      vertex -24.2894 -26.9762 8
    endloop
  endfacet
  facet normal -0.587785 -0.809017 -0
    outer loop
      vertex -18.15 -31.4367 8
      vertex -24.2894 -26.9762 0
      vertex -18.15 -31.4367 0
    endloop
  endfacet
endsolid OpenSCAD_Model
