solid Lid-Stage03
facet normal 0.9914448613738105 0.13052619222005174 -0.0
  outer loop
    vertex 34.77332974640646 9.317485623690748 0.0
    vertex 36.0 0.0 7.0
    vertex 36.0 0.0 0.0
  endloop
endfacet
facet normal 0.9914448613738105 0.13052619222005174 -0.0
  outer loop
    vertex 36.0 0.0 7.0
    vertex 34.77332974640646 9.317485623690748 0.0
    vertex 34.77332974640646 9.317485623690748 7.0
  endloop
endfacet
facet normal -0.9914448613738105 -0.1305261922200514 -0.0
  outer loop
    vertex 32.35851518068379 8.670438010934447 6.999999999999998
    vertex 33.5 -7.931155732165962e-16 4.999999999999999
    vertex 33.5 -7.931155732165962e-16 6.999999999999998
  endloop
endfacet
facet normal -0.9914448613738105 -0.1305261922200514 -0.0
  outer loop
    vertex 33.5 -7.931155732165962e-16 4.999999999999999
    vertex 32.35851518068379 8.670438010934447 6.999999999999998
    vertex 32.35851518068379 8.670438010934447 4.999999999999999
  endloop
endfacet
facet normal -0.8882899210302113 -0.11694558668533792 -0.44414496051510377
  outer loop
    vertex 32.35851518068379 8.670438010934447 4.999999999999999
    vertex 34.0 -5.728056917675417e-16 3.9999999999999996
    vertex 33.5 -7.931155732165962e-16 4.999999999999999
  endloop
endfacet
facet normal -0.8882899210302113 -0.11694558668533792 -0.44414496051510377
  outer loop
    vertex 34.0 -5.728056917675417e-16 3.9999999999999996
    vertex 32.35851518068379 8.670438010934447 4.999999999999999
    vertex 32.84147809382832 8.799847533485707 3.9999999999999996
  endloop
endfacet
facet normal -0.9914448613738104 -0.13052619222005174 -0.0
  outer loop
    vertex 32.84147809382832 8.799847533485707 3.9999999999999996
    vertex 34.0 -5.728056917675417e-16 1.9999999999999996
    vertex 34.0 -5.728056917675417e-16 3.9999999999999996
  endloop
endfacet
facet normal -0.9914448613738104 -0.13052619222005174 -0.0
  outer loop
    vertex 34.0 -5.728056917675417e-16 1.9999999999999996
    vertex 32.84147809382832 8.799847533485707 3.9999999999999996
    vertex 32.84147809382832 8.799847533485707 1.9999999999999996
  endloop
endfacet
facet normal 0.923879532511287 0.3826834323650898 -0.0
  outer loop
    vertex 31.176914536239792 17.999999999999996 0.0
    vertex 34.77332974640646 9.317485623690748 7.0
    vertex 34.77332974640646 9.317485623690748 0.0
  endloop
endfacet
facet normal 0.923879532511287 0.3826834323650898 -0.0
  outer loop
    vertex 34.77332974640646 9.317485623690748 7.0
    vertex 31.176914536239792 17.999999999999996 0.0
    vertex 31.176914536239792 17.999999999999996 7.0
  endloop
endfacet
facet normal -0.9238795325112868 -0.3826834323650897 -0.0
  outer loop
    vertex 29.011851026778704 16.749999999999996 6.999999999999998
    vertex 32.35851518068379 8.670438010934447 4.999999999999999
    vertex 32.35851518068379 8.670438010934447 6.999999999999998
  endloop
endfacet
facet normal -0.9238795325112868 -0.3826834323650897 -0.0
  outer loop
    vertex 32.35851518068379 8.670438010934447 4.999999999999999
    vertex 29.011851026778704 16.749999999999996 6.999999999999998
    vertex 29.011851026778704 16.749999999999996 4.999999999999999
  endloop
endfacet
facet normal -0.8277544308805077 -0.3428671115851291 -0.44414496051509783
  outer loop
    vertex 29.011851026778704 16.749999999999996 4.999999999999999
    vertex 32.84147809382832 8.799847533485707 3.9999999999999996
    vertex 32.35851518068379 8.670438010934447 4.999999999999999
  endloop
endfacet
facet normal -0.8277544308805077 -0.3428671115851291 -0.44414496051509783
  outer loop
    vertex 32.84147809382832 8.799847533485707 3.9999999999999996
    vertex 29.011851026778704 16.749999999999996 4.999999999999999
    vertex 29.44486372867091 16.999999999999996 3.9999999999999996
  endloop
endfacet
facet normal -0.9238795325112867 -0.3826834323650902 -0.0
  outer loop
    vertex 29.44486372867091 16.999999999999996 3.9999999999999996
    vertex 32.84147809382832 8.799847533485707 1.9999999999999996
    vertex 32.84147809382832 8.799847533485707 3.9999999999999996
  endloop
endfacet
facet normal -0.9238795325112867 -0.3826834323650902 -0.0
  outer loop
    vertex 32.84147809382832 8.799847533485707 1.9999999999999996
    vertex 29.44486372867091 16.999999999999996 3.9999999999999996
    vertex 29.44486372867091 16.999999999999996 1.9999999999999996
  endloop
endfacet
facet normal 0.7933533402912353 0.6087614290087205 -0.0
  outer loop
    vertex 25.455844122715714 25.455844122715714 0.0
    vertex 31.176914536239792 17.999999999999996 7.0
    vertex 31.176914536239792 17.999999999999996 0.0
  endloop
endfacet
facet normal 0.7933533402912353 0.6087614290087205 -0.0
  outer loop
    vertex 31.176914536239792 17.999999999999996 7.0
    vertex 25.455844122715714 25.455844122715714 0.0
    vertex 25.455844122715714 25.455844122715714 7.0
  endloop
endfacet
facet normal -0.7933533402912354 -0.6087614290087207 -0.0
  outer loop
    vertex 23.68807716974935 23.688077169749345 6.999999999999998
    vertex 29.011851026778704 16.749999999999996 4.999999999999999
    vertex 29.011851026778704 16.749999999999996 6.999999999999998
  endloop
endfacet
facet normal -0.7933533402912354 -0.6087614290087207 -0.0
  outer loop
    vertex 29.011851026778704 16.749999999999996 4.999999999999999
    vertex 23.68807716974935 23.688077169749345 6.999999999999998
    vertex 23.68807716974935 23.688077169749345 4.999999999999999
  endloop
endfacet
facet normal -0.7108088441951687 -0.545422809445085 -0.4441449605150991
  outer loop
    vertex 23.68807716974935 23.688077169749345 4.999999999999999
    vertex 29.44486372867091 16.999999999999996 3.9999999999999996
    vertex 29.011851026778704 16.749999999999996 4.999999999999999
  endloop
endfacet
facet normal -0.7108088441951687 -0.545422809445085 -0.4441449605150991
  outer loop
    vertex 29.44486372867091 16.999999999999996 3.9999999999999996
    vertex 23.68807716974935 23.688077169749345 4.999999999999999
    vertex 24.041630560342615 24.041630560342615 3.9999999999999996
  endloop
endfacet
facet normal -0.7933533402912352 -0.6087614290087208 -0.0
  outer loop
    vertex 24.041630560342615 24.041630560342615 3.9999999999999996
    vertex 29.44486372867091 16.999999999999996 1.9999999999999996
    vertex 29.44486372867091 16.999999999999996 3.9999999999999996
  endloop
endfacet
facet normal -0.7933533402912352 -0.6087614290087208 -0.0
  outer loop
    vertex 29.44486372867091 16.999999999999996 1.9999999999999996
    vertex 24.041630560342615 24.041630560342615 3.9999999999999996
    vertex 24.041630560342615 24.041630560342615 1.9999999999999996
  endloop
endfacet
facet normal 0.6087614290087208 0.7933533402912352 -0.0
  outer loop
    vertex 18.000000000000004 31.176914536239792 7.0
    vertex 25.455844122715714 25.455844122715714 0.0
    vertex 18.000000000000004 31.176914536239792 0.0
  endloop
endfacet
facet normal 0.6087614290087208 0.7933533402912352 -0.0
  outer loop
    vertex 25.455844122715714 25.455844122715714 0.0
    vertex 18.000000000000004 31.176914536239792 7.0
    vertex 25.455844122715714 25.455844122715714 7.0
  endloop
endfacet
facet normal -0.6087614290087209 -0.7933533402912349 -0.0
  outer loop
    vertex 23.68807716974935 23.688077169749345 6.999999999999998
    vertex 16.750000000000007 29.011851026778697 4.999999999999999
    vertex 23.68807716974935 23.688077169749345 4.999999999999999
  endloop
endfacet
facet normal -0.6087614290087209 -0.7933533402912349 -0.0
  outer loop
    vertex 16.750000000000007 29.011851026778697 4.999999999999999
    vertex 23.68807716974935 23.688077169749345 6.999999999999998
    vertex 16.750000000000007 29.011851026778697 6.999999999999998
  endloop
endfacet
facet normal -0.5454228094450849 -0.7108088441951683 -0.4441449605150997
  outer loop
    vertex 23.68807716974935 23.688077169749345 4.999999999999999
    vertex 17.000000000000004 29.44486372867091 3.9999999999999996
    vertex 24.041630560342615 24.041630560342615 3.9999999999999996
  endloop
endfacet
facet normal -0.5454228094450849 -0.7108088441951683 -0.4441449605150997
  outer loop
    vertex 17.000000000000004 29.44486372867091 3.9999999999999996
    vertex 23.68807716974935 23.688077169749345 4.999999999999999
    vertex 16.750000000000007 29.011851026778697 4.999999999999999
  endloop
endfacet
facet normal -0.6087614290087209 -0.793353340291235 -0.0
  outer loop
    vertex 24.041630560342615 24.041630560342615 3.9999999999999996
    vertex 17.000000000000004 29.44486372867091 1.9999999999999996
    vertex 24.041630560342615 24.041630560342615 1.9999999999999996
  endloop
endfacet
facet normal -0.6087614290087209 -0.793353340291235 -0.0
  outer loop
    vertex 17.000000000000004 29.44486372867091 1.9999999999999996
    vertex 24.041630560342615 24.041630560342615 3.9999999999999996
    vertex 17.000000000000004 29.44486372867091 3.9999999999999996
  endloop
endfacet
facet normal 0.38268343236508967 0.9238795325112868 3.496240191132248e-17
  outer loop
    vertex 9.317485623690754 34.77332974640646 7.0
    vertex 18.000000000000004 31.176914536239792 0.0
    vertex 9.317485623690756 34.77332974640646 0.0
  endloop
endfacet
facet normal 0.38268343236508967 0.9238795325112868 3.496240191132248e-17
  outer loop
    vertex 18.000000000000004 31.176914536239792 0.0
    vertex 9.317485623690754 34.77332974640646 7.0
    vertex 18.000000000000004 31.176914536239792 7.0
  endloop
endfacet
facet normal -0.3826834323650898 -0.923879532511287 -0.0
  outer loop
    vertex 16.750000000000007 29.011851026778697 6.999999999999998
    vertex 8.670438010934452 32.358515180683796 4.999999999999999
    vertex 16.750000000000007 29.011851026778697 4.999999999999999
  endloop
endfacet
facet normal -0.3826834323650898 -0.923879532511287 -0.0
  outer loop
    vertex 8.670438010934452 32.358515180683796 4.999999999999999
    vertex 16.750000000000007 29.011851026778697 6.999999999999998
    vertex 8.670438010934452 32.358515180683796 6.999999999999998
  endloop
endfacet
facet normal -0.34286711158512945 -0.8277544308805092 -0.44414496051509444
  outer loop
    vertex 16.750000000000007 29.011851026778697 4.999999999999999
    vertex 8.799847533485709 32.841478093828314 3.9999999999999996
    vertex 17.000000000000004 29.44486372867091 3.9999999999999996
  endloop
endfacet
facet normal -0.34286711158512945 -0.8277544308805092 -0.44414496051509444
  outer loop
    vertex 8.799847533485709 32.841478093828314 3.9999999999999996
    vertex 16.750000000000007 29.011851026778697 4.999999999999999
    vertex 8.670438010934452 32.358515180683796 4.999999999999999
  endloop
endfacet
facet normal -0.3826834323650898 -0.923879532511287 -0.0
  outer loop
    vertex 17.000000000000004 29.44486372867091 3.9999999999999996
    vertex 8.799847533485709 32.841478093828314 1.9999999999999996
    vertex 17.000000000000004 29.44486372867091 1.9999999999999996
  endloop
endfacet
facet normal -0.3826834323650898 -0.923879532511287 -0.0
  outer loop
    vertex 8.799847533485709 32.841478093828314 1.9999999999999996
    vertex 17.000000000000004 29.44486372867091 3.9999999999999996
    vertex 8.799847533485709 32.841478093828314 3.9999999999999996
  endloop
endfacet
facet normal 0.13052619222005168 0.9914448613738105 5.962512100600005e-18
  outer loop
    vertex 2.8199664825478975e-15 36.0 7.0
    vertex 9.317485623690756 34.77332974640646 0.0
    vertex 2.204364238465236e-15 36.0 0.0
  endloop
endfacet
facet normal 0.13052619222005168 0.9914448613738105 5.962512100600005e-18
  outer loop
    vertex 9.317485623690756 34.77332974640646 0.0
    vertex 2.8199664825478975e-15 36.0 7.0
    vertex 9.317485623690754 34.77332974640646 7.0
  endloop
endfacet
facet normal -0.13052619222005135 -0.9914448613738105 -0.0
  outer loop
    vertex 8.670438010934452 32.358515180683796 6.999999999999998
    vertex 2.8199664825478975e-15 33.50000000000001 4.999999999999999
    vertex 8.670438010934452 32.358515180683796 4.999999999999999
  endloop
endfacet
facet normal -0.13052619222005135 -0.9914448613738105 -0.0
  outer loop
    vertex 2.8199664825478975e-15 33.50000000000001 4.999999999999999
    vertex 8.670438010934452 32.358515180683796 6.999999999999998
    vertex 2.8199664825478975e-15 33.50000000000001 6.999999999999998
  endloop
endfacet
facet normal -0.11694558668533842 -0.8882899210302154 -0.4441449605150955
  outer loop
    vertex 8.670438010934452 32.358515180683796 4.999999999999999
    vertex 1.4099832412739487e-15 33.99999999999999 3.9999999999999996
    vertex 8.799847533485709 32.841478093828314 3.9999999999999996
  endloop
endfacet
facet normal -0.11694558668533842 -0.8882899210302154 -0.4441449605150955
  outer loop
    vertex 1.4099832412739487e-15 33.99999999999999 3.9999999999999996
    vertex 8.670438010934452 32.358515180683796 4.999999999999999
    vertex 2.8199664825478975e-15 33.50000000000001 4.999999999999999
  endloop
endfacet
facet normal -0.13052619222005168 -0.9914448613738104 -0.0
  outer loop
    vertex 8.799847533485709 32.841478093828314 3.9999999999999996
    vertex 1.4099832412739487e-15 33.99999999999999 1.9999999999999996
    vertex 8.799847533485709 32.841478093828314 1.9999999999999996
  endloop
endfacet
facet normal -0.13052619222005168 -0.9914448613738104 -0.0
  outer loop
    vertex 1.4099832412739487e-15 33.99999999999999 1.9999999999999996
    vertex 8.799847533485709 32.841478093828314 3.9999999999999996
    vertex 1.4099832412739487e-15 33.99999999999999 3.9999999999999996
  endloop
endfacet
facet normal -0.13052619222005174 0.9914448613738105 -5.962512100600008e-18
  outer loop
    vertex -9.317485623690745 34.77332974640646 7.0
    vertex 2.204364238465236e-15 36.0 0.0
    vertex -9.317485623690743 34.77332974640646 0.0
  endloop
endfacet
facet normal -0.13052619222005174 0.9914448613738105 -5.962512100600008e-18
  outer loop
    vertex 2.204364238465236e-15 36.0 0.0
    vertex -9.317485623690745 34.77332974640646 7.0
    vertex 2.8199664825478975e-15 36.0 7.0
  endloop
endfacet
facet normal 0.13052619222005143 -0.9914448613738106 -0.0
  outer loop
    vertex 2.8199664825478975e-15 33.50000000000001 6.999999999999998
    vertex -8.670438010934443 32.358515180683796 4.999999999999999
    vertex 2.8199664825478975e-15 33.50000000000001 4.999999999999999
  endloop
endfacet
facet normal 0.13052619222005143 -0.9914448613738106 -0.0
  outer loop
    vertex -8.670438010934443 32.358515180683796 4.999999999999999
    vertex 2.8199664825478975e-15 33.50000000000001 6.999999999999998
    vertex -8.670438010934443 32.358515180683796 6.999999999999998
  endloop
endfacet
facet normal 0.1169455866853385 -0.8882899210302154 -0.4441449605150956
  outer loop
    vertex 2.8199664825478975e-15 33.50000000000001 4.999999999999999
    vertex -8.799847533485702 32.841478093828314 3.9999999999999996
    vertex 1.4099832412739487e-15 33.99999999999999 3.9999999999999996
  endloop
endfacet
facet normal 0.1169455866853385 -0.8882899210302154 -0.4441449605150956
  outer loop
    vertex -8.799847533485702 32.841478093828314 3.9999999999999996
    vertex 2.8199664825478975e-15 33.50000000000001 4.999999999999999
    vertex -8.670438010934443 32.358515180683796 4.999999999999999
  endloop
endfacet
facet normal 0.13052619222005177 -0.9914448613738104 -0.0
  outer loop
    vertex 1.4099832412739487e-15 33.99999999999999 3.9999999999999996
    vertex -8.799847533485702 32.841478093828314 1.9999999999999996
    vertex 1.4099832412739487e-15 33.99999999999999 1.9999999999999996
  endloop
endfacet
facet normal 0.13052619222005177 -0.9914448613738104 -0.0
  outer loop
    vertex -8.799847533485702 32.841478093828314 1.9999999999999996
    vertex 1.4099832412739487e-15 33.99999999999999 3.9999999999999996
    vertex -8.799847533485702 32.841478093828314 3.9999999999999996
  endloop
endfacet
facet normal -0.3826834323650898 0.923879532511287 -1.2236840668962873e-16
  outer loop
    vertex -17.999999999999996 31.176914536239792 7.0
    vertex -9.317485623690743 34.77332974640646 0.0
    vertex -17.999999999999993 31.176914536239792 0.0
  endloop
endfacet
facet normal -0.3826834323650898 0.923879532511287 -1.2236840668962873e-16
  outer loop
    vertex -9.317485623690743 34.77332974640646 0.0
    vertex -17.999999999999996 31.176914536239792 7.0
    vertex -9.317485623690745 34.77332974640646 7.0
  endloop
endfacet
facet normal 0.3826834323650902 -0.9238795325112867 -0.0
  outer loop
    vertex -8.670438010934443 32.358515180683796 6.999999999999998
    vertex -16.749999999999996 29.011851026778704 4.999999999999999
    vertex -8.670438010934443 32.358515180683796 4.999999999999999
  endloop
endfacet
facet normal 0.3826834323650902 -0.9238795325112867 -0.0
  outer loop
    vertex -16.749999999999996 29.011851026778704 4.999999999999999
    vertex -8.670438010934443 32.358515180683796 6.999999999999998
    vertex -16.749999999999996 29.011851026778704 6.999999999999998
  endloop
endfacet
facet normal 0.34286711158513006 -0.8277544308805092 -0.444144960515094
  outer loop
    vertex -8.670438010934443 32.358515180683796 4.999999999999999
    vertex -16.99999999999999 29.44486372867091 3.9999999999999996
    vertex -8.799847533485702 32.841478093828314 3.9999999999999996
  endloop
endfacet
facet normal 0.34286711158513006 -0.8277544308805092 -0.444144960515094
  outer loop
    vertex -16.99999999999999 29.44486372867091 3.9999999999999996
    vertex -8.670438010934443 32.358515180683796 4.999999999999999
    vertex -16.749999999999996 29.011851026778704 4.999999999999999
  endloop
endfacet
facet normal 0.3826834323650902 -0.9238795325112866 -0.0
  outer loop
    vertex -8.799847533485702 32.841478093828314 3.9999999999999996
    vertex -16.99999999999999 29.44486372867091 1.9999999999999996
    vertex -8.799847533485702 32.841478093828314 1.9999999999999996
  endloop
endfacet
facet normal 0.3826834323650902 -0.9238795325112866 -0.0
  outer loop
    vertex -16.99999999999999 29.44486372867091 1.9999999999999996
    vertex -8.799847533485702 32.841478093828314 3.9999999999999996
    vertex -16.99999999999999 29.44486372867091 3.9999999999999996
  endloop
endfacet
facet normal -0.6087614290087203 0.7933533402912354 -1.1123429941857865e-16
  outer loop
    vertex -25.455844122715714 25.455844122715714 7.0
    vertex -17.999999999999993 31.176914536239792 0.0
    vertex -25.455844122715714 25.455844122715714 0.0
  endloop
endfacet
facet normal -0.6087614290087203 0.7933533402912354 -1.1123429941857865e-16
  outer loop
    vertex -17.999999999999993 31.176914536239792 0.0
    vertex -25.455844122715714 25.455844122715714 7.0
    vertex -17.999999999999996 31.176914536239792 7.0
  endloop
endfacet
facet normal 0.6087614290087202 -0.7933533402912357 -0.0
  outer loop
    vertex -16.749999999999996 29.011851026778704 6.999999999999998
    vertex -23.68807716974935 23.688077169749352 4.999999999999999
    vertex -16.749999999999996 29.011851026778704 4.999999999999999
  endloop
endfacet
facet normal 0.6087614290087202 -0.7933533402912357 -0.0
  outer loop
    vertex -23.68807716974935 23.688077169749352 4.999999999999999
    vertex -16.749999999999996 29.011851026778704 6.999999999999998
    vertex -23.68807716974935 23.688077169749352 6.999999999999998
  endloop
endfacet
facet normal 0.5454228094450874 -0.7108088441951728 -0.4441449605150898
  outer loop
    vertex -16.749999999999996 29.011851026778704 4.999999999999999
    vertex -24.041630560342607 24.04163056034261 3.9999999999999996
    vertex -16.99999999999999 29.44486372867091 3.9999999999999996
  endloop
endfacet
facet normal 0.5454228094450874 -0.7108088441951728 -0.4441449605150898
  outer loop
    vertex -24.041630560342607 24.04163056034261 3.9999999999999996
    vertex -16.749999999999996 29.011851026778704 4.999999999999999
    vertex -23.68807716974935 23.688077169749352 4.999999999999999
  endloop
endfacet
facet normal 0.6087614290087203 -0.7933533402912354 -0.0
  outer loop
    vertex -16.99999999999999 29.44486372867091 3.9999999999999996
    vertex -24.041630560342607 24.04163056034261 1.9999999999999996
    vertex -16.99999999999999 29.44486372867091 1.9999999999999996
  endloop
endfacet
facet normal 0.6087614290087203 -0.7933533402912354 -0.0
  outer loop
    vertex -24.041630560342607 24.04163056034261 1.9999999999999996
    vertex -16.99999999999999 29.44486372867091 3.9999999999999996
    vertex -24.041630560342607 24.04163056034261 3.9999999999999996
  endloop
endfacet
facet normal -0.7933533402912352 0.6087614290087209 0.0
  outer loop
    vertex -25.455844122715714 25.455844122715714 7.0
    vertex -31.17691453623979 18.00000000000001 0.0
    vertex -31.17691453623979 18.00000000000001 7.0
  endloop
endfacet
facet normal -0.7933533402912352 0.6087614290087209 0.0
  outer loop
    vertex -31.17691453623979 18.00000000000001 0.0
    vertex -25.455844122715714 25.455844122715714 7.0
    vertex -25.455844122715714 25.455844122715714 0.0
  endloop
endfacet
facet normal 0.7933533402912352 -0.6087614290087209 -0.0
  outer loop
    vertex -23.68807716974935 23.688077169749352 4.999999999999999
    vertex -29.011851026778704 16.750000000000014 6.999999999999998
    vertex -29.011851026778704 16.750000000000014 4.999999999999999
  endloop
endfacet
facet normal 0.7933533402912352 -0.6087614290087209 -0.0
  outer loop
    vertex -29.011851026778704 16.750000000000014 6.999999999999998
    vertex -23.68807716974935 23.688077169749352 4.999999999999999
    vertex -23.68807716974935 23.688077169749352 6.999999999999998
  endloop
endfacet
facet normal 0.7108088441951725 -0.5454228094450881 -0.4441449605150892
  outer loop
    vertex -29.444863728670903 17.000000000000004 3.9999999999999996
    vertex -23.68807716974935 23.688077169749352 4.999999999999999
    vertex -29.011851026778704 16.750000000000014 4.999999999999999
  endloop
endfacet
facet normal 0.7108088441951725 -0.5454228094450881 -0.4441449605150892
  outer loop
    vertex -23.68807716974935 23.688077169749352 4.999999999999999
    vertex -29.444863728670903 17.000000000000004 3.9999999999999996
    vertex -24.041630560342607 24.04163056034261 3.9999999999999996
  endloop
endfacet
facet normal 0.793353340291235 -0.6087614290087208 -0.0
  outer loop
    vertex -24.041630560342607 24.04163056034261 1.9999999999999996
    vertex -29.444863728670903 17.000000000000004 3.9999999999999996
    vertex -29.444863728670903 17.000000000000004 1.9999999999999996
  endloop
endfacet
facet normal 0.793353340291235 -0.6087614290087208 -0.0
  outer loop
    vertex -29.444863728670903 17.000000000000004 3.9999999999999996
    vertex -24.041630560342607 24.04163056034261 1.9999999999999996
    vertex -24.041630560342607 24.04163056034261 3.9999999999999996
  endloop
endfacet
facet normal -0.9238795325112867 0.38268343236509017 0.0
  outer loop
    vertex -31.17691453623979 18.00000000000001 7.0
    vertex -34.77332974640646 9.317485623690757 0.0
    vertex -34.77332974640646 9.317485623690757 7.0
  endloop
endfacet
facet normal -0.9238795325112867 0.38268343236509017 0.0
  outer loop
    vertex -34.77332974640646 9.317485623690757 0.0
    vertex -31.17691453623979 18.00000000000001 7.0
    vertex -31.17691453623979 18.00000000000001 0.0
  endloop
endfacet
facet normal 0.9238795325112865 -0.3826834323650906 -0.0
  outer loop
    vertex -29.011851026778704 16.750000000000014 4.999999999999999
    vertex -32.3585151806838 8.670438010934458 6.999999999999998
    vertex -32.3585151806838 8.670438010934458 4.999999999999999
  endloop
endfacet
facet normal 0.9238795325112865 -0.3826834323650906 -0.0
  outer loop
    vertex -32.3585151806838 8.670438010934458 6.999999999999998
    vertex -29.011851026778704 16.750000000000014 4.999999999999999
    vertex -29.011851026778704 16.750000000000014 6.999999999999998
  endloop
endfacet
facet normal 0.8277544308805102 -0.34286711158513045 -0.44414496051509195
  outer loop
    vertex -32.841478093828314 8.799847533485712 3.9999999999999996
    vertex -29.011851026778704 16.750000000000014 4.999999999999999
    vertex -32.3585151806838 8.670438010934458 4.999999999999999
  endloop
endfacet
facet normal 0.8277544308805102 -0.34286711158513045 -0.44414496051509195
  outer loop
    vertex -29.011851026778704 16.750000000000014 4.999999999999999
    vertex -32.841478093828314 8.799847533485712 3.9999999999999996
    vertex -29.444863728670903 17.000000000000004 3.9999999999999996
  endloop
endfacet
facet normal 0.9238795325112867 -0.38268343236509 -0.0
  outer loop
    vertex -29.444863728670903 17.000000000000004 1.9999999999999996
    vertex -32.841478093828314 8.799847533485712 3.9999999999999996
    vertex -32.841478093828314 8.799847533485712 1.9999999999999996
  endloop
endfacet
facet normal 0.9238795325112867 -0.38268343236509 -0.0
  outer loop
    vertex -32.841478093828314 8.799847533485712 3.9999999999999996
    vertex -29.444863728670903 17.000000000000004 1.9999999999999996
    vertex -29.444863728670903 17.000000000000004 3.9999999999999996
  endloop
endfacet
facet normal -0.9914448613738105 0.13052619222005168 0.0
  outer loop
    vertex -34.77332974640646 9.317485623690757 7.0
    vertex -36.0 4.408728476930472e-15 0.0
    vertex -36.0 4.229949723821846e-15 7.0
  endloop
endfacet
facet normal -0.9914448613738105 0.13052619222005168 0.0
  outer loop
    vertex -36.0 4.408728476930472e-15 0.0
    vertex -34.77332974640646 9.317485623690757 7.0
    vertex -34.77332974640646 9.317485623690757 0.0
  endloop
endfacet
facet normal 0.9914448613738106 -0.13052619222005127 -0.0
  outer loop
    vertex -32.3585151806838 8.670438010934458 4.999999999999999
    vertex -33.500000000000014 4.229949723821846e-15 6.999999999999998
    vertex -33.500000000000014 4.229949723821846e-15 4.999999999999999
  endloop
endfacet
facet normal 0.9914448613738106 -0.13052619222005127 -0.0
  outer loop
    vertex -33.500000000000014 4.229949723821846e-15 6.999999999999998
    vertex -32.3585151806838 8.670438010934458 4.999999999999999
    vertex -32.3585151806838 8.670438010934458 6.999999999999998
  endloop
endfacet
facet normal 0.8882899210302175 -0.11694558668533864 -0.44414496051509145
  outer loop
    vertex -32.841478093828314 8.799847533485712 3.9999999999999996
    vertex -33.500000000000014 4.229949723821846e-15 4.999999999999999
    vertex -33.99999999999999 2.8199664825478975e-15 3.9999999999999996
  endloop
endfacet
facet normal 0.8882899210302175 -0.11694558668533864 -0.44414496051509145
  outer loop
    vertex -33.500000000000014 4.229949723821846e-15 4.999999999999999
    vertex -32.841478093828314 8.799847533485712 3.9999999999999996
    vertex -32.3585151806838 8.670438010934458 4.999999999999999
  endloop
endfacet
facet normal 0.9914448613738104 -0.13052619222005163 -0.0
  outer loop
    vertex -32.841478093828314 8.799847533485712 1.9999999999999996
    vertex -33.99999999999999 2.8199664825478975e-15 3.9999999999999996
    vertex -33.99999999999999 2.8199664825478975e-15 1.9999999999999996
  endloop
endfacet
facet normal 0.9914448613738104 -0.13052619222005163 -0.0
  outer loop
    vertex -33.99999999999999 2.8199664825478975e-15 3.9999999999999996
    vertex -32.841478093828314 8.799847533485712 1.9999999999999996
    vertex -32.841478093828314 8.799847533485712 3.9999999999999996
  endloop
endfacet
facet normal -0.9914448613738105 -0.13052619222005127 0.0
  outer loop
    vertex -36.0 4.229949723821846e-15 7.0
    vertex -34.77332974640647 -9.317485623690734 0.0
    vertex -34.77332974640647 -9.317485623690734 7.0
  endloop
endfacet
facet normal -0.9914448613738105 -0.13052619222005127 0.0
  outer loop
    vertex -34.77332974640647 -9.317485623690734 0.0
    vertex -36.0 4.229949723821846e-15 7.0
    vertex -36.0 4.408728476930472e-15 0.0
  endloop
endfacet
facet normal 0.9914448613738106 0.13052619222005088 -0.0
  outer loop
    vertex -33.500000000000014 4.229949723821846e-15 4.999999999999999
    vertex -32.35851518068381 -8.670438010934435 6.999999999999998
    vertex -32.35851518068381 -8.670438010934435 4.999999999999999
  endloop
endfacet
facet normal 0.9914448613738106 0.13052619222005088 -0.0
  outer loop
    vertex -32.35851518068381 -8.670438010934435 6.999999999999998
    vertex -33.500000000000014 4.229949723821846e-15 4.999999999999999
    vertex -33.500000000000014 4.229949723821846e-15 6.999999999999998
  endloop
endfacet
facet normal 0.8882899210302176 0.11694558668533832 -0.44414496051509156
  outer loop
    vertex -33.99999999999999 2.8199664825478975e-15 3.9999999999999996
    vertex -32.35851518068381 -8.670438010934435 4.999999999999999
    vertex -32.84147809382832 -8.799847533485691 3.9999999999999996
  endloop
endfacet
facet normal 0.8882899210302176 0.11694558668533832 -0.44414496051509156
  outer loop
    vertex -32.35851518068381 -8.670438010934435 4.999999999999999
    vertex -33.99999999999999 2.8199664825478975e-15 3.9999999999999996
    vertex -33.500000000000014 4.229949723821846e-15 4.999999999999999
  endloop
endfacet
facet normal 0.9914448613738106 0.13052619222005127 -0.0
  outer loop
    vertex -33.99999999999999 2.8199664825478975e-15 1.9999999999999996
    vertex -32.84147809382832 -8.799847533485691 3.9999999999999996
    vertex -32.84147809382832 -8.799847533485691 1.9999999999999996
  endloop
endfacet
facet normal 0.9914448613738106 0.13052619222005127 -0.0
  outer loop
    vertex -32.84147809382832 -8.799847533485691 3.9999999999999996
    vertex -33.99999999999999 2.8199664825478975e-15 1.9999999999999996
    vertex -33.99999999999999 2.8199664825478975e-15 3.9999999999999996
  endloop
endfacet
facet normal -0.9238795325112868 -0.3826834323650895 0.0
  outer loop
    vertex -34.77332974640647 -9.317485623690734 7.0
    vertex -31.1769145362398 -17.99999999999999 0.0
    vertex -31.1769145362398 -17.99999999999999 7.0
  endloop
endfacet
facet normal -0.9238795325112868 -0.3826834323650895 0.0
  outer loop
    vertex -31.1769145362398 -17.99999999999999 0.0
    vertex -34.77332974640647 -9.317485623690734 7.0
    vertex -34.77332974640647 -9.317485623690734 0.0
  endloop
endfacet
facet normal 0.9238795325112868 0.38268343236508995 -0.0
  outer loop
    vertex -32.35851518068381 -8.670438010934435 4.999999999999999
    vertex -29.01185102677871 -16.749999999999996 6.999999999999998
    vertex -29.01185102677871 -16.749999999999996 4.999999999999999
  endloop
endfacet
facet normal 0.9238795325112868 0.38268343236508995 -0.0
  outer loop
    vertex -29.01185102677871 -16.749999999999996 6.999999999999998
    vertex -32.35851518068381 -8.670438010934435 4.999999999999999
    vertex -32.35851518068381 -8.670438010934435 6.999999999999998
  endloop
endfacet
facet normal 0.8277544308805089 0.34286711158512934 -0.4441449605150952
  outer loop
    vertex -32.84147809382832 -8.799847533485691 3.9999999999999996
    vertex -29.01185102677871 -16.749999999999996 4.999999999999999
    vertex -29.44486372867092 -16.999999999999986 3.9999999999999996
  endloop
endfacet
facet normal 0.8277544308805089 0.34286711158512934 -0.4441449605150952
  outer loop
    vertex -29.01185102677871 -16.749999999999996 4.999999999999999
    vertex -32.84147809382832 -8.799847533485691 3.9999999999999996
    vertex -32.35851518068381 -8.670438010934435 4.999999999999999
  endloop
endfacet
facet normal 0.9238795325112868 0.38268343236508945 -0.0
  outer loop
    vertex -32.84147809382832 -8.799847533485691 1.9999999999999996
    vertex -29.44486372867092 -16.999999999999986 3.9999999999999996
    vertex -29.44486372867092 -16.999999999999986 1.9999999999999996
  endloop
endfacet
facet normal 0.9238795325112868 0.38268343236508945 -0.0
  outer loop
    vertex -29.44486372867092 -16.999999999999986 3.9999999999999996
    vertex -32.84147809382832 -8.799847533485691 1.9999999999999996
    vertex -32.84147809382832 -8.799847533485691 3.9999999999999996
  endloop
endfacet
facet normal -0.7933533402912354 -0.6087614290087207 0.0
  outer loop
    vertex -31.1769145362398 -17.99999999999999 7.0
    vertex -25.455844122715725 -25.455844122715696 0.0
    vertex -25.455844122715725 -25.455844122715696 7.0
  endloop
endfacet
facet normal -0.7933533402912354 -0.6087614290087207 0.0
  outer loop
    vertex -25.455844122715725 -25.455844122715696 0.0
    vertex -31.1769145362398 -17.99999999999999 7.0
    vertex -31.1769145362398 -17.99999999999999 0.0
  endloop
endfacet
facet normal 0.7933533402912352 0.6087614290087208 -0.0
  outer loop
    vertex -29.01185102677871 -16.749999999999996 4.999999999999999
    vertex -23.688077169749363 -23.688077169749334 6.999999999999998
    vertex -23.688077169749363 -23.688077169749334 4.999999999999999
  endloop
endfacet
facet normal 0.7933533402912352 0.6087614290087208 -0.0
  outer loop
    vertex -23.688077169749363 -23.688077169749334 6.999999999999998
    vertex -29.01185102677871 -16.749999999999996 4.999999999999999
    vertex -29.01185102677871 -16.749999999999996 6.999999999999998
  endloop
endfacet
facet normal 0.7108088441951699 0.5454228094450859 -0.44414496051509617
  outer loop
    vertex -29.44486372867092 -16.999999999999986 3.9999999999999996
    vertex -23.688077169749363 -23.688077169749334 4.999999999999999
    vertex -24.041630560342625 -24.0416305603426 3.9999999999999996
  endloop
endfacet
facet normal 0.7108088441951699 0.5454228094450859 -0.44414496051509617
  outer loop
    vertex -23.688077169749363 -23.688077169749334 4.999999999999999
    vertex -29.44486372867092 -16.999999999999986 3.9999999999999996
    vertex -29.01185102677871 -16.749999999999996 4.999999999999999
  endloop
endfacet
facet normal 0.7933533402912353 0.6087614290087208 -0.0
  outer loop
    vertex -29.44486372867092 -16.999999999999986 1.9999999999999996
    vertex -24.041630560342625 -24.0416305603426 3.9999999999999996
    vertex -24.041630560342625 -24.0416305603426 1.9999999999999996
  endloop
endfacet
facet normal 0.7933533402912353 0.6087614290087208 -0.0
  outer loop
    vertex -24.041630560342625 -24.0416305603426 3.9999999999999996
    vertex -29.44486372867092 -16.999999999999986 1.9999999999999996
    vertex -29.44486372867092 -16.999999999999986 3.9999999999999996
  endloop
endfacet
facet normal -0.6087614290087213 -0.7933533402912347 0.0
  outer loop
    vertex -18.000000000000018 -31.17691453623978 7.0
    vertex -25.455844122715725 -25.455844122715696 0.0
    vertex -18.000000000000018 -31.17691453623978 0.0
  endloop
endfacet
facet normal -0.6087614290087213 -0.7933533402912347 0.0
  outer loop
    vertex -25.455844122715725 -25.455844122715696 0.0
    vertex -18.000000000000018 -31.17691453623978 7.0
    vertex -25.455844122715725 -25.455844122715696 7.0
  endloop
endfacet
facet normal 0.6087614290087212 0.7933533402912349 -0.0
  outer loop
    vertex -23.688077169749363 -23.688077169749334 6.999999999999998
    vertex -16.75000000000002 -29.011851026778693 4.999999999999999
    vertex -23.688077169749363 -23.688077169749334 4.999999999999999
  endloop
endfacet
facet normal 0.6087614290087212 0.7933533402912349 -0.0
  outer loop
    vertex -16.75000000000002 -29.011851026778693 4.999999999999999
    vertex -23.688077169749363 -23.688077169749334 6.999999999999998
    vertex -16.75000000000002 -29.011851026778693 6.999999999999998
  endloop
endfacet
facet normal 0.545422809445086 0.7108088441951691 -0.4441449605150972
  outer loop
    vertex -23.688077169749363 -23.688077169749334 4.999999999999999
    vertex -17.000000000000014 -29.444863728670903 3.9999999999999996
    vertex -24.041630560342625 -24.0416305603426 3.9999999999999996
  endloop
endfacet
facet normal 0.545422809445086 0.7108088441951691 -0.4441449605150972
  outer loop
    vertex -17.000000000000014 -29.444863728670903 3.9999999999999996
    vertex -23.688077169749363 -23.688077169749334 4.999999999999999
    vertex -16.75000000000002 -29.011851026778693 4.999999999999999
  endloop
endfacet
facet normal 0.6087614290087213 0.7933533402912346 -0.0
  outer loop
    vertex -24.041630560342625 -24.0416305603426 3.9999999999999996
    vertex -17.000000000000014 -29.444863728670903 1.9999999999999996
    vertex -24.041630560342625 -24.0416305603426 1.9999999999999996
  endloop
endfacet
facet normal 0.6087614290087213 0.7933533402912346 -0.0
  outer loop
    vertex -17.000000000000014 -29.444863728670903 1.9999999999999996
    vertex -24.041630560342625 -24.0416305603426 3.9999999999999996
    vertex -17.000000000000014 -29.444863728670903 3.9999999999999996
  endloop
endfacet
facet normal -0.38268343236509056 -0.9238795325112865 0.0
  outer loop
    vertex -9.317485623690775 -34.77332974640645 7.0
    vertex -18.000000000000018 -31.17691453623978 0.0
    vertex -9.317485623690775 -34.77332974640645 0.0
  endloop
endfacet
facet normal -0.38268343236509056 -0.9238795325112865 0.0
  outer loop
    vertex -18.000000000000018 -31.17691453623978 0.0
    vertex -9.317485623690775 -34.77332974640645 7.0
    vertex -18.000000000000018 -31.17691453623978 7.0
  endloop
endfacet
facet normal 0.38268343236508995 0.9238795325112867 -0.0
  outer loop
    vertex -16.75000000000002 -29.011851026778693 6.999999999999998
    vertex -8.670438010934474 -32.35851518068378 4.999999999999999
    vertex -16.75000000000002 -29.011851026778693 4.999999999999999
  endloop
endfacet
facet normal 0.38268343236508995 0.9238795325112867 -0.0
  outer loop
    vertex -8.670438010934474 -32.35851518068378 4.999999999999999
    vertex -16.75000000000002 -29.011851026778693 6.999999999999998
    vertex -8.670438010934474 -32.35851518068378 6.999999999999998
  endloop
endfacet
facet normal 0.3428671115851296 0.827754430880508 -0.4441449605150963
  outer loop
    vertex -16.75000000000002 -29.011851026778693 4.999999999999999
    vertex -8.79984753348573 -32.84147809382831 3.9999999999999996
    vertex -17.000000000000014 -29.444863728670903 3.9999999999999996
  endloop
endfacet
facet normal 0.3428671115851296 0.827754430880508 -0.4441449605150963
  outer loop
    vertex -8.79984753348573 -32.84147809382831 3.9999999999999996
    vertex -16.75000000000002 -29.011851026778693 4.999999999999999
    vertex -8.670438010934474 -32.35851518068378 4.999999999999999
  endloop
endfacet
facet normal 0.3826834323650906 0.9238795325112866 -0.0
  outer loop
    vertex -17.000000000000014 -29.444863728670903 3.9999999999999996
    vertex -8.79984753348573 -32.84147809382831 1.9999999999999996
    vertex -17.000000000000014 -29.444863728670903 1.9999999999999996
  endloop
endfacet
facet normal 0.3826834323650906 0.9238795325112866 -0.0
  outer loop
    vertex -8.79984753348573 -32.84147809382831 1.9999999999999996
    vertex -17.000000000000014 -29.444863728670903 3.9999999999999996
    vertex -8.79984753348573 -32.84147809382831 3.9999999999999996
  endloop
endfacet
facet normal -0.13052619222005207 -0.9914448613738105 -5.962512100600022e-18
  outer loop
    vertex -7.049916206369744e-15 -36.0 7.0
    vertex -9.317485623690775 -34.77332974640645 0.0
    vertex -6.613092715395707e-15 -36.0 0.0
  endloop
endfacet
facet normal -0.13052619222005207 -0.9914448613738105 -5.962512100600022e-18
  outer loop
    vertex -9.317485623690775 -34.77332974640645 0.0
    vertex -7.049916206369744e-15 -36.0 7.0
    vertex -9.317485623690775 -34.77332974640645 7.0
  endloop
endfacet
facet normal 0.13052619222005174 0.9914448613738104 -0.0
  outer loop
    vertex -8.670438010934474 -32.35851518068378 6.999999999999998
    vertex -5.639932965095795e-15 -33.5 4.999999999999999
    vertex -8.670438010934474 -32.35851518068378 4.999999999999999
  endloop
endfacet
facet normal 0.13052619222005174 0.9914448613738104 -0.0
  outer loop
    vertex -5.639932965095795e-15 -33.5 4.999999999999999
    vertex -8.670438010934474 -32.35851518068378 6.999999999999998
    vertex -5.639932965095795e-15 -33.5 6.999999999999998
  endloop
endfacet
facet normal 0.11694558668533851 0.8882899210302134 -0.4441449605150997
  outer loop
    vertex -8.670438010934474 -32.35851518068378 4.999999999999999
    vertex -5.639932965095795e-15 -33.99999999999999 3.9999999999999996
    vertex -8.79984753348573 -32.84147809382831 3.9999999999999996
  endloop
endfacet
facet normal 0.11694558668533851 0.8882899210302134 -0.4441449605150997
  outer loop
    vertex -5.639932965095795e-15 -33.99999999999999 3.9999999999999996
    vertex -8.670438010934474 -32.35851518068378 4.999999999999999
    vertex -5.639932965095795e-15 -33.5 4.999999999999999
  endloop
endfacet
facet normal 0.1305261922200521 0.9914448613738104 -0.0
  outer loop
    vertex -8.79984753348573 -32.84147809382831 3.9999999999999996
    vertex -5.639932965095795e-15 -33.99999999999999 1.9999999999999996
    vertex -8.79984753348573 -32.84147809382831 1.9999999999999996
  endloop
endfacet
facet normal 0.1305261922200521 0.9914448613738104 -0.0
  outer loop
    vertex -5.639932965095795e-15 -33.99999999999999 1.9999999999999996
    vertex -8.79984753348573 -32.84147809382831 3.9999999999999996
    vertex -5.639932965095795e-15 -33.99999999999999 3.9999999999999996
  endloop
endfacet
facet normal 0.13052619222005127 -0.9914448613738105 5.9625121005999846e-18
  outer loop
    vertex 9.31748562369073 -34.77332974640647 7.0
    vertex -6.613092715395707e-15 -36.0 0.0
    vertex 9.31748562369073 -34.77332974640647 0.0
  endloop
endfacet
facet normal 0.13052619222005127 -0.9914448613738105 5.9625121005999846e-18
  outer loop
    vertex -6.613092715395707e-15 -36.0 0.0
    vertex 9.31748562369073 -34.77332974640647 7.0
    vertex -7.049916206369744e-15 -36.0 7.0
  endloop
endfacet
facet normal -0.13052619222005094 0.9914448613738106 -0.0
  outer loop
    vertex -5.639932965095795e-15 -33.5 6.999999999999998
    vertex 8.670438010934431 -32.358515180683796 4.999999999999999
    vertex -5.639932965095795e-15 -33.5 4.999999999999999
  endloop
endfacet
facet normal -0.13052619222005094 0.9914448613738106 -0.0
  outer loop
    vertex 8.670438010934431 -32.358515180683796 4.999999999999999
    vertex -5.639932965095795e-15 -33.5 6.999999999999998
    vertex 8.670438010934431 -32.358515180683796 6.999999999999998
  endloop
endfacet
facet normal -0.11694558668533779 0.8882899210302135 -0.4441449605150996
  outer loop
    vertex -5.639932965095795e-15 -33.5 4.999999999999999
    vertex 8.799847533485687 -32.84147809382832 3.9999999999999996
    vertex -5.639932965095795e-15 -33.99999999999999 3.9999999999999996
  endloop
endfacet
facet normal -0.11694558668533779 0.8882899210302135 -0.4441449605150996
  outer loop
    vertex 8.799847533485687 -32.84147809382832 3.9999999999999996
    vertex -5.639932965095795e-15 -33.5 4.999999999999999
    vertex 8.670438010934431 -32.358515180683796 4.999999999999999
  endloop
endfacet
facet normal -0.1305261922200513 0.9914448613738104 -0.0
  outer loop
    vertex -5.639932965095795e-15 -33.99999999999999 3.9999999999999996
    vertex 8.799847533485687 -32.84147809382832 1.9999999999999996
    vertex -5.639932965095795e-15 -33.99999999999999 1.9999999999999996
  endloop
endfacet
facet normal -0.1305261922200513 0.9914448613738104 -0.0
  outer loop
    vertex 8.799847533485687 -32.84147809382832 1.9999999999999996
    vertex -5.639932965095795e-15 -33.99999999999999 3.9999999999999996
    vertex 8.799847533485687 -32.84147809382832 3.9999999999999996
  endloop
endfacet
facet normal 0.38268343236508945 -0.9238795325112871 0.0
  outer loop
    vertex 17.999999999999975 -31.176914536239803 7.0
    vertex 9.31748562369073 -34.77332974640647 0.0
    vertex 17.999999999999975 -31.176914536239803 0.0
  endloop
endfacet
facet normal 0.38268343236508945 -0.9238795325112871 0.0
  outer loop
    vertex 9.31748562369073 -34.77332974640647 0.0
    vertex 17.999999999999975 -31.176914536239803 7.0
    vertex 9.31748562369073 -34.77332974640647 7.0
  endloop
endfacet
facet normal -0.3826834323650899 0.9238795325112868 -0.0
  outer loop
    vertex 8.670438010934431 -32.358515180683796 6.999999999999998
    vertex 16.749999999999982 -29.011851026778704 4.999999999999999
    vertex 8.670438010934431 -32.358515180683796 4.999999999999999
  endloop
endfacet
facet normal -0.3826834323650899 0.9238795325112868 -0.0
  outer loop
    vertex 16.749999999999982 -29.011851026778704 4.999999999999999
    vertex 8.670438010934431 -32.358515180683796 6.999999999999998
    vertex 16.749999999999982 -29.011851026778704 6.999999999999998
  endloop
endfacet
facet normal -0.3428671115851283 0.8277544308805065 -0.44414496051510033
  outer loop
    vertex 8.670438010934431 -32.358515180683796 4.999999999999999
    vertex 16.999999999999975 -29.44486372867092 3.9999999999999996
    vertex 8.799847533485687 -32.84147809382832 3.9999999999999996
  endloop
endfacet
facet normal -0.3428671115851283 0.8277544308805065 -0.44414496051510033
  outer loop
    vertex 16.999999999999975 -29.44486372867092 3.9999999999999996
    vertex 8.670438010934431 -32.358515180683796 4.999999999999999
    vertex 16.749999999999982 -29.011851026778704 4.999999999999999
  endloop
endfacet
facet normal -0.3826834323650893 0.9238795325112868 -0.0
  outer loop
    vertex 8.799847533485687 -32.84147809382832 3.9999999999999996
    vertex 16.999999999999975 -29.44486372867092 1.9999999999999996
    vertex 8.799847533485687 -32.84147809382832 1.9999999999999996
  endloop
endfacet
facet normal -0.3826834323650893 0.9238795325112868 -0.0
  outer loop
    vertex 16.999999999999975 -29.44486372867092 1.9999999999999996
    vertex 8.799847533485687 -32.84147809382832 3.9999999999999996
    vertex 16.999999999999975 -29.44486372867092 3.9999999999999996
  endloop
endfacet
facet normal 0.6087614290087201 -0.7933533402912355 0.0
  outer loop
    vertex 25.455844122715707 -25.455844122715718 7.0
    vertex 17.999999999999975 -31.176914536239803 0.0
    vertex 25.455844122715707 -25.455844122715718 0.0
  endloop
endfacet
facet normal 0.6087614290087201 -0.7933533402912355 0.0
  outer loop
    vertex 17.999999999999975 -31.176914536239803 0.0
    vertex 25.455844122715707 -25.455844122715718 7.0
    vertex 17.999999999999975 -31.176914536239803 7.0
  endloop
endfacet
facet normal -0.6087614290087203 0.7933533402912356 -0.0
  outer loop
    vertex 16.749999999999982 -29.011851026778704 6.999999999999998
    vertex 23.688077169749338 -23.68807716974935 4.999999999999999
    vertex 16.749999999999982 -29.011851026778704 4.999999999999999
  endloop
endfacet
facet normal -0.6087614290087203 0.7933533402912356 -0.0
  outer loop
    vertex 23.688077169749338 -23.68807716974935 4.999999999999999
    vertex 16.749999999999982 -29.011851026778704 6.999999999999998
    vertex 23.688077169749338 -23.68807716974935 6.999999999999998
  endloop
endfacet
facet normal -0.5454228094450844 0.7108088441951691 -0.44414496051509933
  outer loop
    vertex 16.749999999999982 -29.011851026778704 4.999999999999999
    vertex 24.041630560342607 -24.041630560342618 3.9999999999999996
    vertex 16.999999999999975 -29.44486372867092 3.9999999999999996
  endloop
endfacet
facet normal -0.5454228094450844 0.7108088441951691 -0.44414496051509933
  outer loop
    vertex 24.041630560342607 -24.041630560342618 3.9999999999999996
    vertex 16.749999999999982 -29.011851026778704 4.999999999999999
    vertex 23.688077169749338 -23.68807716974935 4.999999999999999
  endloop
endfacet
facet normal -0.6087614290087199 0.7933533402912357 -0.0
  outer loop
    vertex 16.999999999999975 -29.44486372867092 3.9999999999999996
    vertex 24.041630560342607 -24.041630560342618 1.9999999999999996
    vertex 16.999999999999975 -29.44486372867092 1.9999999999999996
  endloop
endfacet
facet normal -0.6087614290087199 0.7933533402912357 -0.0
  outer loop
    vertex 24.041630560342607 -24.041630560342618 1.9999999999999996
    vertex 16.999999999999975 -29.44486372867092 3.9999999999999996
    vertex 24.041630560342607 -24.041630560342618 3.9999999999999996
  endloop
endfacet
facet normal 0.7933533402912349 -0.6087614290087209 -0.0
  outer loop
    vertex 31.17691453623978 -18.000000000000018 0.0
    vertex 25.455844122715707 -25.455844122715718 7.0
    vertex 25.455844122715707 -25.455844122715718 0.0
  endloop
endfacet
facet normal 0.7933533402912349 -0.6087614290087209 -0.0
  outer loop
    vertex 25.455844122715707 -25.455844122715718 7.0
    vertex 31.17691453623978 -18.000000000000018 0.0
    vertex 31.17691453623978 -18.000000000000018 7.0
  endloop
endfacet
facet normal -0.7933533402912348 0.6087614290087211 -0.0
  outer loop
    vertex 29.011851026778686 -16.75000000000002 6.999999999999998
    vertex 23.688077169749338 -23.68807716974935 4.999999999999999
    vertex 23.688077169749338 -23.68807716974935 6.999999999999998
  endloop
endfacet
facet normal -0.7933533402912348 0.6087614290087211 -0.0
  outer loop
    vertex 23.688077169749338 -23.68807716974935 4.999999999999999
    vertex 29.011851026778686 -16.75000000000002 6.999999999999998
    vertex 29.011851026778686 -16.75000000000002 4.999999999999999
  endloop
endfacet
facet normal -0.7108088441951681 0.5454228094450848 -0.44414496051510016
  outer loop
    vertex 23.688077169749338 -23.68807716974935 4.999999999999999
    vertex 29.4448637286709 -17.000000000000014 3.9999999999999996
    vertex 24.041630560342607 -24.041630560342618 3.9999999999999996
  endloop
endfacet
facet normal -0.7108088441951681 0.5454228094450848 -0.44414496051510016
  outer loop
    vertex 29.4448637286709 -17.000000000000014 3.9999999999999996
    vertex 23.688077169749338 -23.68807716974935 4.999999999999999
    vertex 29.011851026778686 -16.75000000000002 4.999999999999999
  endloop
endfacet
facet normal -0.7933533402912353 0.6087614290087207 -0.0
  outer loop
    vertex 29.4448637286709 -17.000000000000014 3.9999999999999996
    vertex 24.041630560342607 -24.041630560342618 1.9999999999999996
    vertex 24.041630560342607 -24.041630560342618 3.9999999999999996
  endloop
endfacet
facet normal -0.7933533402912353 0.6087614290087207 -0.0
  outer loop
    vertex 24.041630560342607 -24.041630560342618 1.9999999999999996
    vertex 29.4448637286709 -17.000000000000014 3.9999999999999996
    vertex 29.4448637286709 -17.000000000000014 1.9999999999999996
  endloop
endfacet
facet normal 0.9238795325112865 -0.38268343236509067 -0.0
  outer loop
    vertex 34.77332974640645 -9.317485623690777 0.0
    vertex 31.17691453623978 -18.000000000000018 7.0
    vertex 31.17691453623978 -18.000000000000018 0.0
  endloop
endfacet
facet normal 0.9238795325112865 -0.38268343236509067 -0.0
  outer loop
    vertex 31.17691453623978 -18.000000000000018 7.0
    vertex 34.77332974640645 -9.317485623690777 0.0
    vertex 34.77332974640645 -9.317485623690777 7.0
  endloop
endfacet
facet normal -0.9238795325112864 0.38268343236509067 -0.0
  outer loop
    vertex 32.35851518068378 -8.670438010934477 6.999999999999998
    vertex 29.011851026778686 -16.75000000000002 4.999999999999999
    vertex 29.011851026778686 -16.75000000000002 6.999999999999998
  endloop
endfacet
facet normal -0.9238795325112864 0.38268343236509067 -0.0
  outer loop
    vertex 29.011851026778686 -16.75000000000002 4.999999999999999
    vertex 32.35851518068378 -8.670438010934477 6.999999999999998
    vertex 32.35851518068378 -8.670438010934477 4.999999999999999
  endloop
endfacet
facet normal -0.8277544308805063 0.34286711158512956 -0.4441449605150999
  outer loop
    vertex 29.011851026778686 -16.75000000000002 4.999999999999999
    vertex 32.841478093828314 -8.799847533485734 3.9999999999999996
    vertex 29.4448637286709 -17.000000000000014 3.9999999999999996
  endloop
endfacet
facet normal -0.8277544308805063 0.34286711158512956 -0.4441449605150999
  outer loop
    vertex 32.841478093828314 -8.799847533485734 3.9999999999999996
    vertex 29.011851026778686 -16.75000000000002 4.999999999999999
    vertex 32.35851518068378 -8.670438010934477 4.999999999999999
  endloop
endfacet
facet normal -0.9238795325112862 0.3826834323650911 -0.0
  outer loop
    vertex 32.841478093828314 -8.799847533485734 3.9999999999999996
    vertex 29.4448637286709 -17.000000000000014 1.9999999999999996
    vertex 29.4448637286709 -17.000000000000014 3.9999999999999996
  endloop
endfacet
facet normal -0.9238795325112862 0.3826834323650911 -0.0
  outer loop
    vertex 29.4448637286709 -17.000000000000014 1.9999999999999996
    vertex 32.841478093828314 -8.799847533485734 3.9999999999999996
    vertex 32.841478093828314 -8.799847533485734 1.9999999999999996
  endloop
endfacet
facet normal 0.9914448613738105 -0.1305261922200519 -0.0
  outer loop
    vertex 36.0 0.0 0.0
    vertex 34.77332974640645 -9.317485623690777 7.0
    vertex 34.77332974640645 -9.317485623690777 0.0
  endloop
endfacet
facet normal 0.9914448613738105 -0.1305261922200519 -0.0
  outer loop
    vertex 34.77332974640645 -9.317485623690777 7.0
    vertex 36.0 0.0 0.0
    vertex 36.0 0.0 7.0
  endloop
endfacet
facet normal -0.9914448613738104 0.1305261922200516 -0.0
  outer loop
    vertex 33.5 -7.931155732165962e-16 6.999999999999998
    vertex 32.35851518068378 -8.670438010934477 4.999999999999999
    vertex 32.35851518068378 -8.670438010934477 6.999999999999998
  endloop
endfacet
facet normal -0.9914448613738104 0.1305261922200516 -0.0
  outer loop
    vertex 32.35851518068378 -8.670438010934477 4.999999999999999
    vertex 33.5 -7.931155732165962e-16 6.999999999999998
    vertex 33.5 -7.931155732165962e-16 4.999999999999999
  endloop
endfacet
facet normal -0.8882899210302113 0.11694558668533811 -0.4441449605151037
  outer loop
    vertex 32.35851518068378 -8.670438010934477 4.999999999999999
    vertex 34.0 -5.728056917675417e-16 3.9999999999999996
    vertex 32.841478093828314 -8.799847533485734 3.9999999999999996
  endloop
endfacet
facet normal -0.8882899210302113 0.11694558668533811 -0.4441449605151037
  outer loop
    vertex 34.0 -5.728056917675417e-16 3.9999999999999996
    vertex 32.35851518068378 -8.670438010934477 4.999999999999999
    vertex 33.5 -7.931155732165962e-16 4.999999999999999
  endloop
endfacet
facet normal -0.9914448613738104 0.13052619222005193 -0.0
  outer loop
    vertex 34.0 -5.728056917675417e-16 3.9999999999999996
    vertex 32.841478093828314 -8.799847533485734 1.9999999999999996
    vertex 32.841478093828314 -8.799847533485734 3.9999999999999996
  endloop
endfacet
facet normal -0.9914448613738104 0.13052619222005193 -0.0
  outer loop
    vertex 32.841478093828314 -8.799847533485734 1.9999999999999996
    vertex 34.0 -5.728056917675417e-16 3.9999999999999996
    vertex 34.0 -5.728056917675417e-16 1.9999999999999996
  endloop
endfacet
facet normal 0.0 0.0 -1.0
  outer loop
    vertex -34.77332974640646 9.317485623690757 0.0
    vertex -34.77332974640647 -9.317485623690734 0.0
    vertex -36.0 4.408728476930472e-15 0.0
  endloop
endfacet
facet normal 0.0 0.0 -1.0
  outer loop
    vertex -34.77332974640647 -9.317485623690734 0.0
    vertex -34.77332974640646 9.317485623690757 0.0
    vertex -31.1769145362398 -17.99999999999999 0.0
  endloop
endfacet
facet normal 0.0 0.0 -1.0
  outer loop
    vertex -31.1769145362398 -17.99999999999999 0.0
    vertex -34.77332974640646 9.317485623690757 0.0
    vertex -31.17691453623979 18.00000000000001 0.0
  endloop
endfacet
facet normal 0.0 0.0 -1.0
  outer loop
    vertex -31.1769145362398 -17.99999999999999 0.0
    vertex -31.17691453623979 18.00000000000001 0.0
    vertex -25.455844122715725 -25.455844122715696 0.0
  endloop
endfacet
facet normal 0.0 0.0 -1.0
  outer loop
    vertex -25.455844122715725 -25.455844122715696 0.0
    vertex -31.17691453623979 18.00000000000001 0.0
    vertex -25.455844122715714 25.455844122715714 0.0
  endloop
endfacet
facet normal 0.0 0.0 -1.0
  outer loop
    vertex -25.455844122715725 -25.455844122715696 0.0
    vertex -25.455844122715714 25.455844122715714 0.0
    vertex -18.000000000000018 -31.17691453623978 0.0
  endloop
endfacet
facet normal 0.0 0.0 -1.0
  outer loop
    vertex -18.000000000000018 -31.17691453623978 0.0
    vertex -25.455844122715714 25.455844122715714 0.0
    vertex -17.999999999999993 31.176914536239792 0.0
  endloop
endfacet
facet normal 0.0 0.0 -1.0
  outer loop
    vertex -18.000000000000018 -31.17691453623978 0.0
    vertex -17.999999999999993 31.176914536239792 0.0
    vertex -9.317485623690775 -34.77332974640645 0.0
  endloop
endfacet
facet normal 0.0 0.0 -1.0
  outer loop
    vertex -9.317485623690775 -34.77332974640645 0.0
    vertex -17.999999999999993 31.176914536239792 0.0
    vertex -9.317485623690743 34.77332974640646 0.0
  endloop
endfacet
facet normal 0.0 0.0 -1.0
  outer loop
    vertex -9.317485623690775 -34.77332974640645 0.0
    vertex -9.317485623690743 34.77332974640646 0.0
    vertex -6.613092715395707e-15 -36.0 0.0
  endloop
endfacet
facet normal 0.0 0.0 -1.0
  outer loop
    vertex -6.613092715395707e-15 -36.0 0.0
    vertex -9.317485623690743 34.77332974640646 0.0
    vertex 2.204364238465236e-15 36.0 0.0
  endloop
endfacet
facet normal 0.0 0.0 -1.0
  outer loop
    vertex -6.613092715395707e-15 -36.0 0.0
    vertex 2.204364238465236e-15 36.0 0.0
    vertex 9.31748562369073 -34.77332974640647 0.0
  endloop
endfacet
facet normal 0.0 0.0 -1.0
  outer loop
    vertex 9.31748562369073 -34.77332974640647 0.0
    vertex 2.204364238465236e-15 36.0 0.0
    vertex 9.317485623690756 34.77332974640646 0.0
  endloop
endfacet
facet normal 0.0 0.0 -1.0
  outer loop
    vertex 9.31748562369073 -34.77332974640647 0.0
    vertex 9.317485623690756 34.77332974640646 0.0
    vertex 17.999999999999975 -31.176914536239803 0.0
  endloop
endfacet
facet normal 0.0 0.0 -1.0
  outer loop
    vertex 17.999999999999975 -31.176914536239803 0.0
    vertex 9.317485623690756 34.77332974640646 0.0
    vertex 18.000000000000004 31.176914536239792 0.0
  endloop
endfacet
facet normal 0.0 0.0 -1.0
  outer loop
    vertex 17.999999999999975 -31.176914536239803 0.0
    vertex 18.000000000000004 31.176914536239792 0.0
    vertex 25.455844122715707 -25.455844122715718 0.0
  endloop
endfacet
facet normal 0.0 0.0 -1.0
  outer loop
    vertex 25.455844122715707 -25.455844122715718 0.0
    vertex 18.000000000000004 31.176914536239792 0.0
    vertex 25.455844122715714 25.455844122715714 0.0
  endloop
endfacet
facet normal 0.0 0.0 -1.0
  outer loop
    vertex 25.455844122715707 -25.455844122715718 0.0
    vertex 25.455844122715714 25.455844122715714 0.0
    vertex 31.17691453623978 -18.000000000000018 0.0
  endloop
endfacet
facet normal 0.0 0.0 -1.0
  outer loop
    vertex 31.17691453623978 -18.000000000000018 0.0
    vertex 25.455844122715714 25.455844122715714 0.0
    vertex 31.176914536239792 17.999999999999996 0.0
  endloop
endfacet
facet normal 0.0 0.0 -1.0
  outer loop
    vertex 31.17691453623978 -18.000000000000018 0.0
    vertex 31.176914536239792 17.999999999999996 0.0
    vertex 34.77332974640645 -9.317485623690777 0.0
  endloop
endfacet
facet normal 0.0 0.0 -1.0
  outer loop
    vertex 34.77332974640645 -9.317485623690777 0.0
    vertex 31.176914536239792 17.999999999999996 0.0
    vertex 34.77332974640646 9.317485623690748 0.0
  endloop
endfacet
facet normal 0.0 0.0 -1.0
  outer loop
    vertex 34.77332974640645 -9.317485623690777 0.0
    vertex 34.77332974640646 9.317485623690748 0.0
    vertex 36.0 0.0 0.0
  endloop
endfacet
facet normal -4.9443353195813136e-33 1.433140672342416e-34 1.0
  outer loop
    vertex -32.84147809382832 -8.799847533485691 1.9999999999999996
    vertex -32.841478093828314 8.799847533485712 1.9999999999999996
    vertex -33.99999999999999 2.8199664825478975e-15 1.9999999999999996
  endloop
endfacet
facet normal -4.9443353195813136e-33 1.433140672342416e-34 1.0
  outer loop
    vertex -32.841478093828314 8.799847533485712 1.9999999999999996
    vertex -32.84147809382832 -8.799847533485691 1.9999999999999996
    vertex -29.44486372867092 -16.999999999999986 1.9999999999999996
  endloop
endfacet
facet normal -4.9443353195813136e-33 1.433140672342416e-34 1.0
  outer loop
    vertex -32.841478093828314 8.799847533485712 1.9999999999999996
    vertex -29.44486372867092 -16.999999999999986 1.9999999999999996
    vertex -29.444863728670903 17.000000000000004 1.9999999999999996
  endloop
endfacet
facet normal -4.9443353195813136e-33 1.433140672342416e-34 1.0
  outer loop
    vertex -29.444863728670903 17.000000000000004 1.9999999999999996
    vertex -29.44486372867092 -16.999999999999986 1.9999999999999996
    vertex -24.041630560342625 -24.0416305603426 1.9999999999999996
  endloop
endfacet
facet normal -4.9443353195813136e-33 1.433140672342416e-34 1.0
  outer loop
    vertex -29.444863728670903 17.000000000000004 1.9999999999999996
    vertex -24.041630560342625 -24.0416305603426 1.9999999999999996
    vertex -24.041630560342607 24.04163056034261 1.9999999999999996
  endloop
endfacet
facet normal -4.9443353195813136e-33 1.433140672342416e-34 1.0
  outer loop
    vertex -24.041630560342607 24.04163056034261 1.9999999999999996
    vertex -24.041630560342625 -24.0416305603426 1.9999999999999996
    vertex -17.000000000000014 -29.444863728670903 1.9999999999999996
  endloop
endfacet
facet normal -4.9443353195813136e-33 1.433140672342416e-34 1.0
  outer loop
    vertex -24.041630560342607 24.04163056034261 1.9999999999999996
    vertex -17.000000000000014 -29.444863728670903 1.9999999999999996
    vertex -16.99999999999999 29.44486372867091 1.9999999999999996
  endloop
endfacet
facet normal -4.9443353195813136e-33 1.433140672342416e-34 1.0
  outer loop
    vertex -16.99999999999999 29.44486372867091 1.9999999999999996
    vertex -17.000000000000014 -29.444863728670903 1.9999999999999996
    vertex -8.79984753348573 -32.84147809382831 1.9999999999999996
  endloop
endfacet
facet normal -4.9443353195813136e-33 1.433140672342416e-34 1.0
  outer loop
    vertex -16.99999999999999 29.44486372867091 1.9999999999999996
    vertex -8.79984753348573 -32.84147809382831 1.9999999999999996
    vertex -8.799847533485702 32.841478093828314 1.9999999999999996
  endloop
endfacet
facet normal -4.9443353195813136e-33 1.433140672342416e-34 1.0
  outer loop
    vertex -8.799847533485702 32.841478093828314 1.9999999999999996
    vertex -8.79984753348573 -32.84147809382831 1.9999999999999996
    vertex -5.639932965095795e-15 -33.99999999999999 1.9999999999999996
  endloop
endfacet
facet normal -4.9443353195813136e-33 1.433140672342416e-34 1.0
  outer loop
    vertex -8.799847533485702 32.841478093828314 1.9999999999999996
    vertex -5.639932965095795e-15 -33.99999999999999 1.9999999999999996
    vertex 1.4099832412739487e-15 33.99999999999999 1.9999999999999996
  endloop
endfacet
facet normal -4.9443353195813136e-33 1.433140672342416e-34 1.0
  outer loop
    vertex 1.4099832412739487e-15 33.99999999999999 1.9999999999999996
    vertex -5.639932965095795e-15 -33.99999999999999 1.9999999999999996
    vertex 8.799847533485687 -32.84147809382832 1.9999999999999996
  endloop
endfacet
facet normal -4.9443353195813136e-33 1.433140672342416e-34 1.0
  outer loop
    vertex 1.4099832412739487e-15 33.99999999999999 1.9999999999999996
    vertex 8.799847533485687 -32.84147809382832 1.9999999999999996
    vertex 8.799847533485709 32.841478093828314 1.9999999999999996
  endloop
endfacet
facet normal -4.9443353195813136e-33 1.433140672342416e-34 1.0
  outer loop
    vertex 8.799847533485709 32.841478093828314 1.9999999999999996
    vertex 8.799847533485687 -32.84147809382832 1.9999999999999996
    vertex 16.999999999999975 -29.44486372867092 1.9999999999999996
  endloop
endfacet
facet normal -4.9443353195813136e-33 1.433140672342416e-34 1.0
  outer loop
    vertex 8.799847533485709 32.841478093828314 1.9999999999999996
    vertex 16.999999999999975 -29.44486372867092 1.9999999999999996
    vertex 17.000000000000004 29.44486372867091 1.9999999999999996
  endloop
endfacet
facet normal -4.9443353195813136e-33 1.433140672342416e-34 1.0
  outer loop
    vertex 17.000000000000004 29.44486372867091 1.9999999999999996
    vertex 16.999999999999975 -29.44486372867092 1.9999999999999996
    vertex 24.041630560342607 -24.041630560342618 1.9999999999999996
  endloop
endfacet
facet normal -4.9443353195813136e-33 1.433140672342416e-34 1.0
  outer loop
    vertex 17.000000000000004 29.44486372867091 1.9999999999999996
    vertex 24.041630560342607 -24.041630560342618 1.9999999999999996
    vertex 24.041630560342615 24.041630560342615 1.9999999999999996
  endloop
endfacet
facet normal -4.9443353195813136e-33 1.433140672342416e-34 1.0
  outer loop
    vertex 24.041630560342615 24.041630560342615 1.9999999999999996
    vertex 24.041630560342607 -24.041630560342618 1.9999999999999996
    vertex 29.4448637286709 -17.000000000000014 1.9999999999999996
  endloop
endfacet
facet normal -4.9443353195813136e-33 1.433140672342416e-34 1.0
  outer loop
    vertex 24.041630560342615 24.041630560342615 1.9999999999999996
    vertex 29.4448637286709 -17.000000000000014 1.9999999999999996
    vertex 29.44486372867091 16.999999999999996 1.9999999999999996
  endloop
endfacet
facet normal -4.9443353195813136e-33 1.433140672342416e-34 1.0
  outer loop
    vertex 29.44486372867091 16.999999999999996 1.9999999999999996
    vertex 29.4448637286709 -17.000000000000014 1.9999999999999996
    vertex 32.841478093828314 -8.799847533485734 1.9999999999999996
  endloop
endfacet
facet normal -4.9443353195813136e-33 1.433140672342416e-34 1.0
  outer loop
    vertex 29.44486372867091 16.999999999999996 1.9999999999999996
    vertex 32.841478093828314 -8.799847533485734 1.9999999999999996
    vertex 32.84147809382832 8.799847533485707 1.9999999999999996
  endloop
endfacet
facet normal -4.9443353195813136e-33 1.433140672342416e-34 1.0
  outer loop
    vertex 32.84147809382832 8.799847533485707 1.9999999999999996
    vertex 32.841478093828314 -8.799847533485734 1.9999999999999996
    vertex 34.0 -5.728056917675417e-16 1.9999999999999996
  endloop
endfacet
facet normal -0.0 -0.0 1.0
  outer loop
    vertex -34.77332974640647 -9.317485623690734 7.0
    vertex -34.77332974640646 9.317485623690757 7.0
    vertex -36.0 4.229949723821846e-15 7.0
  endloop
endfacet
facet normal -0.0 -0.0 1.0
  outer loop
    vertex -34.77332974640646 9.317485623690757 7.0
    vertex -34.77332974640647 -9.317485623690734 7.0
    vertex -31.1769145362398 -17.99999999999999 7.0
  endloop
endfacet
facet normal -0.0 -0.0 1.0
  outer loop
    vertex -34.77332974640646 9.317485623690757 7.0
    vertex -31.1769145362398 -17.99999999999999 7.0
    vertex -33.500000000000014 4.229949723821846e-15 6.999999999999998
  endloop
endfacet
facet normal -0.0 -0.0 1.0
  outer loop
    vertex -33.500000000000014 4.229949723821846e-15 6.999999999999998
    vertex -31.1769145362398 -17.99999999999999 7.0
    vertex -32.35851518068381 -8.670438010934435 6.999999999999998
  endloop
endfacet
facet normal -0.0 -0.0 1.0
  outer loop
    vertex -32.35851518068381 -8.670438010934435 6.999999999999998
    vertex -31.1769145362398 -17.99999999999999 7.0
    vertex -29.01185102677871 -16.749999999999996 6.999999999999998
  endloop
endfacet
facet normal -0.0 -0.0 1.0
  outer loop
    vertex -29.01185102677871 -16.749999999999996 6.999999999999998
    vertex -31.1769145362398 -17.99999999999999 7.0
    vertex -25.455844122715725 -25.455844122715696 7.0
  endloop
endfacet
facet normal -0.0 -0.0 1.0
  outer loop
    vertex -29.01185102677871 -16.749999999999996 6.999999999999998
    vertex -25.455844122715725 -25.455844122715696 7.0
    vertex -23.688077169749363 -23.688077169749334 6.999999999999998
  endloop
endfacet
facet normal -0.0 -0.0 1.0
  outer loop
    vertex -23.688077169749363 -23.688077169749334 6.999999999999998
    vertex -25.455844122715725 -25.455844122715696 7.0
    vertex -18.000000000000018 -31.17691453623978 7.0
  endloop
endfacet
facet normal -0.0 -0.0 1.0
  outer loop
    vertex -23.688077169749363 -23.688077169749334 6.999999999999998
    vertex -18.000000000000018 -31.17691453623978 7.0
    vertex -16.75000000000002 -29.011851026778693 6.999999999999998
  endloop
endfacet
facet normal -0.0 -0.0 1.0
  outer loop
    vertex -16.75000000000002 -29.011851026778693 6.999999999999998
    vertex -18.000000000000018 -31.17691453623978 7.0
    vertex -9.317485623690775 -34.77332974640645 7.0
  endloop
endfacet
facet normal -0.0 -0.0 1.0
  outer loop
    vertex -16.75000000000002 -29.011851026778693 6.999999999999998
    vertex -9.317485623690775 -34.77332974640645 7.0
    vertex -8.670438010934474 -32.35851518068378 6.999999999999998
  endloop
endfacet
facet normal -0.0 -0.0 1.0
  outer loop
    vertex -8.670438010934474 -32.35851518068378 6.999999999999998
    vertex -9.317485623690775 -34.77332974640645 7.0
    vertex -7.049916206369744e-15 -36.0 7.0
  endloop
endfacet
facet normal -0.0 -0.0 1.0
  outer loop
    vertex -8.670438010934474 -32.35851518068378 6.999999999999998
    vertex -7.049916206369744e-15 -36.0 7.0
    vertex -5.639932965095795e-15 -33.5 6.999999999999998
  endloop
endfacet
facet normal -0.0 -0.0 1.0
  outer loop
    vertex -5.639932965095795e-15 -33.5 6.999999999999998
    vertex -7.049916206369744e-15 -36.0 7.0
    vertex 9.31748562369073 -34.77332974640647 7.0
  endloop
endfacet
facet normal -0.0 -0.0 1.0
  outer loop
    vertex -5.639932965095795e-15 -33.5 6.999999999999998
    vertex 9.31748562369073 -34.77332974640647 7.0
    vertex 8.670438010934431 -32.358515180683796 6.999999999999998
  endloop
endfacet
facet normal -0.0 -0.0 1.0
  outer loop
    vertex 8.670438010934431 -32.358515180683796 6.999999999999998
    vertex 9.31748562369073 -34.77332974640647 7.0
    vertex 16.749999999999982 -29.011851026778704 6.999999999999998
  endloop
endfacet
facet normal -0.0 -0.0 1.0
  outer loop
    vertex 16.749999999999982 -29.011851026778704 6.999999999999998
    vertex 9.31748562369073 -34.77332974640647 7.0
    vertex 17.999999999999975 -31.176914536239803 7.0
  endloop
endfacet
facet normal -0.0 -0.0 1.0
  outer loop
    vertex 16.749999999999982 -29.011851026778704 6.999999999999998
    vertex 17.999999999999975 -31.176914536239803 7.0
    vertex 23.688077169749338 -23.68807716974935 6.999999999999998
  endloop
endfacet
facet normal -0.0 -0.0 1.0
  outer loop
    vertex 23.688077169749338 -23.68807716974935 6.999999999999998
    vertex 17.999999999999975 -31.176914536239803 7.0
    vertex 25.455844122715707 -25.455844122715718 7.0
  endloop
endfacet
facet normal -0.0 -0.0 1.0
  outer loop
    vertex 23.688077169749338 -23.68807716974935 6.999999999999998
    vertex 25.455844122715707 -25.455844122715718 7.0
    vertex 29.011851026778686 -16.75000000000002 6.999999999999998
  endloop
endfacet
facet normal -0.0 -0.0 1.0
  outer loop
    vertex 29.011851026778686 -16.75000000000002 6.999999999999998
    vertex 25.455844122715707 -25.455844122715718 7.0
    vertex 31.17691453623978 -18.000000000000018 7.0
  endloop
endfacet
facet normal -0.0 -0.0 1.0
  outer loop
    vertex 29.011851026778686 -16.75000000000002 6.999999999999998
    vertex 31.17691453623978 -18.000000000000018 7.0
    vertex 32.35851518068378 -8.670438010934477 6.999999999999998
  endloop
endfacet
facet normal -0.0 -0.0 1.0
  outer loop
    vertex 32.35851518068378 -8.670438010934477 6.999999999999998
    vertex 31.17691453623978 -18.000000000000018 7.0
    vertex 34.77332974640645 -9.317485623690777 7.0
  endloop
endfacet
facet normal -0.0 -0.0 1.0
  outer loop
    vertex 32.35851518068378 -8.670438010934477 6.999999999999998
    vertex 34.77332974640645 -9.317485623690777 7.0
    vertex 33.5 -7.931155732165962e-16 6.999999999999998
  endloop
endfacet
facet normal -0.0 -0.0 1.0
  outer loop
    vertex -33.500000000000014 4.229949723821846e-15 6.999999999999998
    vertex -31.17691453623979 18.00000000000001 7.0
    vertex -34.77332974640646 9.317485623690757 7.0
  endloop
endfacet
facet normal -0.0 -0.0 1.0
  outer loop
    vertex -31.17691453623979 18.00000000000001 7.0
    vertex -33.500000000000014 4.229949723821846e-15 6.999999999999998
    vertex -32.3585151806838 8.670438010934458 6.999999999999998
  endloop
endfacet
facet normal -0.0 -0.0 1.0
  outer loop
    vertex -31.17691453623979 18.00000000000001 7.0
    vertex -32.3585151806838 8.670438010934458 6.999999999999998
    vertex -29.011851026778704 16.750000000000014 6.999999999999998
  endloop
endfacet
facet normal -0.0 -0.0 1.0
  outer loop
    vertex -31.17691453623979 18.00000000000001 7.0
    vertex -29.011851026778704 16.750000000000014 6.999999999999998
    vertex -25.455844122715714 25.455844122715714 7.0
  endloop
endfacet
facet normal -0.0 -0.0 1.0
  outer loop
    vertex -25.455844122715714 25.455844122715714 7.0
    vertex -29.011851026778704 16.750000000000014 6.999999999999998
    vertex -23.68807716974935 23.688077169749352 6.999999999999998
  endloop
endfacet
facet normal -0.0 -0.0 1.0
  outer loop
    vertex -25.455844122715714 25.455844122715714 7.0
    vertex -23.68807716974935 23.688077169749352 6.999999999999998
    vertex -17.999999999999996 31.176914536239792 7.0
  endloop
endfacet
facet normal -0.0 -0.0 1.0
  outer loop
    vertex -17.999999999999996 31.176914536239792 7.0
    vertex -23.68807716974935 23.688077169749352 6.999999999999998
    vertex -16.749999999999996 29.011851026778704 6.999999999999998
  endloop
endfacet
facet normal -0.0 -0.0 1.0
  outer loop
    vertex -17.999999999999996 31.176914536239792 7.0
    vertex -16.749999999999996 29.011851026778704 6.999999999999998
    vertex -9.317485623690745 34.77332974640646 7.0
  endloop
endfacet
facet normal -0.0 -0.0 1.0
  outer loop
    vertex -9.317485623690745 34.77332974640646 7.0
    vertex -16.749999999999996 29.011851026778704 6.999999999999998
    vertex -8.670438010934443 32.358515180683796 6.999999999999998
  endloop
endfacet
facet normal -0.0 -0.0 1.0
  outer loop
    vertex -9.317485623690745 34.77332974640646 7.0
    vertex -8.670438010934443 32.358515180683796 6.999999999999998
    vertex 2.8199664825478975e-15 36.0 7.0
  endloop
endfacet
facet normal -0.0 -0.0 1.0
  outer loop
    vertex 2.8199664825478975e-15 36.0 7.0
    vertex -8.670438010934443 32.358515180683796 6.999999999999998
    vertex 2.8199664825478975e-15 33.50000000000001 6.999999999999998
  endloop
endfacet
facet normal -0.0 -0.0 1.0
  outer loop
    vertex 2.8199664825478975e-15 36.0 7.0
    vertex 2.8199664825478975e-15 33.50000000000001 6.999999999999998
    vertex 8.670438010934452 32.358515180683796 6.999999999999998
  endloop
endfacet
facet normal -0.0 -0.0 1.0
  outer loop
    vertex 2.8199664825478975e-15 36.0 7.0
    vertex 8.670438010934452 32.358515180683796 6.999999999999998
    vertex 9.317485623690754 34.77332974640646 7.0
  endloop
endfacet
facet normal -0.0 -0.0 1.0
  outer loop
    vertex 9.317485623690754 34.77332974640646 7.0
    vertex 8.670438010934452 32.358515180683796 6.999999999999998
    vertex 16.750000000000007 29.011851026778697 6.999999999999998
  endloop
endfacet
facet normal -0.0 -0.0 1.0
  outer loop
    vertex 9.317485623690754 34.77332974640646 7.0
    vertex 16.750000000000007 29.011851026778697 6.999999999999998
    vertex 18.000000000000004 31.176914536239792 7.0
  endloop
endfacet
facet normal -0.0 -0.0 1.0
  outer loop
    vertex 18.000000000000004 31.176914536239792 7.0
    vertex 16.750000000000007 29.011851026778697 6.999999999999998
    vertex 23.68807716974935 23.688077169749345 6.999999999999998
  endloop
endfacet
facet normal -0.0 -0.0 1.0
  outer loop
    vertex 18.000000000000004 31.176914536239792 7.0
    vertex 23.68807716974935 23.688077169749345 6.999999999999998
    vertex 25.455844122715714 25.455844122715714 7.0
  endloop
endfacet
facet normal -0.0 -0.0 1.0
  outer loop
    vertex 25.455844122715714 25.455844122715714 7.0
    vertex 23.68807716974935 23.688077169749345 6.999999999999998
    vertex 29.011851026778704 16.749999999999996 6.999999999999998
  endloop
endfacet
facet normal -0.0 -0.0 1.0
  outer loop
    vertex 25.455844122715714 25.455844122715714 7.0
    vertex 29.011851026778704 16.749999999999996 6.999999999999998
    vertex 31.176914536239792 17.999999999999996 7.0
  endloop
endfacet
facet normal -0.0 -0.0 1.0
  outer loop
    vertex 31.176914536239792 17.999999999999996 7.0
    vertex 29.011851026778704 16.749999999999996 6.999999999999998
    vertex 32.35851518068379 8.670438010934447 6.999999999999998
  endloop
endfacet
facet normal -0.0 -0.0 1.0
  outer loop
    vertex 31.176914536239792 17.999999999999996 7.0
    vertex 32.35851518068379 8.670438010934447 6.999999999999998
    vertex 34.77332974640646 9.317485623690748 7.0
  endloop
endfacet
facet normal -0.0 -0.0 1.0
  outer loop
    vertex 34.77332974640646 9.317485623690748 7.0
    vertex 32.35851518068379 8.670438010934447 6.999999999999998
    vertex 33.5 -7.931155732165962e-16 6.999999999999998
  endloop
endfacet
facet normal -0.0 -0.0 1.0
  outer loop
    vertex 34.77332974640646 9.317485623690748 7.0
    vertex 33.5 -7.931155732165962e-16 6.999999999999998
    vertex 34.77332974640645 -9.317485623690777 7.0
  endloop
endfacet
facet normal -0.0 -0.0 1.0
  outer loop
    vertex 34.77332974640646 9.317485623690748 7.0
    vertex 34.77332974640645 -9.317485623690777 7.0
    vertex 36.0 0.0 7.0
  endloop
endfacet
endsolid Lid-Stage03
