solid Lid-Stage01
facet normal 0.0 0.0 -1.0
  outer loop
    vertex -34.77332974640645 9.317485623690756 0.0
    vertex -34.77332974640646 -9.317485623690732 0.0
    vertex -35.99999999999999 4.408728476930472e-15 0.0
  endloop
endfacet
facet normal 0.0 0.0 -1.0
  outer loop
    vertex -34.77332974640646 -9.317485623690732 0.0
    vertex -34.77332974640645 9.317485623690756 0.0
    vertex -31.176914536239792 -17.999999999999986 0.0
  endloop
endfacet
facet normal 0.0 0.0 -1.0
  outer loop
    vertex -31.176914536239792 -17.999999999999986 0.0
    vertex -34.77332974640645 9.317485623690756 0.0
    vertex -31.17691453623978 18.00000000000001 0.0
  endloop
endfacet
facet normal 0.0 0.0 -1.0
  outer loop
    vertex -31.176914536239792 -17.999999999999986 0.0
    vertex -31.17691453623978 18.00000000000001 0.0
    vertex -25.455844122715725 -25.455844122715696 0.0
  endloop
endfacet
facet normal 0.0 0.0 -1.0
  outer loop
    vertex -25.455844122715725 -25.455844122715696 0.0
    vertex -31.17691453623978 18.00000000000001 0.0
    vertex -25.455844122715707 25.455844122715714 0.0
  endloop
endfacet
facet normal 0.0 0.0 -1.0
  outer loop
    vertex -25.455844122715725 -25.455844122715696 0.0
    vertex -25.455844122715707 25.455844122715714 0.0
    vertex -18.000000000000014 -31.176914536239778 0.0
  endloop
endfacet
facet normal 0.0 0.0 -1.0
  outer loop
    vertex -18.000000000000014 -31.176914536239778 0.0
    vertex -25.455844122715707 25.455844122715714 0.0
    vertex -17.99999999999999 31.17691453623979 0.0
  endloop
endfacet
facet normal 0.0 0.0 -1.0
  outer loop
    vertex -18.000000000000014 -31.176914536239778 0.0
    vertex -17.99999999999999 31.17691453623979 0.0
    vertex -9.317485623690773 -34.773329746406446 0.0
  endloop
endfacet
facet normal 0.0 0.0 -1.0
  outer loop
    vertex -9.317485623690773 -34.773329746406446 0.0
    vertex -17.99999999999999 31.17691453623979 0.0
    vertex -9.317485623690741 34.77332974640645 0.0
  endloop
endfacet
facet normal 0.0 0.0 -1.0
  outer loop
    vertex -9.317485623690773 -34.773329746406446 0.0
    vertex -9.317485623690741 34.77332974640645 0.0
    vertex -6.613092715395707e-15 -35.99999999999999 0.0
  endloop
endfacet
facet normal 0.0 0.0 -1.0
  outer loop
    vertex -6.613092715395707e-15 -35.99999999999999 0.0
    vertex -9.317485623690741 34.77332974640645 0.0
    vertex 2.204364238465236e-15 35.99999999999999 0.0
  endloop
endfacet
facet normal 0.0 0.0 -1.0
  outer loop
    vertex -6.613092715395707e-15 -35.99999999999999 0.0
    vertex 2.204364238465236e-15 35.99999999999999 0.0
    vertex 9.317485623690729 -34.77332974640646 0.0
  endloop
endfacet
facet normal 0.0 0.0 -1.0
  outer loop
    vertex 9.317485623690729 -34.77332974640646 0.0
    vertex 2.204364238465236e-15 35.99999999999999 0.0
    vertex 9.317485623690754 34.77332974640645 0.0
  endloop
endfacet
facet normal 0.0 0.0 -1.0
  outer loop
    vertex 9.317485623690729 -34.77332974640646 0.0
    vertex 9.317485623690754 34.77332974640645 0.0
    vertex 17.99999999999997 -31.176914536239803 0.0
  endloop
endfacet
facet normal 0.0 0.0 -1.0
  outer loop
    vertex 17.99999999999997 -31.176914536239803 0.0
    vertex 9.317485623690754 34.77332974640645 0.0
    vertex 18.0 31.17691453623979 0.0
  endloop
endfacet
facet normal 0.0 0.0 -1.0
  outer loop
    vertex 17.99999999999997 -31.176914536239803 0.0
    vertex 18.0 31.17691453623979 0.0
    vertex 25.4558441227157 -25.455844122715714 0.0
  endloop
endfacet
facet normal 0.0 0.0 -1.0
  outer loop
    vertex 25.4558441227157 -25.455844122715714 0.0
    vertex 18.0 31.17691453623979 0.0
    vertex 25.455844122715714 25.455844122715707 0.0
  endloop
endfacet
facet normal 0.0 0.0 -1.0
  outer loop
    vertex 25.4558441227157 -25.455844122715714 0.0
    vertex 25.455844122715714 25.455844122715707 0.0
    vertex 31.176914536239778 -18.000000000000014 0.0
  endloop
endfacet
facet normal 0.0 0.0 -1.0
  outer loop
    vertex 31.176914536239778 -18.000000000000014 0.0
    vertex 25.455844122715714 25.455844122715707 0.0
    vertex 31.17691453623979 17.999999999999996 0.0
  endloop
endfacet
facet normal 0.0 0.0 -1.0
  outer loop
    vertex 31.176914536239778 -18.000000000000014 0.0
    vertex 31.17691453623979 17.999999999999996 0.0
    vertex 34.773329746406446 -9.317485623690777 0.0
  endloop
endfacet
facet normal 0.0 0.0 -1.0
  outer loop
    vertex 34.773329746406446 -9.317485623690777 0.0
    vertex 31.17691453623979 17.999999999999996 0.0
    vertex 34.77332974640645 9.317485623690745 0.0
  endloop
endfacet
facet normal 0.0 0.0 -1.0
  outer loop
    vertex 34.773329746406446 -9.317485623690777 0.0
    vertex 34.77332974640645 9.317485623690745 0.0
    vertex 35.99999999999999 0.0 0.0
  endloop
endfacet
facet normal -0.0 -0.0 1.0
  outer loop
    vertex -34.77332974640646 -9.317485623690732 5.0
    vertex -34.77332974640645 9.317485623690756 5.0
    vertex -35.99999999999999 4.408728476930472e-15 5.0
  endloop
endfacet
facet normal -0.0 -0.0 1.0
  outer loop
    vertex -34.77332974640645 9.317485623690756 5.0
    vertex -34.77332974640646 -9.317485623690732 5.0
    vertex -34.0 -4.1637991171010006e-15 5.0
  endloop
endfacet
facet normal -0.0 -0.0 1.0
  outer loop
    vertex -34.0 -4.1637991171010006e-15 5.0
    vertex -34.77332974640646 -9.317485623690732 5.0
    vertex -32.84147809382832 -8.799847533485714 5.0
  endloop
endfacet
facet normal -0.0 -0.0 1.0
  outer loop
    vertex -32.84147809382832 -8.799847533485714 5.0
    vertex -34.77332974640646 -9.317485623690732 5.0
    vertex -31.176914536239792 -17.999999999999986 5.0
  endloop
endfacet
facet normal -0.0 -0.0 1.0
  outer loop
    vertex -32.84147809382832 -8.799847533485714 5.0
    vertex -31.176914536239792 -17.999999999999986 5.0
    vertex -29.44486372867091 -17.000000000000007 5.0
  endloop
endfacet
facet normal -0.0 -0.0 1.0
  outer loop
    vertex -29.44486372867091 -17.000000000000007 5.0
    vertex -31.176914536239792 -17.999999999999986 5.0
    vertex -25.455844122715725 -25.455844122715696 5.0
  endloop
endfacet
facet normal -0.0 -0.0 1.0
  outer loop
    vertex -29.44486372867091 -17.000000000000007 5.0
    vertex -25.455844122715725 -25.455844122715696 5.0
    vertex -24.041630560342618 -24.041630560342615 5.0
  endloop
endfacet
facet normal -0.0 -0.0 1.0
  outer loop
    vertex -24.041630560342618 -24.041630560342615 5.0
    vertex -25.455844122715725 -25.455844122715696 5.0
    vertex -18.000000000000014 -31.176914536239778 5.0
  endloop
endfacet
facet normal -0.0 -0.0 1.0
  outer loop
    vertex -24.041630560342618 -24.041630560342615 5.0
    vertex -18.000000000000014 -31.176914536239778 5.0
    vertex -16.999999999999993 -29.44486372867091 5.0
  endloop
endfacet
facet normal -0.0 -0.0 1.0
  outer loop
    vertex -16.999999999999993 -29.44486372867091 5.0
    vertex -18.000000000000014 -31.176914536239778 5.0
    vertex -9.317485623690773 -34.773329746406446 5.0
  endloop
endfacet
facet normal -0.0 -0.0 1.0
  outer loop
    vertex -16.999999999999993 -29.44486372867091 5.0
    vertex -9.317485623690773 -34.773329746406446 5.0
    vertex -8.799847533485705 -32.841478093828314 5.0
  endloop
endfacet
facet normal -0.0 -0.0 1.0
  outer loop
    vertex -8.799847533485705 -32.841478093828314 5.0
    vertex -9.317485623690773 -34.773329746406446 5.0
    vertex -6.613092715395707e-15 -35.99999999999999 5.0
  endloop
endfacet
facet normal -0.0 -0.0 1.0
  outer loop
    vertex -8.799847533485705 -32.841478093828314 5.0
    vertex -6.613092715395707e-15 -35.99999999999999 5.0
    vertex -3.558033406545295e-15 -33.99999999999999 5.0
  endloop
endfacet
facet normal -0.0 -0.0 1.0
  outer loop
    vertex -3.558033406545295e-15 -33.99999999999999 5.0
    vertex -6.613092715395707e-15 -35.99999999999999 5.0
    vertex 9.317485623690729 -34.77332974640646 5.0
  endloop
endfacet
facet normal -0.0 -0.0 1.0
  outer loop
    vertex -3.558033406545295e-15 -33.99999999999999 5.0
    vertex 9.317485623690729 -34.77332974640646 5.0
    vertex 8.799847533485705 -32.841478093828314 5.0
  endloop
endfacet
facet normal -0.0 -0.0 1.0
  outer loop
    vertex 8.799847533485705 -32.841478093828314 5.0
    vertex 9.317485623690729 -34.77332974640646 5.0
    vertex 16.999999999999993 -29.44486372867091 5.0
  endloop
endfacet
facet normal -0.0 -0.0 1.0
  outer loop
    vertex 16.999999999999993 -29.44486372867091 5.0
    vertex 9.317485623690729 -34.77332974640646 5.0
    vertex 17.99999999999997 -31.176914536239803 5.0
  endloop
endfacet
facet normal -0.0 -0.0 1.0
  outer loop
    vertex 16.999999999999993 -29.44486372867091 5.0
    vertex 17.99999999999997 -31.176914536239803 5.0
    vertex 24.041630560342607 -24.04163056034261 5.0
  endloop
endfacet
facet normal -0.0 -0.0 1.0
  outer loop
    vertex 24.041630560342607 -24.04163056034261 5.0
    vertex 17.99999999999997 -31.176914536239803 5.0
    vertex 25.4558441227157 -25.455844122715714 5.0
  endloop
endfacet
facet normal -0.0 -0.0 1.0
  outer loop
    vertex 24.041630560342607 -24.04163056034261 5.0
    vertex 25.4558441227157 -25.455844122715714 5.0
    vertex 29.444863728670903 -16.999999999999993 5.0
  endloop
endfacet
facet normal -0.0 -0.0 1.0
  outer loop
    vertex 29.444863728670903 -16.999999999999993 5.0
    vertex 25.4558441227157 -25.455844122715714 5.0
    vertex 31.176914536239778 -18.000000000000014 5.0
  endloop
endfacet
facet normal -0.0 -0.0 1.0
  outer loop
    vertex 29.444863728670903 -16.999999999999993 5.0
    vertex 31.176914536239778 -18.000000000000014 5.0
    vertex 32.84147809382831 -8.799847533485703 5.0
  endloop
endfacet
facet normal -0.0 -0.0 1.0
  outer loop
    vertex 32.84147809382831 -8.799847533485703 5.0
    vertex 31.176914536239778 -18.000000000000014 5.0
    vertex 34.773329746406446 -9.317485623690777 5.0
  endloop
endfacet
facet normal -0.0 -0.0 1.0
  outer loop
    vertex 32.84147809382831 -8.799847533485703 5.0
    vertex 34.773329746406446 -9.317485623690777 5.0
    vertex 33.999999999999986 0.0 5.0
  endloop
endfacet
facet normal -0.0 -0.0 1.0
  outer loop
    vertex -34.77332974640645 9.317485623690756 5.0
    vertex -32.84147809382833 8.799847533485691 5.0
    vertex -31.17691453623978 18.00000000000001 5.0
  endloop
endfacet
facet normal -0.0 -0.0 1.0
  outer loop
    vertex -32.84147809382833 8.799847533485691 5.0
    vertex -34.77332974640645 9.317485623690756 5.0
    vertex -34.0 -4.1637991171010006e-15 5.0
  endloop
endfacet
facet normal -0.0 -0.0 1.0
  outer loop
    vertex -31.17691453623978 18.00000000000001 5.0
    vertex -32.84147809382833 8.799847533485691 5.0
    vertex -29.44486372867092 16.99999999999999 5.0
  endloop
endfacet
facet normal -0.0 -0.0 1.0
  outer loop
    vertex -31.17691453623978 18.00000000000001 5.0
    vertex -29.44486372867092 16.99999999999999 5.0
    vertex -25.455844122715707 25.455844122715714 5.0
  endloop
endfacet
facet normal -0.0 -0.0 1.0
  outer loop
    vertex -25.455844122715707 25.455844122715714 5.0
    vertex -29.44486372867092 16.99999999999999 5.0
    vertex -24.041630560342632 24.041630560342597 5.0
  endloop
endfacet
facet normal -0.0 -0.0 1.0
  outer loop
    vertex -25.455844122715707 25.455844122715714 5.0
    vertex -24.041630560342632 24.041630560342597 5.0
    vertex -17.99999999999999 31.17691453623979 5.0
  endloop
endfacet
facet normal -0.0 -0.0 1.0
  outer loop
    vertex -17.99999999999999 31.17691453623979 5.0
    vertex -24.041630560342632 24.041630560342597 5.0
    vertex -17.000000000000018 29.4448637286709 5.0
  endloop
endfacet
facet normal -0.0 -0.0 1.0
  outer loop
    vertex -17.99999999999999 31.17691453623979 5.0
    vertex -17.000000000000018 29.4448637286709 5.0
    vertex -9.317485623690741 34.77332974640645 5.0
  endloop
endfacet
facet normal -0.0 -0.0 1.0
  outer loop
    vertex -9.317485623690741 34.77332974640645 5.0
    vertex -17.000000000000018 29.4448637286709 5.0
    vertex -8.799847533485735 32.84147809382831 5.0
  endloop
endfacet
facet normal -0.0 -0.0 1.0
  outer loop
    vertex -9.317485623690741 34.77332974640645 5.0
    vertex -8.799847533485735 32.84147809382831 5.0
    vertex 2.204364238465236e-15 35.99999999999999 5.0
  endloop
endfacet
facet normal -0.0 -0.0 1.0
  outer loop
    vertex 2.204364238465236e-15 35.99999999999999 5.0
    vertex -8.799847533485735 32.84147809382831 5.0
    vertex -1.1885631640747294e-14 33.99999999999999 5.0
  endloop
endfacet
facet normal -0.0 -0.0 1.0
  outer loop
    vertex 2.204364238465236e-15 35.99999999999999 5.0
    vertex -1.1885631640747294e-14 33.99999999999999 5.0
    vertex 8.799847533485682 32.84147809382832 5.0
  endloop
endfacet
facet normal -0.0 -0.0 1.0
  outer loop
    vertex 2.204364238465236e-15 35.99999999999999 5.0
    vertex 8.799847533485682 32.84147809382832 5.0
    vertex 9.317485623690754 34.77332974640645 5.0
  endloop
endfacet
facet normal -0.0 -0.0 1.0
  outer loop
    vertex 9.317485623690754 34.77332974640645 5.0
    vertex 8.799847533485682 32.84147809382832 5.0
    vertex 16.999999999999964 29.44486372867092 5.0
  endloop
endfacet
facet normal -0.0 -0.0 1.0
  outer loop
    vertex 9.317485623690754 34.77332974640645 5.0
    vertex 16.999999999999964 29.44486372867092 5.0
    vertex 18.0 31.17691453623979 5.0
  endloop
endfacet
facet normal -0.0 -0.0 1.0
  outer loop
    vertex 18.0 31.17691453623979 5.0
    vertex 16.999999999999964 29.44486372867092 5.0
    vertex 24.0416305603426 24.041630560342618 5.0
  endloop
endfacet
facet normal -0.0 -0.0 1.0
  outer loop
    vertex 18.0 31.17691453623979 5.0
    vertex 24.0416305603426 24.041630560342618 5.0
    vertex 25.455844122715714 25.455844122715707 5.0
  endloop
endfacet
facet normal -0.0 -0.0 1.0
  outer loop
    vertex 25.455844122715714 25.455844122715707 5.0
    vertex 24.0416305603426 24.041630560342618 5.0
    vertex 29.444863728670892 17.00000000000001 5.0
  endloop
endfacet
facet normal -0.0 -0.0 1.0
  outer loop
    vertex 25.455844122715714 25.455844122715707 5.0
    vertex 29.444863728670892 17.00000000000001 5.0
    vertex 31.17691453623979 17.999999999999996 5.0
  endloop
endfacet
facet normal -0.0 -0.0 1.0
  outer loop
    vertex 31.17691453623979 17.999999999999996 5.0
    vertex 29.444863728670892 17.00000000000001 5.0
    vertex 32.8414780938283 8.799847533485732 5.0
  endloop
endfacet
facet normal -0.0 -0.0 1.0
  outer loop
    vertex 31.17691453623979 17.999999999999996 5.0
    vertex 32.8414780938283 8.799847533485732 5.0
    vertex 34.77332974640645 9.317485623690745 5.0
  endloop
endfacet
facet normal -0.0 -0.0 1.0
  outer loop
    vertex 34.77332974640645 9.317485623690745 5.0
    vertex 32.8414780938283 8.799847533485732 5.0
    vertex 33.999999999999986 0.0 5.0
  endloop
endfacet
facet normal -0.0 -0.0 1.0
  outer loop
    vertex 34.77332974640645 9.317485623690745 5.0
    vertex 33.999999999999986 0.0 5.0
    vertex 34.773329746406446 -9.317485623690777 5.0
  endloop
endfacet
facet normal -0.0 -0.0 1.0
  outer loop
    vertex 34.77332974640645 9.317485623690745 5.0
    vertex 34.773329746406446 -9.317485623690777 5.0
    vertex 35.99999999999999 0.0 5.0
  endloop
endfacet
facet normal -0.38268343236508984 0.9238795325112867 0.0
  outer loop
    vertex -17.99999999999999 31.17691453623979 5.0
    vertex -9.317485623690741 34.77332974640645 0.0
    vertex -17.99999999999999 31.17691453623979 0.0
  endloop
endfacet
facet normal -0.38268343236508984 0.9238795325112867 0.0
  outer loop
    vertex -9.317485623690741 34.77332974640645 0.0
    vertex -17.99999999999999 31.17691453623979 5.0
    vertex -9.317485623690741 34.77332974640645 5.0
  endloop
endfacet
facet normal -0.1305261922200518 0.9914448613738105 0.0
  outer loop
    vertex -9.317485623690741 34.77332974640645 5.0
    vertex 2.204364238465236e-15 35.99999999999999 0.0
    vertex -9.317485623690741 34.77332974640645 0.0
  endloop
endfacet
facet normal -0.1305261922200518 0.9914448613738105 0.0
  outer loop
    vertex 2.204364238465236e-15 35.99999999999999 0.0
    vertex -9.317485623690741 34.77332974640645 5.0
    vertex 2.204364238465236e-15 35.99999999999999 5.0
  endloop
endfacet
facet normal 0.1305261922200517 0.9914448613738105 0.0
  outer loop
    vertex 2.204364238465236e-15 35.99999999999999 5.0
    vertex 9.317485623690754 34.77332974640645 0.0
    vertex 2.204364238465236e-15 35.99999999999999 0.0
  endloop
endfacet
facet normal 0.1305261922200517 0.9914448613738105 0.0
  outer loop
    vertex 9.317485623690754 34.77332974640645 0.0
    vertex 2.204364238465236e-15 35.99999999999999 5.0
    vertex 9.317485623690754 34.77332974640645 5.0
  endloop
endfacet
facet normal 0.38268343236508984 0.9238795325112867 0.0
  outer loop
    vertex 9.317485623690754 34.77332974640645 5.0
    vertex 18.0 31.17691453623979 0.0
    vertex 9.317485623690754 34.77332974640645 0.0
  endloop
endfacet
facet normal 0.38268343236508984 0.9238795325112867 0.0
  outer loop
    vertex 18.0 31.17691453623979 0.0
    vertex 9.317485623690754 34.77332974640645 5.0
    vertex 18.0 31.17691453623979 5.0
  endloop
endfacet
facet normal 0.6087614290087207 0.793353340291235 0.0
  outer loop
    vertex 18.0 31.17691453623979 5.0
    vertex 25.455844122715714 25.455844122715707 0.0
    vertex 18.0 31.17691453623979 0.0
  endloop
endfacet
facet normal 0.6087614290087207 0.793353340291235 0.0
  outer loop
    vertex 25.455844122715714 25.455844122715707 0.0
    vertex 18.0 31.17691453623979 5.0
    vertex 25.455844122715714 25.455844122715707 5.0
  endloop
endfacet
facet normal 0.7933533402912355 0.6087614290087203 0.0
  outer loop
    vertex 25.455844122715714 25.455844122715707 0.0
    vertex 31.17691453623979 17.999999999999996 5.0
    vertex 31.17691453623979 17.999999999999996 0.0
  endloop
endfacet
facet normal 0.7933533402912355 0.6087614290087203 0.0
  outer loop
    vertex 31.17691453623979 17.999999999999996 5.0
    vertex 25.455844122715714 25.455844122715707 0.0
    vertex 25.455844122715714 25.455844122715707 5.0
  endloop
endfacet
facet normal 0.9238795325112868 0.3826834323650897 0.0
  outer loop
    vertex 31.17691453623979 17.999999999999996 0.0
    vertex 34.77332974640645 9.317485623690745 5.0
    vertex 34.77332974640645 9.317485623690745 0.0
  endloop
endfacet
facet normal 0.9238795325112868 0.3826834323650897 0.0
  outer loop
    vertex 34.77332974640645 9.317485623690745 5.0
    vertex 31.17691453623979 17.999999999999996 0.0
    vertex 31.17691453623979 17.999999999999996 5.0
  endloop
endfacet
facet normal 0.9914448613738105 0.1305261922200518 0.0
  outer loop
    vertex 34.77332974640645 9.317485623690745 0.0
    vertex 35.99999999999999 0.0 5.0
    vertex 35.99999999999999 0.0 0.0
  endloop
endfacet
facet normal 0.9914448613738105 0.1305261922200518 0.0
  outer loop
    vertex 35.99999999999999 0.0 5.0
    vertex 34.77332974640645 9.317485623690745 0.0
    vertex 34.77332974640645 9.317485623690745 5.0
  endloop
endfacet
facet normal 0.9914448613738104 -0.13052619222005193 0.0
  outer loop
    vertex 35.99999999999999 0.0 0.0
    vertex 34.773329746406446 -9.317485623690777 5.0
    vertex 34.773329746406446 -9.317485623690777 0.0
  endloop
endfacet
facet normal 0.9914448613738104 -0.13052619222005193 0.0
  outer loop
    vertex 34.773329746406446 -9.317485623690777 5.0
    vertex 35.99999999999999 0.0 0.0
    vertex 35.99999999999999 0.0 5.0
  endloop
endfacet
facet normal 0.9238795325112864 -0.38268343236509067 0.0
  outer loop
    vertex 34.773329746406446 -9.317485623690777 0.0
    vertex 31.176914536239778 -18.000000000000014 5.0
    vertex 31.176914536239778 -18.000000000000014 0.0
  endloop
endfacet
facet normal 0.9238795325112864 -0.38268343236509067 0.0
  outer loop
    vertex 31.176914536239778 -18.000000000000014 5.0
    vertex 34.773329746406446 -9.317485623690777 0.0
    vertex 34.773329746406446 -9.317485623690777 5.0
  endloop
endfacet
facet normal 0.7933533402912349 -0.608761429008721 0.0
  outer loop
    vertex 31.176914536239778 -18.000000000000014 0.0
    vertex 25.4558441227157 -25.455844122715714 5.0
    vertex 25.4558441227157 -25.455844122715714 0.0
  endloop
endfacet
facet normal 0.7933533402912349 -0.608761429008721 0.0
  outer loop
    vertex 25.4558441227157 -25.455844122715714 5.0
    vertex 31.176914536239778 -18.000000000000014 0.0
    vertex 31.176914536239778 -18.000000000000014 5.0
  endloop
endfacet
facet normal 0.6087614290087205 -0.7933533402912353 0.0
  outer loop
    vertex 25.4558441227157 -25.455844122715714 5.0
    vertex 17.99999999999997 -31.176914536239803 0.0
    vertex 25.4558441227157 -25.455844122715714 0.0
  endloop
endfacet
facet normal 0.6087614290087205 -0.7933533402912353 0.0
  outer loop
    vertex 17.99999999999997 -31.176914536239803 0.0
    vertex 25.4558441227157 -25.455844122715714 5.0
    vertex 17.99999999999997 -31.176914536239803 5.0
  endloop
endfacet
facet normal 0.38268343236508895 -0.9238795325112871 0.0
  outer loop
    vertex 17.99999999999997 -31.176914536239803 5.0
    vertex 9.317485623690729 -34.77332974640646 0.0
    vertex 17.99999999999997 -31.176914536239803 0.0
  endloop
endfacet
facet normal 0.38268343236508895 -0.9238795325112871 0.0
  outer loop
    vertex 9.317485623690729 -34.77332974640646 0.0
    vertex 17.99999999999997 -31.176914536239803 5.0
    vertex 9.317485623690729 -34.77332974640646 5.0
  endloop
endfacet
facet normal 0.1305261922200513 -0.9914448613738105 0.0
  outer loop
    vertex 9.317485623690729 -34.77332974640646 5.0
    vertex -6.613092715395707e-15 -35.99999999999999 0.0
    vertex 9.317485623690729 -34.77332974640646 0.0
  endloop
endfacet
facet normal 0.1305261922200513 -0.9914448613738105 0.0
  outer loop
    vertex -6.613092715395707e-15 -35.99999999999999 0.0
    vertex 9.317485623690729 -34.77332974640646 5.0
    vertex -6.613092715395707e-15 -35.99999999999999 5.0
  endloop
endfacet
facet normal -0.13052619222005207 -0.9914448613738104 -0.0
  outer loop
    vertex -6.613092715395707e-15 -35.99999999999999 5.0
    vertex -9.317485623690773 -34.773329746406446 0.0
    vertex -6.613092715395707e-15 -35.99999999999999 0.0
  endloop
endfacet
facet normal -0.13052619222005207 -0.9914448613738104 -0.0
  outer loop
    vertex -9.317485623690773 -34.773329746406446 0.0
    vertex -6.613092715395707e-15 -35.99999999999999 5.0
    vertex -9.317485623690773 -34.773329746406446 5.0
  endloop
endfacet
facet normal -0.38268343236509067 -0.9238795325112866 -0.0
  outer loop
    vertex -9.317485623690773 -34.773329746406446 5.0
    vertex -18.000000000000014 -31.176914536239778 0.0
    vertex -9.317485623690773 -34.773329746406446 0.0
  endloop
endfacet
facet normal -0.38268343236509067 -0.9238795325112866 -0.0
  outer loop
    vertex -18.000000000000014 -31.176914536239778 0.0
    vertex -9.317485623690773 -34.773329746406446 5.0
    vertex -18.000000000000014 -31.176914536239778 5.0
  endloop
endfacet
facet normal -0.6087614290087209 -0.793353340291235 -0.0
  outer loop
    vertex -18.000000000000014 -31.176914536239778 5.0
    vertex -25.455844122715725 -25.455844122715696 0.0
    vertex -18.000000000000014 -31.176914536239778 0.0
  endloop
endfacet
facet normal -0.6087614290087209 -0.793353340291235 -0.0
  outer loop
    vertex -25.455844122715725 -25.455844122715696 0.0
    vertex -18.000000000000014 -31.176914536239778 5.0
    vertex -25.455844122715725 -25.455844122715696 5.0
  endloop
endfacet
facet normal -0.7933533402912358 -0.6087614290087201 -0.0
  outer loop
    vertex -31.176914536239792 -17.999999999999986 5.0
    vertex -25.455844122715725 -25.455844122715696 0.0
    vertex -25.455844122715725 -25.455844122715696 5.0
  endloop
endfacet
facet normal -0.7933533402912358 -0.6087614290087201 -0.0
  outer loop
    vertex -25.455844122715725 -25.455844122715696 0.0
    vertex -31.176914536239792 -17.999999999999986 5.0
    vertex -31.176914536239792 -17.999999999999986 0.0
  endloop
endfacet
facet normal -0.9238795325112868 -0.38268343236508956 -0.0
  outer loop
    vertex -34.77332974640646 -9.317485623690732 5.0
    vertex -31.176914536239792 -17.999999999999986 0.0
    vertex -31.176914536239792 -17.999999999999986 5.0
  endloop
endfacet
facet normal -0.9238795325112868 -0.38268343236508956 -0.0
  outer loop
    vertex -31.176914536239792 -17.999999999999986 0.0
    vertex -34.77332974640646 -9.317485623690732 5.0
    vertex -34.77332974640646 -9.317485623690732 0.0
  endloop
endfacet
facet normal -0.9914448613738105 -0.1305261922200513 -0.0
  outer loop
    vertex -35.99999999999999 4.408728476930472e-15 5.0
    vertex -34.77332974640646 -9.317485623690732 0.0
    vertex -34.77332974640646 -9.317485623690732 5.0
  endloop
endfacet
facet normal -0.9914448613738105 -0.1305261922200513 -0.0
  outer loop
    vertex -34.77332974640646 -9.317485623690732 0.0
    vertex -35.99999999999999 4.408728476930472e-15 5.0
    vertex -35.99999999999999 4.408728476930472e-15 0.0
  endloop
endfacet
facet normal -0.9914448613738105 0.13052619222005168 0.0
  outer loop
    vertex -34.77332974640645 9.317485623690756 5.0
    vertex -35.99999999999999 4.408728476930472e-15 0.0
    vertex -35.99999999999999 4.408728476930472e-15 5.0
  endloop
endfacet
facet normal -0.9914448613738105 0.13052619222005168 0.0
  outer loop
    vertex -35.99999999999999 4.408728476930472e-15 0.0
    vertex -34.77332974640645 9.317485623690756 5.0
    vertex -34.77332974640645 9.317485623690756 0.0
  endloop
endfacet
facet normal -0.9238795325112867 0.3826834323650902 0.0
  outer loop
    vertex -31.17691453623978 18.00000000000001 5.0
    vertex -34.77332974640645 9.317485623690756 0.0
    vertex -34.77332974640645 9.317485623690756 5.0
  endloop
endfacet
facet normal -0.9238795325112867 0.3826834323650902 0.0
  outer loop
    vertex -34.77332974640645 9.317485623690756 0.0
    vertex -31.17691453623978 18.00000000000001 5.0
    vertex -31.17691453623978 18.00000000000001 0.0
  endloop
endfacet
facet normal -0.7933533402912352 0.6087614290087208 0.0
  outer loop
    vertex -25.455844122715707 25.455844122715714 5.0
    vertex -31.17691453623978 18.00000000000001 0.0
    vertex -31.17691453623978 18.00000000000001 5.0
  endloop
endfacet
facet normal -0.7933533402912352 0.6087614290087208 0.0
  outer loop
    vertex -31.17691453623978 18.00000000000001 0.0
    vertex -25.455844122715707 25.455844122715714 5.0
    vertex -25.455844122715707 25.455844122715714 0.0
  endloop
endfacet
facet normal -0.60876142900872 0.7933533402912357 0.0
  outer loop
    vertex -25.455844122715707 25.455844122715714 5.0
    vertex -17.99999999999999 31.17691453623979 0.0
    vertex -25.455844122715707 25.455844122715714 0.0
  endloop
endfacet
facet normal -0.60876142900872 0.7933533402912357 0.0
  outer loop
    vertex -17.99999999999999 31.17691453623979 0.0
    vertex -25.455844122715707 25.455844122715714 5.0
    vertex -17.99999999999999 31.17691453623979 5.0
  endloop
endfacet
facet normal 0.0 0.0 1.0
  outer loop
    vertex -32.84147809382832 -8.799847533485714 1.9999999999999998
    vertex -32.84147809382833 8.799847533485691 1.9999999999999998
    vertex -34.0 -4.1637991171010006e-15 1.9999999999999998
  endloop
endfacet
facet normal 0.0 0.0 1.0
  outer loop
    vertex -32.84147809382833 8.799847533485691 1.9999999999999998
    vertex -32.84147809382832 -8.799847533485714 1.9999999999999998
    vertex -29.44486372867092 16.99999999999999 1.9999999999999998
  endloop
endfacet
facet normal 0.0 0.0 1.0
  outer loop
    vertex -29.44486372867092 16.99999999999999 1.9999999999999998
    vertex -32.84147809382832 -8.799847533485714 1.9999999999999998
    vertex -29.44486372867091 -17.000000000000007 1.9999999999999998
  endloop
endfacet
facet normal 0.0 0.0 1.0
  outer loop
    vertex -29.44486372867092 16.99999999999999 1.9999999999999998
    vertex -29.44486372867091 -17.000000000000007 1.9999999999999998
    vertex -24.041630560342632 24.041630560342597 1.9999999999999998
  endloop
endfacet
facet normal 0.0 0.0 1.0
  outer loop
    vertex -24.041630560342632 24.041630560342597 1.9999999999999998
    vertex -29.44486372867091 -17.000000000000007 1.9999999999999998
    vertex -24.041630560342618 -24.041630560342615 1.9999999999999998
  endloop
endfacet
facet normal 0.0 0.0 1.0
  outer loop
    vertex -24.041630560342632 24.041630560342597 1.9999999999999998
    vertex -24.041630560342618 -24.041630560342615 1.9999999999999998
    vertex -17.000000000000018 29.4448637286709 1.9999999999999998
  endloop
endfacet
facet normal 0.0 0.0 1.0
  outer loop
    vertex -17.000000000000018 29.4448637286709 1.9999999999999998
    vertex -24.041630560342618 -24.041630560342615 1.9999999999999998
    vertex -16.999999999999993 -29.44486372867091 1.9999999999999998
  endloop
endfacet
facet normal 0.0 0.0 1.0
  outer loop
    vertex -17.000000000000018 29.4448637286709 1.9999999999999998
    vertex -16.999999999999993 -29.44486372867091 1.9999999999999998
    vertex -8.799847533485735 32.84147809382831 1.9999999999999998
  endloop
endfacet
facet normal 0.0 0.0 1.0
  outer loop
    vertex -8.799847533485735 32.84147809382831 1.9999999999999998
    vertex -16.999999999999993 -29.44486372867091 1.9999999999999998
    vertex -8.799847533485705 -32.841478093828314 1.9999999999999998
  endloop
endfacet
facet normal 0.0 0.0 1.0
  outer loop
    vertex -8.799847533485735 32.84147809382831 1.9999999999999998
    vertex -8.799847533485705 -32.841478093828314 1.9999999999999998
    vertex -1.1885631640747294e-14 33.99999999999999 1.9999999999999998
  endloop
endfacet
facet normal 0.0 0.0 1.0
  outer loop
    vertex -1.1885631640747294e-14 33.99999999999999 1.9999999999999998
    vertex -8.799847533485705 -32.841478093828314 1.9999999999999998
    vertex -3.558033406545295e-15 -33.99999999999999 1.9999999999999998
  endloop
endfacet
facet normal 0.0 0.0 1.0
  outer loop
    vertex -1.1885631640747294e-14 33.99999999999999 1.9999999999999998
    vertex -3.558033406545295e-15 -33.99999999999999 1.9999999999999998
    vertex 8.799847533485682 32.84147809382832 1.9999999999999998
  endloop
endfacet
facet normal 0.0 0.0 1.0
  outer loop
    vertex 8.799847533485682 32.84147809382832 1.9999999999999998
    vertex -3.558033406545295e-15 -33.99999999999999 1.9999999999999998
    vertex 8.799847533485705 -32.841478093828314 1.9999999999999998
  endloop
endfacet
facet normal 0.0 0.0 1.0
  outer loop
    vertex 8.799847533485682 32.84147809382832 1.9999999999999998
    vertex 8.799847533485705 -32.841478093828314 1.9999999999999998
    vertex 16.999999999999964 29.44486372867092 1.9999999999999998
  endloop
endfacet
facet normal 0.0 0.0 1.0
  outer loop
    vertex 16.999999999999964 29.44486372867092 1.9999999999999998
    vertex 8.799847533485705 -32.841478093828314 1.9999999999999998
    vertex 16.999999999999993 -29.44486372867091 1.9999999999999998
  endloop
endfacet
facet normal 0.0 0.0 1.0
  outer loop
    vertex 16.999999999999964 29.44486372867092 1.9999999999999998
    vertex 16.999999999999993 -29.44486372867091 1.9999999999999998
    vertex 24.0416305603426 24.041630560342618 1.9999999999999998
  endloop
endfacet
facet normal 0.0 0.0 1.0
  outer loop
    vertex 24.0416305603426 24.041630560342618 1.9999999999999998
    vertex 16.999999999999993 -29.44486372867091 1.9999999999999998
    vertex 24.041630560342607 -24.04163056034261 1.9999999999999998
  endloop
endfacet
facet normal 0.0 0.0 1.0
  outer loop
    vertex 24.0416305603426 24.041630560342618 1.9999999999999998
    vertex 24.041630560342607 -24.04163056034261 1.9999999999999998
    vertex 29.444863728670892 17.00000000000001 1.9999999999999998
  endloop
endfacet
facet normal 0.0 0.0 1.0
  outer loop
    vertex 29.444863728670892 17.00000000000001 1.9999999999999998
    vertex 24.041630560342607 -24.04163056034261 1.9999999999999998
    vertex 29.444863728670903 -16.999999999999993 1.9999999999999998
  endloop
endfacet
facet normal 0.0 0.0 1.0
  outer loop
    vertex 29.444863728670892 17.00000000000001 1.9999999999999998
    vertex 29.444863728670903 -16.999999999999993 1.9999999999999998
    vertex 32.8414780938283 8.799847533485732 1.9999999999999998
  endloop
endfacet
facet normal 0.0 0.0 1.0
  outer loop
    vertex 32.8414780938283 8.799847533485732 1.9999999999999998
    vertex 29.444863728670903 -16.999999999999993 1.9999999999999998
    vertex 32.84147809382831 -8.799847533485703 1.9999999999999998
  endloop
endfacet
facet normal 0.0 0.0 1.0
  outer loop
    vertex 32.8414780938283 8.799847533485732 1.9999999999999998
    vertex 32.84147809382831 -8.799847533485703 1.9999999999999998
    vertex 33.999999999999986 0.0 1.9999999999999998
  endloop
endfacet
facet normal -0.9914448613738105 0.1305261922200518 -0.0
  outer loop
    vertex 33.999999999999986 0.0 5.0
    vertex 32.84147809382831 -8.799847533485703 1.9999999999999998
    vertex 32.84147809382831 -8.799847533485703 5.0
  endloop
endfacet
facet normal -0.9914448613738105 0.1305261922200518 -0.0
  outer loop
    vertex 32.84147809382831 -8.799847533485703 1.9999999999999998
    vertex 33.999999999999986 0.0 5.0
    vertex 33.999999999999986 0.0 1.9999999999999998
  endloop
endfacet
facet normal -0.9914448613738104 -0.130526192220052 -0.0
  outer loop
    vertex 32.8414780938283 8.799847533485732 5.0
    vertex 33.999999999999986 0.0 1.9999999999999998
    vertex 33.999999999999986 0.0 5.0
  endloop
endfacet
facet normal -0.9914448613738104 -0.130526192220052 -0.0
  outer loop
    vertex 33.999999999999986 0.0 1.9999999999999998
    vertex 32.8414780938283 8.799847533485732 5.0
    vertex 32.8414780938283 8.799847533485732 1.9999999999999998
  endloop
endfacet
facet normal -0.9238795325112865 -0.3826834323650907 -0.0
  outer loop
    vertex 29.444863728670892 17.00000000000001 5.0
    vertex 32.8414780938283 8.799847533485732 1.9999999999999998
    vertex 32.8414780938283 8.799847533485732 5.0
  endloop
endfacet
facet normal -0.9238795325112865 -0.3826834323650907 -0.0
  outer loop
    vertex 32.8414780938283 8.799847533485732 1.9999999999999998
    vertex 29.444863728670892 17.00000000000001 5.0
    vertex 29.444863728670892 17.00000000000001 1.9999999999999998
  endloop
endfacet
facet normal -0.793353340291235 -0.6087614290087209 -0.0
  outer loop
    vertex 24.0416305603426 24.041630560342618 5.0
    vertex 29.444863728670892 17.00000000000001 1.9999999999999998
    vertex 29.444863728670892 17.00000000000001 5.0
  endloop
endfacet
facet normal -0.793353340291235 -0.6087614290087209 -0.0
  outer loop
    vertex 29.444863728670892 17.00000000000001 1.9999999999999998
    vertex 24.0416305603426 24.041630560342618 5.0
    vertex 24.0416305603426 24.041630560342618 1.9999999999999998
  endloop
endfacet
facet normal -0.6087614290087201 -0.7933533402912357 -0.0
  outer loop
    vertex 24.0416305603426 24.041630560342618 5.0
    vertex 16.999999999999964 29.44486372867092 1.9999999999999998
    vertex 24.0416305603426 24.041630560342618 1.9999999999999998
  endloop
endfacet
facet normal -0.6087614290087201 -0.7933533402912357 -0.0
  outer loop
    vertex 16.999999999999964 29.44486372867092 1.9999999999999998
    vertex 24.0416305603426 24.041630560342618 5.0
    vertex 16.999999999999964 29.44486372867092 5.0
  endloop
endfacet
facet normal -0.38268343236508945 -0.923879532511287 -0.0
  outer loop
    vertex 16.999999999999964 29.44486372867092 5.0
    vertex 8.799847533485682 32.84147809382832 1.9999999999999998
    vertex 16.999999999999964 29.44486372867092 1.9999999999999998
  endloop
endfacet
facet normal -0.38268343236508945 -0.923879532511287 -0.0
  outer loop
    vertex 8.799847533485682 32.84147809382832 1.9999999999999998
    vertex 16.999999999999964 29.44486372867092 5.0
    vertex 8.799847533485682 32.84147809382832 5.0
  endloop
endfacet
facet normal -0.1305261922200513 -0.9914448613738105 -0.0
  outer loop
    vertex 8.799847533485682 32.84147809382832 5.0
    vertex -1.1885631640747294e-14 33.99999999999999 1.9999999999999998
    vertex 8.799847533485682 32.84147809382832 1.9999999999999998
  endloop
endfacet
facet normal -0.1305261922200513 -0.9914448613738105 -0.0
  outer loop
    vertex -1.1885631640747294e-14 33.99999999999999 1.9999999999999998
    vertex 8.799847533485682 32.84147809382832 5.0
    vertex -1.1885631640747294e-14 33.99999999999999 5.0
  endloop
endfacet
facet normal 0.1305261922200521 -0.9914448613738104 -0.0
  outer loop
    vertex -1.1885631640747294e-14 33.99999999999999 5.0
    vertex -8.799847533485735 32.84147809382831 1.9999999999999998
    vertex -1.1885631640747294e-14 33.99999999999999 1.9999999999999998
  endloop
endfacet
facet normal 0.1305261922200521 -0.9914448613738104 -0.0
  outer loop
    vertex -8.799847533485735 32.84147809382831 1.9999999999999998
    vertex -1.1885631640747294e-14 33.99999999999999 5.0
    vertex -8.799847533485735 32.84147809382831 5.0
  endloop
endfacet
facet normal 0.3826834323650906 -0.9238795325112864 -0.0
  outer loop
    vertex -8.799847533485735 32.84147809382831 5.0
    vertex -17.000000000000018 29.4448637286709 1.9999999999999998
    vertex -8.799847533485735 32.84147809382831 1.9999999999999998
  endloop
endfacet
facet normal 0.3826834323650906 -0.9238795325112864 -0.0
  outer loop
    vertex -17.000000000000018 29.4448637286709 1.9999999999999998
    vertex -8.799847533485735 32.84147809382831 5.0
    vertex -17.000000000000018 29.4448637286709 5.0
  endloop
endfacet
facet normal 0.608761429008721 -0.7933533402912349 -0.0
  outer loop
    vertex -17.000000000000018 29.4448637286709 5.0
    vertex -24.041630560342632 24.041630560342597 1.9999999999999998
    vertex -17.000000000000018 29.4448637286709 1.9999999999999998
  endloop
endfacet
facet normal 0.608761429008721 -0.7933533402912349 -0.0
  outer loop
    vertex -24.041630560342632 24.041630560342597 1.9999999999999998
    vertex -17.000000000000018 29.4448637286709 5.0
    vertex -24.041630560342632 24.041630560342597 5.0
  endloop
endfacet
facet normal 0.7933533402912354 -0.6087614290087205 -0.0
  outer loop
    vertex -24.041630560342632 24.041630560342597 1.9999999999999998
    vertex -29.44486372867092 16.99999999999999 5.0
    vertex -29.44486372867092 16.99999999999999 1.9999999999999998
  endloop
endfacet
facet normal 0.7933533402912354 -0.6087614290087205 -0.0
  outer loop
    vertex -29.44486372867092 16.99999999999999 5.0
    vertex -24.041630560342632 24.041630560342597 1.9999999999999998
    vertex -24.041630560342632 24.041630560342597 5.0
  endloop
endfacet
facet normal 0.9238795325112871 -0.38268343236508945 -0.0
  outer loop
    vertex -29.44486372867092 16.99999999999999 1.9999999999999998
    vertex -32.84147809382833 8.799847533485691 5.0
    vertex -32.84147809382833 8.799847533485691 1.9999999999999998
  endloop
endfacet
facet normal 0.9238795325112871 -0.38268343236508945 -0.0
  outer loop
    vertex -32.84147809382833 8.799847533485691 5.0
    vertex -29.44486372867092 16.99999999999999 1.9999999999999998
    vertex -29.44486372867092 16.99999999999999 5.0
  endloop
endfacet
facet normal 0.9914448613738105 -0.1305261922200513 -0.0
  outer loop
    vertex -32.84147809382833 8.799847533485691 1.9999999999999998
    vertex -34.0 -4.1637991171010006e-15 5.0
    vertex -34.0 -4.1637991171010006e-15 1.9999999999999998
  endloop
endfacet
facet normal 0.9914448613738105 -0.1305261922200513 -0.0
  outer loop
    vertex -34.0 -4.1637991171010006e-15 5.0
    vertex -32.84147809382833 8.799847533485691 1.9999999999999998
    vertex -32.84147809382833 8.799847533485691 5.0
  endloop
endfacet
facet normal 0.9914448613738105 0.1305261922200517 0.0
  outer loop
    vertex -34.0 -4.1637991171010006e-15 1.9999999999999998
    vertex -32.84147809382832 -8.799847533485714 5.0
    vertex -32.84147809382832 -8.799847533485714 1.9999999999999998
  endloop
endfacet
facet normal 0.9914448613738105 0.1305261922200517 0.0
  outer loop
    vertex -32.84147809382832 -8.799847533485714 5.0
    vertex -34.0 -4.1637991171010006e-15 1.9999999999999998
    vertex -34.0 -4.1637991171010006e-15 5.0
  endloop
endfacet
facet normal 0.9238795325112867 0.3826834323650901 0.0
  outer loop
    vertex -32.84147809382832 -8.799847533485714 1.9999999999999998
    vertex -29.44486372867091 -17.000000000000007 5.0
    vertex -29.44486372867091 -17.000000000000007 1.9999999999999998
  endloop
endfacet
facet normal 0.9238795325112867 0.3826834323650901 0.0
  outer loop
    vertex -29.44486372867091 -17.000000000000007 5.0
    vertex -32.84147809382832 -8.799847533485714 1.9999999999999998
    vertex -32.84147809382832 -8.799847533485714 5.0
  endloop
endfacet
facet normal 0.793353340291235 0.6087614290087209 0.0
  outer loop
    vertex -29.44486372867091 -17.000000000000007 1.9999999999999998
    vertex -24.041630560342618 -24.041630560342615 5.0
    vertex -24.041630560342618 -24.041630560342615 1.9999999999999998
  endloop
endfacet
facet normal 0.793353340291235 0.6087614290087209 0.0
  outer loop
    vertex -24.041630560342618 -24.041630560342615 5.0
    vertex -29.44486372867091 -17.000000000000007 1.9999999999999998
    vertex -29.44486372867091 -17.000000000000007 5.0
  endloop
endfacet
facet normal 0.6087614290087201 0.7933533402912357 0.0
  outer loop
    vertex -24.041630560342618 -24.041630560342615 5.0
    vertex -16.999999999999993 -29.44486372867091 1.9999999999999998
    vertex -24.041630560342618 -24.041630560342615 1.9999999999999998
  endloop
endfacet
facet normal 0.6087614290087201 0.7933533402912357 0.0
  outer loop
    vertex -16.999999999999993 -29.44486372867091 1.9999999999999998
    vertex -24.041630560342618 -24.041630560342615 5.0
    vertex -16.999999999999993 -29.44486372867091 5.0
  endloop
endfacet
facet normal 0.3826834323650897 0.9238795325112867 0.0
  outer loop
    vertex -16.999999999999993 -29.44486372867091 5.0
    vertex -8.799847533485705 -32.841478093828314 1.9999999999999998
    vertex -16.999999999999993 -29.44486372867091 1.9999999999999998
  endloop
endfacet
facet normal 0.3826834323650897 0.9238795325112867 0.0
  outer loop
    vertex -8.799847533485705 -32.841478093828314 1.9999999999999998
    vertex -16.999999999999993 -29.44486372867091 5.0
    vertex -8.799847533485705 -32.841478093828314 5.0
  endloop
endfacet
facet normal 0.13052619222005182 0.9914448613738105 0.0
  outer loop
    vertex -8.799847533485705 -32.841478093828314 5.0
    vertex -3.558033406545295e-15 -33.99999999999999 1.9999999999999998
    vertex -8.799847533485705 -32.841478093828314 1.9999999999999998
  endloop
endfacet
facet normal 0.13052619222005182 0.9914448613738105 0.0
  outer loop
    vertex -3.558033406545295e-15 -33.99999999999999 1.9999999999999998
    vertex -8.799847533485705 -32.841478093828314 5.0
    vertex -3.558033406545295e-15 -33.99999999999999 5.0
  endloop
endfacet
facet normal -0.1305261922200517 0.9914448613738105 -0.0
  outer loop
    vertex -3.558033406545295e-15 -33.99999999999999 5.0
    vertex 8.799847533485705 -32.841478093828314 1.9999999999999998
    vertex -3.558033406545295e-15 -33.99999999999999 1.9999999999999998
  endloop
endfacet
facet normal -0.1305261922200517 0.9914448613738105 -0.0
  outer loop
    vertex 8.799847533485705 -32.841478093828314 1.9999999999999998
    vertex -3.558033406545295e-15 -33.99999999999999 5.0
    vertex 8.799847533485705 -32.841478093828314 5.0
  endloop
endfacet
facet normal -0.3826834323650897 0.9238795325112867 -0.0
  outer loop
    vertex 8.799847533485705 -32.841478093828314 5.0
    vertex 16.999999999999993 -29.44486372867091 1.9999999999999998
    vertex 8.799847533485705 -32.841478093828314 1.9999999999999998
  endloop
endfacet
facet normal -0.3826834323650897 0.9238795325112867 -0.0
  outer loop
    vertex 16.999999999999993 -29.44486372867091 1.9999999999999998
    vertex 8.799847533485705 -32.841478093828314 5.0
    vertex 16.999999999999993 -29.44486372867091 5.0
  endloop
endfacet
facet normal -0.6087614290087208 0.793353340291235 -0.0
  outer loop
    vertex 16.999999999999993 -29.44486372867091 5.0
    vertex 24.041630560342607 -24.04163056034261 1.9999999999999998
    vertex 16.999999999999993 -29.44486372867091 1.9999999999999998
  endloop
endfacet
facet normal -0.6087614290087208 0.793353340291235 -0.0
  outer loop
    vertex 24.041630560342607 -24.04163056034261 1.9999999999999998
    vertex 16.999999999999993 -29.44486372867091 5.0
    vertex 24.041630560342607 -24.04163056034261 5.0
  endloop
endfacet
facet normal -0.7933533402912354 0.6087614290087204 -0.0
  outer loop
    vertex 29.444863728670903 -16.999999999999993 5.0
    vertex 24.041630560342607 -24.04163056034261 1.9999999999999998
    vertex 24.041630560342607 -24.04163056034261 5.0
  endloop
endfacet
facet normal -0.7933533402912354 0.6087614290087204 -0.0
  outer loop
    vertex 24.041630560342607 -24.04163056034261 1.9999999999999998
    vertex 29.444863728670903 -16.999999999999993 5.0
    vertex 29.444863728670903 -16.999999999999993 1.9999999999999998
  endloop
endfacet
facet normal -0.923879532511287 0.3826834323650898 -0.0
  outer loop
    vertex 32.84147809382831 -8.799847533485703 5.0
    vertex 29.444863728670903 -16.999999999999993 1.9999999999999998
    vertex 29.444863728670903 -16.999999999999993 5.0
  endloop
endfacet
facet normal -0.923879532511287 0.3826834323650898 -0.0
  outer loop
    vertex 29.444863728670903 -16.999999999999993 1.9999999999999998
    vertex 32.84147809382831 -8.799847533485703 5.0
    vertex 32.84147809382831 -8.799847533485703 1.9999999999999998
  endloop
endfacet
endsolid Lid-Stage01
