solid Lid-Stage02
facet normal -0.0 -0.0 1.0
  outer loop
    vertex -34.77332974640647 -9.317485623690734 5.0
    vertex -34.77332974640646 9.317485623690757 5.0
    vertex -36.0 4.408728476930472e-15 5.0
  endloop
endfacet
facet normal -0.0 -0.0 1.0
  outer loop
    vertex -34.77332974640646 9.317485623690757 5.0
    vertex -34.77332974640647 -9.317485623690734 5.0
    vertex -31.1769145362398 -17.99999999999999 5.0
  endloop
endfacet
facet normal -0.0 -0.0 1.0
  outer loop
    vertex -34.77332974640646 9.317485623690757 5.0
    vertex -31.1769145362398 -17.99999999999999 5.0
    vertex -33.5 4.102566777143634e-15 5.0
  endloop
endfacet
facet normal -0.0 -0.0 1.0
  outer loop
    vertex -33.5 4.102566777143634e-15 5.0
    vertex -31.1769145362398 -17.99999999999999 5.0
    vertex -32.358515180683796 -8.670438010934433 5.0
  endloop
endfacet
facet normal -0.0 -0.0 1.0
  outer loop
    vertex -32.358515180683796 -8.670438010934433 5.0
    vertex -31.1769145362398 -17.99999999999999 5.0
    vertex -29.011851026778704 -16.749999999999993 5.0
  endloop
endfacet
facet normal -0.0 -0.0 1.0
  outer loop
    vertex -29.011851026778704 -16.749999999999993 5.0
    vertex -31.1769145362398 -17.99999999999999 5.0
    vertex -25.455844122715725 -25.455844122715696 5.0
  endloop
endfacet
facet normal -0.0 -0.0 1.0
  outer loop
    vertex -29.011851026778704 -16.749999999999993 5.0
    vertex -25.455844122715725 -25.455844122715696 5.0
    vertex -23.688077169749356 -23.68807716974933 5.0
  endloop
endfacet
facet normal -0.0 -0.0 1.0
  outer loop
    vertex -23.688077169749356 -23.68807716974933 5.0
    vertex -25.455844122715725 -25.455844122715696 5.0
    vertex -18.000000000000018 -31.17691453623978 5.0
  endloop
endfacet
facet normal -0.0 -0.0 1.0
  outer loop
    vertex -23.688077169749356 -23.68807716974933 5.0
    vertex -18.000000000000018 -31.17691453623978 5.0
    vertex -16.750000000000014 -29.011851026778686 5.0
  endloop
endfacet
facet normal -0.0 -0.0 1.0
  outer loop
    vertex -16.750000000000014 -29.011851026778686 5.0
    vertex -18.000000000000018 -31.17691453623978 5.0
    vertex -9.317485623690775 -34.77332974640645 5.0
  endloop
endfacet
facet normal -0.0 -0.0 1.0
  outer loop
    vertex -16.750000000000014 -29.011851026778686 5.0
    vertex -9.317485623690775 -34.77332974640645 5.0
    vertex -8.67043801093447 -32.35851518068378 5.0
  endloop
endfacet
facet normal -0.0 -0.0 1.0
  outer loop
    vertex -8.67043801093447 -32.35851518068378 5.0
    vertex -9.317485623690775 -34.77332974640645 5.0
    vertex -6.613092715395707e-15 -36.0 5.0
  endloop
endfacet
facet normal -0.0 -0.0 1.0
  outer loop
    vertex -8.67043801093447 -32.35851518068378 5.0
    vertex -6.613092715395707e-15 -36.0 5.0
    vertex -6.15385016571545e-15 -33.5 5.0
  endloop
endfacet
facet normal -0.0 -0.0 1.0
  outer loop
    vertex -6.15385016571545e-15 -33.5 5.0
    vertex -6.613092715395707e-15 -36.0 5.0
    vertex 9.31748562369073 -34.77332974640647 5.0
  endloop
endfacet
facet normal -0.0 -0.0 1.0
  outer loop
    vertex -6.15385016571545e-15 -33.5 5.0
    vertex 9.31748562369073 -34.77332974640647 5.0
    vertex 8.67043801093443 -32.358515180683796 5.0
  endloop
endfacet
facet normal -0.0 -0.0 1.0
  outer loop
    vertex 8.67043801093443 -32.358515180683796 5.0
    vertex 9.31748562369073 -34.77332974640647 5.0
    vertex 16.749999999999975 -29.01185102677871 5.0
  endloop
endfacet
facet normal -0.0 -0.0 1.0
  outer loop
    vertex 16.749999999999975 -29.01185102677871 5.0
    vertex 9.31748562369073 -34.77332974640647 5.0
    vertex 17.999999999999975 -31.176914536239803 5.0
  endloop
endfacet
facet normal -0.0 -0.0 1.0
  outer loop
    vertex 16.749999999999975 -29.01185102677871 5.0
    vertex 17.999999999999975 -31.176914536239803 5.0
    vertex 23.688077169749338 -23.68807716974935 5.0
  endloop
endfacet
facet normal -0.0 -0.0 1.0
  outer loop
    vertex 23.688077169749338 -23.68807716974935 5.0
    vertex 17.999999999999975 -31.176914536239803 5.0
    vertex 25.455844122715707 -25.455844122715718 5.0
  endloop
endfacet
facet normal -0.0 -0.0 1.0
  outer loop
    vertex 23.688077169749338 -23.68807716974935 5.0
    vertex 25.455844122715707 -25.455844122715718 5.0
    vertex 29.011851026778686 -16.750000000000014 5.0
  endloop
endfacet
facet normal -0.0 -0.0 1.0
  outer loop
    vertex 29.011851026778686 -16.750000000000014 5.0
    vertex 25.455844122715707 -25.455844122715718 5.0
    vertex 31.17691453623978 -18.000000000000018 5.0
  endloop
endfacet
facet normal -0.0 -0.0 1.0
  outer loop
    vertex 29.011851026778686 -16.750000000000014 5.0
    vertex 31.17691453623978 -18.000000000000018 5.0
    vertex 32.35851518068378 -8.670438010934474 5.0
  endloop
endfacet
facet normal -0.0 -0.0 1.0
  outer loop
    vertex 32.35851518068378 -8.670438010934474 5.0
    vertex 31.17691453623978 -18.000000000000018 5.0
    vertex 34.77332974640645 -9.317485623690777 5.0
  endloop
endfacet
facet normal -0.0 -0.0 1.0
  outer loop
    vertex 32.35851518068378 -8.670438010934474 5.0
    vertex 34.77332974640645 -9.317485623690777 5.0
    vertex 33.5 0.0 5.0
  endloop
endfacet
facet normal -0.0 -0.0 1.0
  outer loop
    vertex -33.5 4.102566777143634e-15 5.0
    vertex -31.17691453623979 18.00000000000001 5.0
    vertex -34.77332974640646 9.317485623690757 5.0
  endloop
endfacet
facet normal -0.0 -0.0 1.0
  outer loop
    vertex -31.17691453623979 18.00000000000001 5.0
    vertex -33.5 4.102566777143634e-15 5.0
    vertex -32.35851518068378 8.670438010934454 5.0
  endloop
endfacet
facet normal -0.0 -0.0 1.0
  outer loop
    vertex -31.17691453623979 18.00000000000001 5.0
    vertex -32.35851518068378 8.670438010934454 5.0
    vertex -29.011851026778693 16.75000000000001 5.0
  endloop
endfacet
facet normal -0.0 -0.0 1.0
  outer loop
    vertex -31.17691453623979 18.00000000000001 5.0
    vertex -29.011851026778693 16.75000000000001 5.0
    vertex -25.455844122715714 25.455844122715714 5.0
  endloop
endfacet
facet normal -0.0 -0.0 1.0
  outer loop
    vertex -25.455844122715714 25.455844122715714 5.0
    vertex -29.011851026778693 16.75000000000001 5.0
    vertex -23.688077169749338 23.688077169749345 5.0
  endloop
endfacet
facet normal -0.0 -0.0 1.0
  outer loop
    vertex -25.455844122715714 25.455844122715714 5.0
    vertex -23.688077169749338 23.688077169749345 5.0
    vertex -17.999999999999993 31.176914536239792 5.0
  endloop
endfacet
facet normal -0.0 -0.0 1.0
  outer loop
    vertex -17.999999999999993 31.176914536239792 5.0
    vertex -23.688077169749338 23.688077169749345 5.0
    vertex -16.749999999999993 29.011851026778697 5.0
  endloop
endfacet
facet normal -0.0 -0.0 1.0
  outer loop
    vertex -17.999999999999993 31.176914536239792 5.0
    vertex -16.749999999999993 29.011851026778697 5.0
    vertex -9.317485623690743 34.77332974640646 5.0
  endloop
endfacet
facet normal -0.0 -0.0 1.0
  outer loop
    vertex -9.317485623690743 34.77332974640646 5.0
    vertex -16.749999999999993 29.011851026778697 5.0
    vertex -8.670438010934442 32.35851518068379 5.0
  endloop
endfacet
facet normal -0.0 -0.0 1.0
  outer loop
    vertex -9.317485623690743 34.77332974640646 5.0
    vertex -8.670438010934442 32.35851518068379 5.0
    vertex 2.204364238465236e-15 36.0 5.0
  endloop
endfacet
facet normal -0.0 -0.0 1.0
  outer loop
    vertex 2.204364238465236e-15 36.0 5.0
    vertex -8.670438010934442 32.35851518068379 5.0
    vertex 2.051283388571817e-15 33.5 5.0
  endloop
endfacet
facet normal -0.0 -0.0 1.0
  outer loop
    vertex 2.204364238465236e-15 36.0 5.0
    vertex 2.051283388571817e-15 33.5 5.0
    vertex 8.670438010934452 32.35851518068378 5.0
  endloop
endfacet
facet normal -0.0 -0.0 1.0
  outer loop
    vertex 2.204364238465236e-15 36.0 5.0
    vertex 8.670438010934452 32.35851518068378 5.0
    vertex 9.317485623690756 34.77332974640646 5.0
  endloop
endfacet
facet normal -0.0 -0.0 1.0
  outer loop
    vertex 9.317485623690756 34.77332974640646 5.0
    vertex 8.670438010934452 32.35851518068378 5.0
    vertex 16.750000000000004 29.011851026778693 5.0
  endloop
endfacet
facet normal -0.0 -0.0 1.0
  outer loop
    vertex 9.317485623690756 34.77332974640646 5.0
    vertex 16.750000000000004 29.011851026778693 5.0
    vertex 18.000000000000004 31.176914536239792 5.0
  endloop
endfacet
facet normal -0.0 -0.0 1.0
  outer loop
    vertex 18.000000000000004 31.176914536239792 5.0
    vertex 16.750000000000004 29.011851026778693 5.0
    vertex 23.688077169749345 23.688077169749338 5.0
  endloop
endfacet
facet normal -0.0 -0.0 1.0
  outer loop
    vertex 18.000000000000004 31.176914536239792 5.0
    vertex 23.688077169749345 23.688077169749338 5.0
    vertex 25.455844122715714 25.455844122715714 5.0
  endloop
endfacet
facet normal -0.0 -0.0 1.0
  outer loop
    vertex 25.455844122715714 25.455844122715714 5.0
    vertex 23.688077169749345 23.688077169749338 5.0
    vertex 29.011851026778697 16.749999999999996 5.0
  endloop
endfacet
facet normal -0.0 -0.0 1.0
  outer loop
    vertex 25.455844122715714 25.455844122715714 5.0
    vertex 29.011851026778697 16.749999999999996 5.0
    vertex 31.176914536239792 17.999999999999996 5.0
  endloop
endfacet
facet normal -0.0 -0.0 1.0
  outer loop
    vertex 31.176914536239792 17.999999999999996 5.0
    vertex 29.011851026778697 16.749999999999996 5.0
    vertex 32.35851518068379 8.670438010934445 5.0
  endloop
endfacet
facet normal -0.0 -0.0 1.0
  outer loop
    vertex 31.176914536239792 17.999999999999996 5.0
    vertex 32.35851518068379 8.670438010934445 5.0
    vertex 34.77332974640646 9.317485623690748 5.0
  endloop
endfacet
facet normal -0.0 -0.0 1.0
  outer loop
    vertex 34.77332974640646 9.317485623690748 5.0
    vertex 32.35851518068379 8.670438010934445 5.0
    vertex 33.5 0.0 5.0
  endloop
endfacet
facet normal -0.0 -0.0 1.0
  outer loop
    vertex 34.77332974640646 9.317485623690748 5.0
    vertex 33.5 0.0 5.0
    vertex 34.77332974640645 -9.317485623690777 5.0
  endloop
endfacet
facet normal -0.0 -0.0 1.0
  outer loop
    vertex 34.77332974640646 9.317485623690748 5.0
    vertex 34.77332974640645 -9.317485623690777 5.0
    vertex 36.0 0.0 5.0
  endloop
endfacet
facet normal 0.7933533402912349 -0.6087614290087209 0.0
  outer loop
    vertex 31.17691453623978 -18.000000000000018 -1.9999999999999998
    vertex 25.455844122715707 -25.455844122715718 5.0
    vertex 25.455844122715707 -25.455844122715718 -1.9999999999999998
  endloop
endfacet
facet normal 0.7933533402912349 -0.6087614290087209 0.0
  outer loop
    vertex 25.455844122715707 -25.455844122715718 5.0
    vertex 31.17691453623978 -18.000000000000018 -1.9999999999999998
    vertex 31.17691453623978 -18.000000000000018 5.0
  endloop
endfacet
facet normal 0.60876142900872 -0.7933533402912357 0.0
  outer loop
    vertex 25.455844122715707 -25.455844122715718 5.0
    vertex 17.999999999999975 -31.176914536239803 -1.9999999999999998
    vertex 25.455844122715707 -25.455844122715718 -1.9999999999999998
  endloop
endfacet
facet normal 0.60876142900872 -0.7933533402912357 0.0
  outer loop
    vertex 17.999999999999975 -31.176914536239803 -1.9999999999999998
    vertex 25.455844122715707 -25.455844122715718 5.0
    vertex 17.999999999999975 -31.176914536239803 5.0
  endloop
endfacet
facet normal 0.3826834323650894 -0.9238795325112868 0.0
  outer loop
    vertex 17.999999999999975 -31.176914536239803 5.0
    vertex 9.31748562369073 -34.77332974640647 -1.9999999999999998
    vertex 17.999999999999975 -31.176914536239803 -1.9999999999999998
  endloop
endfacet
facet normal 0.3826834323650894 -0.9238795325112868 0.0
  outer loop
    vertex 9.31748562369073 -34.77332974640647 -1.9999999999999998
    vertex 17.999999999999975 -31.176914536239803 5.0
    vertex 9.31748562369073 -34.77332974640647 5.0
  endloop
endfacet
facet normal 0.1305261922200513 -0.9914448613738106 0.0
  outer loop
    vertex 9.31748562369073 -34.77332974640647 5.0
    vertex -6.613092715395707e-15 -36.0 -1.9999999999999998
    vertex 9.31748562369073 -34.77332974640647 -1.9999999999999998
  endloop
endfacet
facet normal 0.1305261922200513 -0.9914448613738106 0.0
  outer loop
    vertex -6.613092715395707e-15 -36.0 -1.9999999999999998
    vertex 9.31748562369073 -34.77332974640647 5.0
    vertex -6.613092715395707e-15 -36.0 5.0
  endloop
endfacet
facet normal -0.13052619222005207 -0.9914448613738105 -0.0
  outer loop
    vertex -6.613092715395707e-15 -36.0 5.0
    vertex -9.317485623690775 -34.77332974640645 -1.9999999999999998
    vertex -6.613092715395707e-15 -36.0 -1.9999999999999998
  endloop
endfacet
facet normal -0.13052619222005207 -0.9914448613738105 -0.0
  outer loop
    vertex -9.317485623690775 -34.77332974640645 -1.9999999999999998
    vertex -6.613092715395707e-15 -36.0 5.0
    vertex -9.317485623690775 -34.77332974640645 5.0
  endloop
endfacet
facet normal -0.38268343236509045 -0.9238795325112864 -0.0
  outer loop
    vertex -9.317485623690775 -34.77332974640645 5.0
    vertex -18.000000000000018 -31.17691453623978 -1.9999999999999998
    vertex -9.317485623690775 -34.77332974640645 -1.9999999999999998
  endloop
endfacet
facet normal -0.38268343236509045 -0.9238795325112864 -0.0
  outer loop
    vertex -18.000000000000018 -31.17691453623978 -1.9999999999999998
    vertex -9.317485623690775 -34.77332974640645 5.0
    vertex -18.000000000000018 -31.17691453623978 5.0
  endloop
endfacet
facet normal -0.6087614290087213 -0.7933533402912347 -0.0
  outer loop
    vertex -18.000000000000018 -31.17691453623978 5.0
    vertex -25.455844122715725 -25.455844122715696 -1.9999999999999998
    vertex -18.000000000000018 -31.17691453623978 -1.9999999999999998
  endloop
endfacet
facet normal -0.6087614290087213 -0.7933533402912347 -0.0
  outer loop
    vertex -25.455844122715725 -25.455844122715696 -1.9999999999999998
    vertex -18.000000000000018 -31.17691453623978 5.0
    vertex -25.455844122715725 -25.455844122715696 5.0
  endloop
endfacet
facet normal -0.7933533402912352 -0.6087614290087205 -0.0
  outer loop
    vertex -31.1769145362398 -17.99999999999999 5.0
    vertex -25.455844122715725 -25.455844122715696 -1.9999999999999998
    vertex -25.455844122715725 -25.455844122715696 5.0
  endloop
endfacet
facet normal -0.7933533402912352 -0.6087614290087205 -0.0
  outer loop
    vertex -25.455844122715725 -25.455844122715696 -1.9999999999999998
    vertex -31.1769145362398 -17.99999999999999 5.0
    vertex -31.1769145362398 -17.99999999999999 -1.9999999999999998
  endloop
endfacet
facet normal -0.9238795325112868 -0.3826834323650895 -0.0
  outer loop
    vertex -34.77332974640647 -9.317485623690734 5.0
    vertex -31.1769145362398 -17.99999999999999 -1.9999999999999998
    vertex -31.1769145362398 -17.99999999999999 5.0
  endloop
endfacet
facet normal -0.9238795325112868 -0.3826834323650895 -0.0
  outer loop
    vertex -31.1769145362398 -17.99999999999999 -1.9999999999999998
    vertex -34.77332974640647 -9.317485623690734 5.0
    vertex -34.77332974640647 -9.317485623690734 -1.9999999999999998
  endloop
endfacet
facet normal -0.9914448613738106 -0.1305261922200513 -0.0
  outer loop
    vertex -36.0 4.408728476930472e-15 5.0
    vertex -34.77332974640647 -9.317485623690734 -1.9999999999999998
    vertex -34.77332974640647 -9.317485623690734 5.0
  endloop
endfacet
facet normal -0.9914448613738106 -0.1305261922200513 -0.0
  outer loop
    vertex -34.77332974640647 -9.317485623690734 -1.9999999999999998
    vertex -36.0 4.408728476930472e-15 5.0
    vertex -36.0 4.408728476930472e-15 -1.9999999999999998
  endloop
endfacet
facet normal -0.9914448613738105 0.13052619222005166 0.0
  outer loop
    vertex -34.77332974640646 9.317485623690757 5.0
    vertex -36.0 4.408728476930472e-15 -1.9999999999999998
    vertex -36.0 4.408728476930472e-15 5.0
  endloop
endfacet
facet normal -0.9914448613738105 0.13052619222005166 0.0
  outer loop
    vertex -36.0 4.408728476930472e-15 -1.9999999999999998
    vertex -34.77332974640646 9.317485623690757 5.0
    vertex -34.77332974640646 9.317485623690757 -1.9999999999999998
  endloop
endfacet
facet normal -0.9238795325112867 0.3826834323650901 0.0
  outer loop
    vertex -31.17691453623979 18.00000000000001 5.0
    vertex -34.77332974640646 9.317485623690757 -1.9999999999999998
    vertex -34.77332974640646 9.317485623690757 5.0
  endloop
endfacet
facet normal -0.9238795325112867 0.3826834323650901 0.0
  outer loop
    vertex -34.77332974640646 9.317485623690757 -1.9999999999999998
    vertex -31.17691453623979 18.00000000000001 5.0
    vertex -31.17691453623979 18.00000000000001 -1.9999999999999998
  endloop
endfacet
facet normal -0.7933533402912349 0.6087614290087209 0.0
  outer loop
    vertex -25.455844122715714 25.455844122715714 5.0
    vertex -31.17691453623979 18.00000000000001 -1.9999999999999998
    vertex -31.17691453623979 18.00000000000001 5.0
  endloop
endfacet
facet normal -0.7933533402912349 0.6087614290087209 0.0
  outer loop
    vertex -31.17691453623979 18.00000000000001 -1.9999999999999998
    vertex -25.455844122715714 25.455844122715714 5.0
    vertex -25.455844122715714 25.455844122715714 -1.9999999999999998
  endloop
endfacet
facet normal -0.6087614290087202 0.7933533402912356 0.0
  outer loop
    vertex -25.455844122715714 25.455844122715714 5.0
    vertex -17.999999999999993 31.176914536239792 -1.9999999999999998
    vertex -25.455844122715714 25.455844122715714 -1.9999999999999998
  endloop
endfacet
facet normal -0.6087614290087202 0.7933533402912356 0.0
  outer loop
    vertex -17.999999999999993 31.176914536239792 -1.9999999999999998
    vertex -25.455844122715714 25.455844122715714 5.0
    vertex -17.999999999999993 31.176914536239792 5.0
  endloop
endfacet
facet normal -0.3826834323650897 0.9238795325112867 0.0
  outer loop
    vertex -17.999999999999993 31.176914536239792 5.0
    vertex -9.317485623690743 34.77332974640646 -1.9999999999999998
    vertex -17.999999999999993 31.176914536239792 -1.9999999999999998
  endloop
endfacet
facet normal -0.3826834323650897 0.9238795325112867 0.0
  outer loop
    vertex -9.317485623690743 34.77332974640646 -1.9999999999999998
    vertex -17.999999999999993 31.176914536239792 5.0
    vertex -9.317485623690743 34.77332974640646 5.0
  endloop
endfacet
facet normal -0.13052619222005174 0.9914448613738104 0.0
  outer loop
    vertex -9.317485623690743 34.77332974640646 5.0
    vertex 2.204364238465236e-15 36.0 -1.9999999999999998
    vertex -9.317485623690743 34.77332974640646 -1.9999999999999998
  endloop
endfacet
facet normal -0.13052619222005174 0.9914448613738104 0.0
  outer loop
    vertex 2.204364238465236e-15 36.0 -1.9999999999999998
    vertex -9.317485623690743 34.77332974640646 5.0
    vertex 2.204364238465236e-15 36.0 5.0
  endloop
endfacet
facet normal 0.13052619222005168 0.9914448613738105 0.0
  outer loop
    vertex 2.204364238465236e-15 36.0 5.0
    vertex 9.317485623690756 34.77332974640646 -1.9999999999999998
    vertex 2.204364238465236e-15 36.0 -1.9999999999999998
  endloop
endfacet
facet normal 0.13052619222005168 0.9914448613738105 0.0
  outer loop
    vertex 9.317485623690756 34.77332974640646 -1.9999999999999998
    vertex 2.204364238465236e-15 36.0 5.0
    vertex 9.317485623690756 34.77332974640646 5.0
  endloop
endfacet
facet normal 0.3826834323650897 0.9238795325112867 0.0
  outer loop
    vertex 9.317485623690756 34.77332974640646 5.0
    vertex 18.000000000000004 31.176914536239792 -1.9999999999999998
    vertex 9.317485623690756 34.77332974640646 -1.9999999999999998
  endloop
endfacet
facet normal 0.3826834323650897 0.9238795325112867 0.0
  outer loop
    vertex 18.000000000000004 31.176914536239792 -1.9999999999999998
    vertex 9.317485623690756 34.77332974640646 5.0
    vertex 18.000000000000004 31.176914536239792 5.0
  endloop
endfacet
facet normal 0.6087614290087209 0.793353340291235 0.0
  outer loop
    vertex 18.000000000000004 31.176914536239792 5.0
    vertex 25.455844122715714 25.455844122715714 -1.9999999999999998
    vertex 18.000000000000004 31.176914536239792 -1.9999999999999998
  endloop
endfacet
facet normal 0.6087614290087209 0.793353340291235 0.0
  outer loop
    vertex 25.455844122715714 25.455844122715714 -1.9999999999999998
    vertex 18.000000000000004 31.176914536239792 5.0
    vertex 25.455844122715714 25.455844122715714 5.0
  endloop
endfacet
facet normal 0.7933533402912353 0.6087614290087205 0.0
  outer loop
    vertex 25.455844122715714 25.455844122715714 -1.9999999999999998
    vertex 31.176914536239792 17.999999999999996 5.0
    vertex 31.176914536239792 17.999999999999996 -1.9999999999999998
  endloop
endfacet
facet normal 0.7933533402912353 0.6087614290087205 0.0
  outer loop
    vertex 31.176914536239792 17.999999999999996 5.0
    vertex 25.455844122715714 25.455844122715714 -1.9999999999999998
    vertex 25.455844122715714 25.455844122715714 5.0
  endloop
endfacet
facet normal 0.9238795325112868 0.3826834323650897 0.0
  outer loop
    vertex 31.176914536239792 17.999999999999996 -1.9999999999999998
    vertex 34.77332974640646 9.317485623690748 5.0
    vertex 34.77332974640646 9.317485623690748 -1.9999999999999998
  endloop
endfacet
facet normal 0.9238795325112868 0.3826834323650897 0.0
  outer loop
    vertex 34.77332974640646 9.317485623690748 5.0
    vertex 31.176914536239792 17.999999999999996 -1.9999999999999998
    vertex 31.176914536239792 17.999999999999996 5.0
  endloop
endfacet
facet normal 0.9914448613738105 0.13052619222005174 0.0
  outer loop
    vertex 34.77332974640646 9.317485623690748 -1.9999999999999998
    vertex 36.0 0.0 5.0
    vertex 36.0 0.0 -1.9999999999999998
  endloop
endfacet
facet normal 0.9914448613738105 0.13052619222005174 0.0
  outer loop
    vertex 36.0 0.0 5.0
    vertex 34.77332974640646 9.317485623690748 -1.9999999999999998
    vertex 34.77332974640646 9.317485623690748 5.0
  endloop
endfacet
facet normal 0.9914448613738104 -0.13052619222005193 0.0
  outer loop
    vertex 36.0 0.0 -1.9999999999999998
    vertex 34.77332974640645 -9.317485623690777 5.0
    vertex 34.77332974640645 -9.317485623690777 -1.9999999999999998
  endloop
endfacet
facet normal 0.9914448613738104 -0.13052619222005193 0.0
  outer loop
    vertex 34.77332974640645 -9.317485623690777 5.0
    vertex 36.0 0.0 -1.9999999999999998
    vertex 36.0 0.0 5.0
  endloop
endfacet
facet normal 0.9238795325112864 -0.3826834323650906 0.0
  outer loop
    vertex 34.77332974640645 -9.317485623690777 -1.9999999999999998
    vertex 31.17691453623978 -18.000000000000018 5.0
    vertex 31.17691453623978 -18.000000000000018 -1.9999999999999998
  endloop
endfacet
facet normal 0.9238795325112864 -0.3826834323650906 0.0
  outer loop
    vertex 31.17691453623978 -18.000000000000018 5.0
    vertex 34.77332974640645 -9.317485623690777 -1.9999999999999998
    vertex 34.77332974640645 -9.317485623690777 5.0
  endloop
endfacet
facet normal -0.7933533402912348 0.608761429008721 0.0
  outer loop
    vertex 29.011851026778686 -16.750000000000014 5.0
    vertex 23.688077169749338 -23.68807716974935 3.0
    vertex 23.688077169749338 -23.68807716974935 5.0
  endloop
endfacet
facet normal -0.7933533402912348 0.608761429008721 0.0
  outer loop
    vertex 23.688077169749338 -23.68807716974935 3.0
    vertex 29.011851026778686 -16.750000000000014 5.0
    vertex 29.011851026778686 -16.750000000000014 3.0
  endloop
endfacet
facet normal -0.9238795325112864 0.3826834323650907 0.0
  outer loop
    vertex 32.35851518068378 -8.670438010934474 5.0
    vertex 29.011851026778686 -16.750000000000014 3.0
    vertex 29.011851026778686 -16.750000000000014 5.0
  endloop
endfacet
facet normal -0.9238795325112864 0.3826834323650907 0.0
  outer loop
    vertex 29.011851026778686 -16.750000000000014 3.0
    vertex 32.35851518068378 -8.670438010934474 5.0
    vertex 32.35851518068378 -8.670438010934474 3.0
  endloop
endfacet
facet normal -0.9914448613738104 0.13052619222005166 0.0
  outer loop
    vertex 33.5 0.0 5.0
    vertex 32.35851518068378 -8.670438010934474 3.0
    vertex 32.35851518068378 -8.670438010934474 5.0
  endloop
endfacet
facet normal -0.9914448613738104 0.13052619222005166 0.0
  outer loop
    vertex 32.35851518068378 -8.670438010934474 3.0
    vertex 33.5 0.0 5.0
    vertex 33.5 0.0 3.0
  endloop
endfacet
facet normal -0.9914448613738104 -0.1305261922200514 -0.0
  outer loop
    vertex 32.35851518068379 8.670438010934445 5.0
    vertex 33.5 0.0 3.0
    vertex 33.5 0.0 5.0
  endloop
endfacet
facet normal -0.9914448613738104 -0.1305261922200514 -0.0
  outer loop
    vertex 33.5 0.0 3.0
    vertex 32.35851518068379 8.670438010934445 5.0
    vertex 32.35851518068379 8.670438010934445 3.0
  endloop
endfacet
facet normal -0.9238795325112868 -0.3826834323650897 -0.0
  outer loop
    vertex 29.011851026778697 16.749999999999996 5.0
    vertex 32.35851518068379 8.670438010934445 3.0
    vertex 32.35851518068379 8.670438010934445 5.0
  endloop
endfacet
facet normal -0.9238795325112868 -0.3826834323650897 -0.0
  outer loop
    vertex 32.35851518068379 8.670438010934445 3.0
    vertex 29.011851026778697 16.749999999999996 5.0
    vertex 29.011851026778697 16.749999999999996 3.0
  endloop
endfacet
facet normal -0.7933533402912352 -0.6087614290087208 -0.0
  outer loop
    vertex 23.688077169749345 23.688077169749338 5.0
    vertex 29.011851026778697 16.749999999999996 3.0
    vertex 29.011851026778697 16.749999999999996 5.0
  endloop
endfacet
facet normal -0.7933533402912352 -0.6087614290087208 -0.0
  outer loop
    vertex 29.011851026778697 16.749999999999996 3.0
    vertex 23.688077169749345 23.688077169749338 5.0
    vertex 23.688077169749345 23.688077169749338 3.0
  endloop
endfacet
facet normal -0.6087614290087208 -0.7933533402912352 -0.0
  outer loop
    vertex 23.688077169749345 23.688077169749338 5.0
    vertex 16.750000000000004 29.011851026778693 3.0
    vertex 23.688077169749345 23.688077169749338 3.0
  endloop
endfacet
facet normal -0.6087614290087208 -0.7933533402912352 -0.0
  outer loop
    vertex 16.750000000000004 29.011851026778693 3.0
    vertex 23.688077169749345 23.688077169749338 5.0
    vertex 16.750000000000004 29.011851026778693 5.0
  endloop
endfacet
facet normal -0.3826834323650898 -0.9238795325112867 -0.0
  outer loop
    vertex 16.750000000000004 29.011851026778693 5.0
    vertex 8.670438010934452 32.35851518068378 3.0
    vertex 16.750000000000004 29.011851026778693 3.0
  endloop
endfacet
facet normal -0.3826834323650898 -0.9238795325112867 -0.0
  outer loop
    vertex 8.670438010934452 32.35851518068378 3.0
    vertex 16.750000000000004 29.011851026778693 5.0
    vertex 8.670438010934452 32.35851518068378 5.0
  endloop
endfacet
facet normal -0.130526192220052 -0.9914448613738104 -0.0
  outer loop
    vertex 8.670438010934452 32.35851518068378 5.0
    vertex 2.051283388571817e-15 33.5 3.0
    vertex 8.670438010934452 32.35851518068378 3.0
  endloop
endfacet
facet normal -0.130526192220052 -0.9914448613738104 -0.0
  outer loop
    vertex 2.051283388571817e-15 33.5 3.0
    vertex 8.670438010934452 32.35851518068378 5.0
    vertex 2.051283388571817e-15 33.5 5.0
  endloop
endfacet
facet normal 0.1305261922200515 -0.9914448613738105 0.0
  outer loop
    vertex 2.051283388571817e-15 33.5 5.0
    vertex -8.670438010934442 32.35851518068379 3.0
    vertex 2.051283388571817e-15 33.5 3.0
  endloop
endfacet
facet normal 0.1305261922200515 -0.9914448613738105 0.0
  outer loop
    vertex -8.670438010934442 32.35851518068379 3.0
    vertex 2.051283388571817e-15 33.5 5.0
    vertex -8.670438010934442 32.35851518068379 5.0
  endloop
endfacet
facet normal 0.3826834323650898 -0.9238795325112867 0.0
  outer loop
    vertex -8.670438010934442 32.35851518068379 5.0
    vertex -16.749999999999993 29.011851026778697 3.0
    vertex -8.670438010934442 32.35851518068379 3.0
  endloop
endfacet
facet normal 0.3826834323650898 -0.9238795325112867 0.0
  outer loop
    vertex -16.749999999999993 29.011851026778697 3.0
    vertex -8.670438010934442 32.35851518068379 5.0
    vertex -16.749999999999993 29.011851026778697 5.0
  endloop
endfacet
facet normal 0.6087614290087204 -0.7933533402912354 0.0
  outer loop
    vertex -16.749999999999993 29.011851026778697 5.0
    vertex -23.688077169749338 23.688077169749345 3.0
    vertex -16.749999999999993 29.011851026778697 3.0
  endloop
endfacet
facet normal 0.6087614290087204 -0.7933533402912354 0.0
  outer loop
    vertex -23.688077169749338 23.688077169749345 3.0
    vertex -16.749999999999993 29.011851026778697 5.0
    vertex -23.688077169749338 23.688077169749345 5.0
  endloop
endfacet
facet normal 0.7933533402912347 -0.6087614290087212 0.0
  outer loop
    vertex -23.688077169749338 23.688077169749345 3.0
    vertex -29.011851026778693 16.75000000000001 5.0
    vertex -29.011851026778693 16.75000000000001 3.0
  endloop
endfacet
facet normal 0.7933533402912347 -0.6087614290087212 0.0
  outer loop
    vertex -29.011851026778693 16.75000000000001 5.0
    vertex -23.688077169749338 23.688077169749345 3.0
    vertex -23.688077169749338 23.688077169749345 5.0
  endloop
endfacet
facet normal 0.9238795325112868 -0.38268343236508956 0.0
  outer loop
    vertex -29.011851026778693 16.75000000000001 3.0
    vertex -32.35851518068378 8.670438010934454 5.0
    vertex -32.35851518068378 8.670438010934454 3.0
  endloop
endfacet
facet normal 0.9238795325112868 -0.38268343236508956 0.0
  outer loop
    vertex -32.35851518068378 8.670438010934454 5.0
    vertex -29.011851026778693 16.75000000000001 3.0
    vertex -29.011851026778693 16.75000000000001 5.0
  endloop
endfacet
facet normal 0.9914448613738104 -0.130526192220052 0.0
  outer loop
    vertex -32.35851518068378 8.670438010934454 3.0
    vertex -33.5 4.102566777143634e-15 5.0
    vertex -33.5 4.102566777143634e-15 3.0
  endloop
endfacet
facet normal 0.9914448613738104 -0.130526192220052 0.0
  outer loop
    vertex -33.5 4.102566777143634e-15 5.0
    vertex -32.35851518068378 8.670438010934454 3.0
    vertex -32.35851518068378 8.670438010934454 5.0
  endloop
endfacet
facet normal 0.9914448613738105 0.1305261922200509 0.0
  outer loop
    vertex -33.5 4.102566777143634e-15 3.0
    vertex -32.358515180683796 -8.670438010934433 5.0
    vertex -32.358515180683796 -8.670438010934433 3.0
  endloop
endfacet
facet normal 0.9914448613738105 0.1305261922200509 0.0
  outer loop
    vertex -32.358515180683796 -8.670438010934433 5.0
    vertex -33.5 4.102566777143634e-15 3.0
    vertex -33.5 4.102566777143634e-15 5.0
  endloop
endfacet
facet normal 0.923879532511287 0.38268343236508945 0.0
  outer loop
    vertex -32.358515180683796 -8.670438010934433 3.0
    vertex -29.011851026778704 -16.749999999999993 5.0
    vertex -29.011851026778704 -16.749999999999993 3.0
  endloop
endfacet
facet normal 0.923879532511287 0.38268343236508945 0.0
  outer loop
    vertex -29.011851026778704 -16.749999999999993 5.0
    vertex -32.358515180683796 -8.670438010934433 3.0
    vertex -32.358515180683796 -8.670438010934433 5.0
  endloop
endfacet
facet normal 0.7933533402912353 0.6087614290087204 0.0
  outer loop
    vertex -29.011851026778704 -16.749999999999993 3.0
    vertex -23.688077169749356 -23.68807716974933 5.0
    vertex -23.688077169749356 -23.68807716974933 3.0
  endloop
endfacet
facet normal 0.7933533402912353 0.6087614290087204 0.0
  outer loop
    vertex -23.688077169749356 -23.68807716974933 5.0
    vertex -29.011851026778704 -16.749999999999993 3.0
    vertex -29.011851026778704 -16.749999999999993 5.0
  endloop
endfacet
facet normal 0.608761429008721 0.7933533402912349 0.0
  outer loop
    vertex -23.688077169749356 -23.68807716974933 5.0
    vertex -16.750000000000014 -29.011851026778686 3.0
    vertex -23.688077169749356 -23.68807716974933 3.0
  endloop
endfacet
facet normal 0.608761429008721 0.7933533402912349 0.0
  outer loop
    vertex -16.750000000000014 -29.011851026778686 3.0
    vertex -23.688077169749356 -23.68807716974933 5.0
    vertex -16.750000000000014 -29.011851026778686 5.0
  endloop
endfacet
facet normal 0.3826834323650906 0.9238795325112864 0.0
  outer loop
    vertex -16.750000000000014 -29.011851026778686 5.0
    vertex -8.67043801093447 -32.35851518068378 3.0
    vertex -16.750000000000014 -29.011851026778686 3.0
  endloop
endfacet
facet normal 0.3826834323650906 0.9238795325112864 0.0
  outer loop
    vertex -8.67043801093447 -32.35851518068378 3.0
    vertex -16.750000000000014 -29.011851026778686 5.0
    vertex -8.67043801093447 -32.35851518068378 5.0
  endloop
endfacet
facet normal 0.13052619222005177 0.9914448613738104 0.0
  outer loop
    vertex -8.67043801093447 -32.35851518068378 5.0
    vertex -6.15385016571545e-15 -33.5 3.0
    vertex -8.67043801093447 -32.35851518068378 3.0
  endloop
endfacet
facet normal 0.13052619222005177 0.9914448613738104 0.0
  outer loop
    vertex -6.15385016571545e-15 -33.5 3.0
    vertex -8.67043801093447 -32.35851518068378 5.0
    vertex -6.15385016571545e-15 -33.5 5.0
  endloop
endfacet
facet normal -0.13052619222005094 0.9914448613738105 0.0
  outer loop
    vertex -6.15385016571545e-15 -33.5 5.0
    vertex 8.67043801093443 -32.358515180683796 3.0
    vertex -6.15385016571545e-15 -33.5 3.0
  endloop
endfacet
facet normal -0.13052619222005094 0.9914448613738105 0.0
  outer loop
    vertex 8.67043801093443 -32.358515180683796 3.0
    vertex -6.15385016571545e-15 -33.5 5.0
    vertex 8.67043801093443 -32.358515180683796 5.0
  endloop
endfacet
facet normal -0.38268343236508945 0.9238795325112868 0.0
  outer loop
    vertex 8.67043801093443 -32.358515180683796 5.0
    vertex 16.749999999999975 -29.01185102677871 3.0
    vertex 8.67043801093443 -32.358515180683796 3.0
  endloop
endfacet
facet normal -0.38268343236508945 0.9238795325112868 0.0
  outer loop
    vertex 16.749999999999975 -29.01185102677871 3.0
    vertex 8.67043801093443 -32.358515180683796 5.0
    vertex 16.749999999999975 -29.01185102677871 5.0
  endloop
endfacet
facet normal -0.6087614290087203 0.7933533402912356 0.0
  outer loop
    vertex 16.749999999999975 -29.01185102677871 5.0
    vertex 23.688077169749338 -23.68807716974935 3.0
    vertex 16.749999999999975 -29.01185102677871 3.0
  endloop
endfacet
facet normal -0.6087614290087203 0.7933533402912356 0.0
  outer loop
    vertex 23.688077169749338 -23.68807716974935 3.0
    vertex 16.749999999999975 -29.01185102677871 5.0
    vertex 23.688077169749338 -23.68807716974935 5.0
  endloop
endfacet
facet normal 0.0 0.0 -1.0
  outer loop
    vertex -32.84147809382832 8.799847533485714 3.0
    vertex -33.5 4.102566777143634e-15 3.0
    vertex -34.0 4.1637991171010006e-15 3.0
  endloop
endfacet
facet normal 0.0 0.0 -1.0
  outer loop
    vertex -33.5 4.102566777143634e-15 3.0
    vertex -32.84147809382832 8.799847533485714 3.0
    vertex -32.35851518068378 8.670438010934454 3.0
  endloop
endfacet
facet normal 0.0 0.0 -1.0
  outer loop
    vertex -32.35851518068378 8.670438010934454 3.0
    vertex -32.84147809382832 8.799847533485714 3.0
    vertex -29.44486372867091 17.00000000000001 3.0
  endloop
endfacet
facet normal 0.0 0.0 -1.0
  outer loop
    vertex -32.35851518068378 8.670438010934454 3.0
    vertex -29.44486372867091 17.00000000000001 3.0
    vertex -29.011851026778693 16.75000000000001 3.0
  endloop
endfacet
facet normal 0.0 0.0 -1.0
  outer loop
    vertex -29.011851026778693 16.75000000000001 3.0
    vertex -29.44486372867091 17.00000000000001 3.0
    vertex -24.041630560342615 24.041630560342618 3.0
  endloop
endfacet
facet normal 0.0 0.0 -1.0
  outer loop
    vertex -29.011851026778693 16.75000000000001 3.0
    vertex -24.041630560342615 24.041630560342618 3.0
    vertex -23.688077169749338 23.688077169749345 3.0
  endloop
endfacet
facet normal 0.0 0.0 -1.0
  outer loop
    vertex -23.688077169749338 23.688077169749345 3.0
    vertex -24.041630560342615 24.041630560342618 3.0
    vertex -16.999999999999993 29.444863728670914 3.0
  endloop
endfacet
facet normal 0.0 0.0 -1.0
  outer loop
    vertex -23.688077169749338 23.688077169749345 3.0
    vertex -16.999999999999993 29.444863728670914 3.0
    vertex -16.749999999999993 29.011851026778697 3.0
  endloop
endfacet
facet normal 0.0 0.0 -1.0
  outer loop
    vertex -16.749999999999993 29.011851026778697 3.0
    vertex -16.999999999999993 29.444863728670914 3.0
    vertex -8.799847533485702 32.84147809382832 3.0
  endloop
endfacet
facet normal 0.0 0.0 -1.0
  outer loop
    vertex -16.749999999999993 29.011851026778697 3.0
    vertex -8.799847533485702 32.84147809382832 3.0
    vertex -8.670438010934442 32.35851518068379 3.0
  endloop
endfacet
facet normal 0.0 0.0 -1.0
  outer loop
    vertex -8.670438010934442 32.35851518068379 3.0
    vertex -8.799847533485702 32.84147809382832 3.0
    vertex 2.0818995585505003e-15 34.0 3.0
  endloop
endfacet
facet normal 0.0 0.0 -1.0
  outer loop
    vertex -8.670438010934442 32.35851518068379 3.0
    vertex 2.0818995585505003e-15 34.0 3.0
    vertex 2.051283388571817e-15 33.5 3.0
  endloop
endfacet
facet normal 0.0 0.0 -1.0
  outer loop
    vertex 2.051283388571817e-15 33.5 3.0
    vertex 2.0818995585505003e-15 34.0 3.0
    vertex 8.670438010934452 32.35851518068378 3.0
  endloop
endfacet
facet normal 0.0 0.0 -1.0
  outer loop
    vertex 8.670438010934452 32.35851518068378 3.0
    vertex 2.0818995585505003e-15 34.0 3.0
    vertex 8.799847533485712 32.84147809382832 3.0
  endloop
endfacet
facet normal 0.0 0.0 -1.0
  outer loop
    vertex 8.670438010934452 32.35851518068378 3.0
    vertex 8.799847533485712 32.84147809382832 3.0
    vertex 16.750000000000004 29.011851026778693 3.0
  endloop
endfacet
facet normal 0.0 0.0 -1.0
  outer loop
    vertex 16.750000000000004 29.011851026778693 3.0
    vertex 8.799847533485712 32.84147809382832 3.0
    vertex 17.000000000000004 29.444863728670914 3.0
  endloop
endfacet
facet normal 0.0 0.0 -1.0
  outer loop
    vertex 16.750000000000004 29.011851026778693 3.0
    vertex 17.000000000000004 29.444863728670914 3.0
    vertex 23.688077169749345 23.688077169749338 3.0
  endloop
endfacet
facet normal 0.0 0.0 -1.0
  outer loop
    vertex 23.688077169749345 23.688077169749338 3.0
    vertex 17.000000000000004 29.444863728670914 3.0
    vertex 24.041630560342618 24.041630560342615 3.0
  endloop
endfacet
facet normal 0.0 0.0 -1.0
  outer loop
    vertex 23.688077169749345 23.688077169749338 3.0
    vertex 24.041630560342618 24.041630560342615 3.0
    vertex 29.011851026778697 16.749999999999996 3.0
  endloop
endfacet
facet normal 0.0 0.0 -1.0
  outer loop
    vertex 29.011851026778697 16.749999999999996 3.0
    vertex 24.041630560342618 24.041630560342615 3.0
    vertex 29.444863728670914 16.999999999999996 3.0
  endloop
endfacet
facet normal 0.0 0.0 -1.0
  outer loop
    vertex 29.011851026778697 16.749999999999996 3.0
    vertex 29.444863728670914 16.999999999999996 3.0
    vertex 32.35851518068379 8.670438010934445 3.0
  endloop
endfacet
facet normal 0.0 0.0 -1.0
  outer loop
    vertex 32.35851518068379 8.670438010934445 3.0
    vertex 29.444863728670914 16.999999999999996 3.0
    vertex 32.84147809382832 8.799847533485705 3.0
  endloop
endfacet
facet normal 0.0 0.0 -1.0
  outer loop
    vertex 32.35851518068379 8.670438010934445 3.0
    vertex 32.84147809382832 8.799847533485705 3.0
    vertex 33.5 0.0 3.0
  endloop
endfacet
facet normal 0.0 0.0 -1.0
  outer loop
    vertex 33.5 0.0 3.0
    vertex 32.84147809382832 8.799847533485705 3.0
    vertex 34.0 0.0 3.0
  endloop
endfacet
facet normal 0.0 0.0 -1.0
  outer loop
    vertex -33.5 4.102566777143634e-15 3.0
    vertex -32.84147809382833 -8.799847533485693 3.0
    vertex -34.0 4.1637991171010006e-15 3.0
  endloop
endfacet
facet normal 0.0 0.0 -1.0
  outer loop
    vertex -32.84147809382833 -8.799847533485693 3.0
    vertex -33.5 4.102566777143634e-15 3.0
    vertex -32.358515180683796 -8.670438010934433 3.0
  endloop
endfacet
facet normal 0.0 0.0 -1.0
  outer loop
    vertex -32.84147809382833 -8.799847533485693 3.0
    vertex -32.358515180683796 -8.670438010934433 3.0
    vertex -29.44486372867092 -16.999999999999993 3.0
  endloop
endfacet
facet normal 0.0 0.0 -1.0
  outer loop
    vertex -29.44486372867092 -16.999999999999993 3.0
    vertex -32.358515180683796 -8.670438010934433 3.0
    vertex -29.011851026778704 -16.749999999999993 3.0
  endloop
endfacet
facet normal 0.0 0.0 -1.0
  outer loop
    vertex -29.44486372867092 -16.999999999999993 3.0
    vertex -29.011851026778704 -16.749999999999993 3.0
    vertex -24.04163056034263 -24.041630560342604 3.0
  endloop
endfacet
facet normal 0.0 0.0 -1.0
  outer loop
    vertex -24.04163056034263 -24.041630560342604 3.0
    vertex -29.011851026778704 -16.749999999999993 3.0
    vertex -23.688077169749356 -23.68807716974933 3.0
  endloop
endfacet
facet normal 0.0 0.0 -1.0
  outer loop
    vertex -24.04163056034263 -24.041630560342604 3.0
    vertex -23.688077169749356 -23.68807716974933 3.0
    vertex -17.000000000000014 -29.444863728670903 3.0
  endloop
endfacet
facet normal 0.0 0.0 -1.0
  outer loop
    vertex -17.000000000000014 -29.444863728670903 3.0
    vertex -23.688077169749356 -23.68807716974933 3.0
    vertex -16.750000000000014 -29.011851026778686 3.0
  endloop
endfacet
facet normal 0.0 0.0 -1.0
  outer loop
    vertex -17.000000000000014 -29.444863728670903 3.0
    vertex -16.750000000000014 -29.011851026778686 3.0
    vertex -8.799847533485732 -32.841478093828314 3.0
  endloop
endfacet
facet normal 0.0 0.0 -1.0
  outer loop
    vertex -8.799847533485732 -32.841478093828314 3.0
    vertex -16.750000000000014 -29.011851026778686 3.0
    vertex -8.67043801093447 -32.35851518068378 3.0
  endloop
endfacet
facet normal 0.0 0.0 -1.0
  outer loop
    vertex -8.799847533485732 -32.841478093828314 3.0
    vertex -8.67043801093447 -32.35851518068378 3.0
    vertex -6.2456986756515004e-15 -34.0 3.0
  endloop
endfacet
facet normal 0.0 0.0 -1.0
  outer loop
    vertex -6.2456986756515004e-15 -34.0 3.0
    vertex -8.67043801093447 -32.35851518068378 3.0
    vertex -6.15385016571545e-15 -33.5 3.0
  endloop
endfacet
facet normal 0.0 0.0 -1.0
  outer loop
    vertex -6.2456986756515004e-15 -34.0 3.0
    vertex -6.15385016571545e-15 -33.5 3.0
    vertex 8.79984753348569 -32.84147809382833 3.0
  endloop
endfacet
facet normal 0.0 0.0 -1.0
  outer loop
    vertex 8.79984753348569 -32.84147809382833 3.0
    vertex -6.15385016571545e-15 -33.5 3.0
    vertex 8.67043801093443 -32.358515180683796 3.0
  endloop
endfacet
facet normal 0.0 0.0 -1.0
  outer loop
    vertex 8.79984753348569 -32.84147809382833 3.0
    vertex 8.67043801093443 -32.358515180683796 3.0
    vertex 16.749999999999975 -29.01185102677871 3.0
  endloop
endfacet
facet normal 0.0 0.0 -1.0
  outer loop
    vertex 8.79984753348569 -32.84147809382833 3.0
    vertex 16.749999999999975 -29.01185102677871 3.0
    vertex 16.999999999999975 -29.444863728670928 3.0
  endloop
endfacet
facet normal 0.0 0.0 -1.0
  outer loop
    vertex 16.999999999999975 -29.444863728670928 3.0
    vertex 16.749999999999975 -29.01185102677871 3.0
    vertex 23.688077169749338 -23.68807716974935 3.0
  endloop
endfacet
facet normal 0.0 0.0 -1.0
  outer loop
    vertex 16.999999999999975 -29.444863728670928 3.0
    vertex 23.688077169749338 -23.68807716974935 3.0
    vertex 24.04163056034261 -24.04163056034262 3.0
  endloop
endfacet
facet normal 0.0 0.0 -1.0
  outer loop
    vertex 24.04163056034261 -24.04163056034262 3.0
    vertex 23.688077169749338 -23.68807716974935 3.0
    vertex 29.011851026778686 -16.750000000000014 3.0
  endloop
endfacet
facet normal 0.0 0.0 -1.0
  outer loop
    vertex 24.04163056034261 -24.04163056034262 3.0
    vertex 29.011851026778686 -16.750000000000014 3.0
    vertex 29.444863728670903 -17.000000000000014 3.0
  endloop
endfacet
facet normal 0.0 0.0 -1.0
  outer loop
    vertex 29.444863728670903 -17.000000000000014 3.0
    vertex 29.011851026778686 -16.750000000000014 3.0
    vertex 32.35851518068378 -8.670438010934474 3.0
  endloop
endfacet
facet normal 0.0 0.0 -1.0
  outer loop
    vertex 29.444863728670903 -17.000000000000014 3.0
    vertex 32.35851518068378 -8.670438010934474 3.0
    vertex 32.841478093828314 -8.799847533485734 3.0
  endloop
endfacet
facet normal 0.0 0.0 -1.0
  outer loop
    vertex 32.841478093828314 -8.799847533485734 3.0
    vertex 32.35851518068378 -8.670438010934474 3.0
    vertex 33.5 0.0 3.0
  endloop
endfacet
facet normal 0.0 0.0 -1.0
  outer loop
    vertex 32.841478093828314 -8.799847533485734 3.0
    vertex 33.5 0.0 3.0
    vertex 34.0 0.0 3.0
  endloop
endfacet
facet normal -0.38268343236508967 -0.9238795325112867 -0.0
  outer loop
    vertex 17.000000000000004 29.444863728670914 3.0
    vertex 8.799847533485712 32.84147809382832 0.0
    vertex 17.000000000000004 29.444863728670914 0.0
  endloop
endfacet
facet normal -0.38268343236508967 -0.9238795325112867 -0.0
  outer loop
    vertex 8.799847533485712 32.84147809382832 0.0
    vertex 17.000000000000004 29.444863728670914 3.0
    vertex 8.799847533485712 32.84147809382832 3.0
  endloop
endfacet
facet normal -0.608761429008721 -0.7933533402912349 -0.0
  outer loop
    vertex 24.041630560342618 24.041630560342615 3.0
    vertex 17.000000000000004 29.444863728670914 0.0
    vertex 24.041630560342618 24.041630560342615 0.0
  endloop
endfacet
facet normal -0.608761429008721 -0.7933533402912349 -0.0
  outer loop
    vertex 17.000000000000004 29.444863728670914 0.0
    vertex 24.041630560342618 24.041630560342615 3.0
    vertex 17.000000000000004 29.444863728670914 3.0
  endloop
endfacet
facet normal -0.7933533402912352 -0.6087614290087205 -0.0
  outer loop
    vertex 24.041630560342618 24.041630560342615 3.0
    vertex 29.444863728670914 16.999999999999996 0.0
    vertex 29.444863728670914 16.999999999999996 3.0
  endloop
endfacet
facet normal -0.7933533402912352 -0.6087614290087205 -0.0
  outer loop
    vertex 29.444863728670914 16.999999999999996 0.0
    vertex 24.041630560342618 24.041630560342615 3.0
    vertex 24.041630560342618 24.041630560342615 0.0
  endloop
endfacet
facet normal -0.9238795325112867 -0.3826834323650896 -0.0
  outer loop
    vertex 29.444863728670914 16.999999999999996 3.0
    vertex 32.84147809382832 8.799847533485705 0.0
    vertex 32.84147809382832 8.799847533485705 3.0
  endloop
endfacet
facet normal -0.9238795325112867 -0.3826834323650896 -0.0
  outer loop
    vertex 32.84147809382832 8.799847533485705 0.0
    vertex 29.444863728670914 16.999999999999996 3.0
    vertex 29.444863728670914 16.999999999999996 0.0
  endloop
endfacet
facet normal -0.9914448613738105 -0.13052619222005177 -0.0
  outer loop
    vertex 32.84147809382832 8.799847533485705 3.0
    vertex 34.0 0.0 0.0
    vertex 34.0 0.0 3.0
  endloop
endfacet
facet normal -0.9914448613738105 -0.13052619222005177 -0.0
  outer loop
    vertex 34.0 0.0 0.0
    vertex 32.84147809382832 8.799847533485705 3.0
    vertex 32.84147809382832 8.799847533485705 0.0
  endloop
endfacet
facet normal -0.9914448613738104 0.13052619222005196 -0.0
  outer loop
    vertex 34.0 0.0 3.0
    vertex 32.841478093828314 -8.799847533485734 0.0
    vertex 32.841478093828314 -8.799847533485734 3.0
  endloop
endfacet
facet normal -0.9914448613738104 0.13052619222005196 -0.0
  outer loop
    vertex 32.841478093828314 -8.799847533485734 0.0
    vertex 34.0 0.0 3.0
    vertex 34.0 0.0 0.0
  endloop
endfacet
facet normal -0.9238795325112864 0.3826834323650906 -0.0
  outer loop
    vertex 32.841478093828314 -8.799847533485734 3.0
    vertex 29.444863728670903 -17.000000000000014 0.0
    vertex 29.444863728670903 -17.000000000000014 3.0
  endloop
endfacet
facet normal -0.9238795325112864 0.3826834323650906 -0.0
  outer loop
    vertex 29.444863728670903 -17.000000000000014 0.0
    vertex 32.841478093828314 -8.799847533485734 3.0
    vertex 32.841478093828314 -8.799847533485734 0.0
  endloop
endfacet
facet normal -0.7933533402912352 0.6087614290087207 -0.0
  outer loop
    vertex 29.444863728670903 -17.000000000000014 3.0
    vertex 24.04163056034261 -24.04163056034262 0.0
    vertex 24.04163056034261 -24.04163056034262 3.0
  endloop
endfacet
facet normal -0.7933533402912352 0.6087614290087207 -0.0
  outer loop
    vertex 24.04163056034261 -24.04163056034262 0.0
    vertex 29.444863728670903 -17.000000000000014 3.0
    vertex 29.444863728670903 -17.000000000000014 0.0
  endloop
endfacet
facet normal -0.60876142900872 0.7933533402912357 -0.0
  outer loop
    vertex 16.999999999999975 -29.444863728670928 3.0
    vertex 24.04163056034261 -24.04163056034262 0.0
    vertex 16.999999999999975 -29.444863728670928 0.0
  endloop
endfacet
facet normal -0.60876142900872 0.7933533402912357 -0.0
  outer loop
    vertex 24.04163056034261 -24.04163056034262 0.0
    vertex 16.999999999999975 -29.444863728670928 3.0
    vertex 24.04163056034261 -24.04163056034262 3.0
  endloop
endfacet
facet normal -0.3826834323650894 0.923879532511287 -0.0
  outer loop
    vertex 8.79984753348569 -32.84147809382833 3.0
    vertex 16.999999999999975 -29.444863728670928 0.0
    vertex 8.79984753348569 -32.84147809382833 0.0
  endloop
endfacet
facet normal -0.3826834323650894 0.923879532511287 -0.0
  outer loop
    vertex 16.999999999999975 -29.444863728670928 0.0
    vertex 8.79984753348569 -32.84147809382833 3.0
    vertex 16.999999999999975 -29.444863728670928 3.0
  endloop
endfacet
facet normal -0.1305261922200513 0.9914448613738105 -0.0
  outer loop
    vertex -6.2456986756515004e-15 -34.0 3.0
    vertex 8.79984753348569 -32.84147809382833 0.0
    vertex -6.2456986756515004e-15 -34.0 0.0
  endloop
endfacet
facet normal -0.1305261922200513 0.9914448613738105 -0.0
  outer loop
    vertex 8.79984753348569 -32.84147809382833 0.0
    vertex -6.2456986756515004e-15 -34.0 3.0
    vertex 8.79984753348569 -32.84147809382833 3.0
  endloop
endfacet
facet normal 0.13052619222005207 0.9914448613738104 0.0
  outer loop
    vertex -8.799847533485732 -32.841478093828314 3.0
    vertex -6.2456986756515004e-15 -34.0 0.0
    vertex -8.799847533485732 -32.841478093828314 0.0
  endloop
endfacet
facet normal 0.13052619222005207 0.9914448613738104 0.0
  outer loop
    vertex -6.2456986756515004e-15 -34.0 0.0
    vertex -8.799847533485732 -32.841478093828314 3.0
    vertex -6.2456986756515004e-15 -34.0 3.0
  endloop
endfacet
facet normal 0.3826834323650906 0.9238795325112865 0.0
  outer loop
    vertex -17.000000000000014 -29.444863728670903 3.0
    vertex -8.799847533485732 -32.841478093828314 0.0
    vertex -17.000000000000014 -29.444863728670903 0.0
  endloop
endfacet
facet normal 0.3826834323650906 0.9238795325112865 0.0
  outer loop
    vertex -8.799847533485732 -32.841478093828314 0.0
    vertex -17.000000000000014 -29.444863728670903 3.0
    vertex -8.799847533485732 -32.841478093828314 3.0
  endloop
endfacet
facet normal 0.608761429008721 0.7933533402912349 0.0
  outer loop
    vertex -24.04163056034263 -24.041630560342604 3.0
    vertex -17.000000000000014 -29.444863728670903 0.0
    vertex -24.04163056034263 -24.041630560342604 0.0
  endloop
endfacet
facet normal 0.608761429008721 0.7933533402912349 0.0
  outer loop
    vertex -17.000000000000014 -29.444863728670903 0.0
    vertex -24.04163056034263 -24.041630560342604 3.0
    vertex -17.000000000000014 -29.444863728670903 3.0
  endloop
endfacet
facet normal 0.7933533402912354 0.6087614290087205 0.0
  outer loop
    vertex -29.44486372867092 -16.999999999999993 0.0
    vertex -24.04163056034263 -24.041630560342604 3.0
    vertex -24.04163056034263 -24.041630560342604 0.0
  endloop
endfacet
facet normal 0.7933533402912354 0.6087614290087205 0.0
  outer loop
    vertex -24.04163056034263 -24.041630560342604 3.0
    vertex -29.44486372867092 -16.999999999999993 0.0
    vertex -29.44486372867092 -16.999999999999993 3.0
  endloop
endfacet
facet normal 0.9238795325112868 0.3826834323650893 0.0
  outer loop
    vertex -32.84147809382833 -8.799847533485693 0.0
    vertex -29.44486372867092 -16.999999999999993 3.0
    vertex -29.44486372867092 -16.999999999999993 0.0
  endloop
endfacet
facet normal 0.9238795325112868 0.3826834323650893 0.0
  outer loop
    vertex -29.44486372867092 -16.999999999999993 3.0
    vertex -32.84147809382833 -8.799847533485693 0.0
    vertex -32.84147809382833 -8.799847533485693 3.0
  endloop
endfacet
facet normal 0.9914448613738106 0.13052619222005127 0.0
  outer loop
    vertex -34.0 4.1637991171010006e-15 0.0
    vertex -32.84147809382833 -8.799847533485693 3.0
    vertex -32.84147809382833 -8.799847533485693 0.0
  endloop
endfacet
facet normal 0.9914448613738106 0.13052619222005127 0.0
  outer loop
    vertex -32.84147809382833 -8.799847533485693 3.0
    vertex -34.0 4.1637991171010006e-15 0.0
    vertex -34.0 4.1637991171010006e-15 3.0
  endloop
endfacet
facet normal 0.9914448613738105 -0.13052619222005168 -0.0
  outer loop
    vertex -32.84147809382832 8.799847533485714 0.0
    vertex -34.0 4.1637991171010006e-15 3.0
    vertex -34.0 4.1637991171010006e-15 0.0
  endloop
endfacet
facet normal 0.9914448613738105 -0.13052619222005168 -0.0
  outer loop
    vertex -34.0 4.1637991171010006e-15 3.0
    vertex -32.84147809382832 8.799847533485714 0.0
    vertex -32.84147809382832 8.799847533485714 3.0
  endloop
endfacet
facet normal 0.9238795325112867 -0.38268343236509006 -0.0
  outer loop
    vertex -29.44486372867091 17.00000000000001 0.0
    vertex -32.84147809382832 8.799847533485714 3.0
    vertex -32.84147809382832 8.799847533485714 0.0
  endloop
endfacet
facet normal 0.9238795325112867 -0.38268343236509006 -0.0
  outer loop
    vertex -32.84147809382832 8.799847533485714 3.0
    vertex -29.44486372867091 17.00000000000001 0.0
    vertex -29.44486372867091 17.00000000000001 3.0
  endloop
endfacet
facet normal 0.7933533402912349 -0.6087614290087211 -0.0
  outer loop
    vertex -24.041630560342615 24.041630560342618 0.0
    vertex -29.44486372867091 17.00000000000001 3.0
    vertex -29.44486372867091 17.00000000000001 0.0
  endloop
endfacet
facet normal 0.7933533402912349 -0.6087614290087211 -0.0
  outer loop
    vertex -29.44486372867091 17.00000000000001 3.0
    vertex -24.041630560342615 24.041630560342618 0.0
    vertex -24.041630560342615 24.041630560342618 3.0
  endloop
endfacet
facet normal 0.6087614290087203 -0.7933533402912356 -0.0
  outer loop
    vertex -16.999999999999993 29.444863728670914 3.0
    vertex -24.041630560342615 24.041630560342618 0.0
    vertex -16.999999999999993 29.444863728670914 0.0
  endloop
endfacet
facet normal 0.6087614290087203 -0.7933533402912356 -0.0
  outer loop
    vertex -24.041630560342615 24.041630560342618 0.0
    vertex -16.999999999999993 29.444863728670914 3.0
    vertex -24.041630560342615 24.041630560342618 3.0
  endloop
endfacet
facet normal 0.38268343236508967 -0.9238795325112867 -0.0
  outer loop
    vertex -8.799847533485702 32.84147809382832 3.0
    vertex -16.999999999999993 29.444863728670914 0.0
    vertex -8.799847533485702 32.84147809382832 0.0
  endloop
endfacet
facet normal 0.38268343236508967 -0.9238795325112867 -0.0
  outer loop
    vertex -16.999999999999993 29.444863728670914 0.0
    vertex -8.799847533485702 32.84147809382832 3.0
    vertex -16.999999999999993 29.444863728670914 3.0
  endloop
endfacet
facet normal 0.1305261922200518 -0.9914448613738105 -0.0
  outer loop
    vertex 2.0818995585505003e-15 34.0 3.0
    vertex -8.799847533485702 32.84147809382832 0.0
    vertex 2.0818995585505003e-15 34.0 0.0
  endloop
endfacet
facet normal 0.1305261922200518 -0.9914448613738105 -0.0
  outer loop
    vertex -8.799847533485702 32.84147809382832 0.0
    vertex 2.0818995585505003e-15 34.0 3.0
    vertex -8.799847533485702 32.84147809382832 3.0
  endloop
endfacet
facet normal -0.13052619222005168 -0.9914448613738105 -0.0
  outer loop
    vertex 8.799847533485712 32.84147809382832 3.0
    vertex 2.0818995585505003e-15 34.0 0.0
    vertex 8.799847533485712 32.84147809382832 0.0
  endloop
endfacet
facet normal -0.13052619222005168 -0.9914448613738105 -0.0
  outer loop
    vertex 2.0818995585505003e-15 34.0 0.0
    vertex 8.799847533485712 32.84147809382832 3.0
    vertex 2.0818995585505003e-15 34.0 3.0
  endloop
endfacet
facet normal -0.0 -0.0 1.0
  outer loop
    vertex -32.84147809382833 -8.799847533485693 0.0
    vertex -32.84147809382832 8.799847533485714 0.0
    vertex -34.0 4.1637991171010006e-15 0.0
  endloop
endfacet
facet normal -0.0 -0.0 1.0
  outer loop
    vertex -32.84147809382832 8.799847533485714 0.0
    vertex -32.84147809382833 -8.799847533485693 0.0
    vertex -29.44486372867092 -16.999999999999993 0.0
  endloop
endfacet
facet normal -0.0 -0.0 1.0
  outer loop
    vertex -32.84147809382832 8.799847533485714 0.0
    vertex -29.44486372867092 -16.999999999999993 0.0
    vertex -29.44486372867091 17.00000000000001 0.0
  endloop
endfacet
facet normal -0.0 -0.0 1.0
  outer loop
    vertex -29.44486372867091 17.00000000000001 0.0
    vertex -29.44486372867092 -16.999999999999993 0.0
    vertex -24.04163056034263 -24.041630560342604 0.0
  endloop
endfacet
facet normal -0.0 -0.0 1.0
  outer loop
    vertex -29.44486372867091 17.00000000000001 0.0
    vertex -24.04163056034263 -24.041630560342604 0.0
    vertex -24.041630560342615 24.041630560342618 0.0
  endloop
endfacet
facet normal -0.0 -0.0 1.0
  outer loop
    vertex -24.041630560342615 24.041630560342618 0.0
    vertex -24.04163056034263 -24.041630560342604 0.0
    vertex -17.000000000000014 -29.444863728670903 0.0
  endloop
endfacet
facet normal -0.0 -0.0 1.0
  outer loop
    vertex -24.041630560342615 24.041630560342618 0.0
    vertex -17.000000000000014 -29.444863728670903 0.0
    vertex -16.999999999999993 29.444863728670914 0.0
  endloop
endfacet
facet normal -0.0 -0.0 1.0
  outer loop
    vertex -16.999999999999993 29.444863728670914 0.0
    vertex -17.000000000000014 -29.444863728670903 0.0
    vertex -8.799847533485732 -32.841478093828314 0.0
  endloop
endfacet
facet normal -0.0 -0.0 1.0
  outer loop
    vertex -16.999999999999993 29.444863728670914 0.0
    vertex -8.799847533485732 -32.841478093828314 0.0
    vertex -8.799847533485702 32.84147809382832 0.0
  endloop
endfacet
facet normal -0.0 -0.0 1.0
  outer loop
    vertex -8.799847533485702 32.84147809382832 0.0
    vertex -8.799847533485732 -32.841478093828314 0.0
    vertex -6.2456986756515004e-15 -34.0 0.0
  endloop
endfacet
facet normal -0.0 -0.0 1.0
  outer loop
    vertex -8.799847533485702 32.84147809382832 0.0
    vertex -6.2456986756515004e-15 -34.0 0.0
    vertex 2.0818995585505003e-15 34.0 0.0
  endloop
endfacet
facet normal -0.0 -0.0 1.0
  outer loop
    vertex 2.0818995585505003e-15 34.0 0.0
    vertex -6.2456986756515004e-15 -34.0 0.0
    vertex 8.79984753348569 -32.84147809382833 0.0
  endloop
endfacet
facet normal -0.0 -0.0 1.0
  outer loop
    vertex 2.0818995585505003e-15 34.0 0.0
    vertex 8.79984753348569 -32.84147809382833 0.0
    vertex 8.799847533485712 32.84147809382832 0.0
  endloop
endfacet
facet normal -0.0 -0.0 1.0
  outer loop
    vertex 8.799847533485712 32.84147809382832 0.0
    vertex 8.79984753348569 -32.84147809382833 0.0
    vertex 16.999999999999975 -29.444863728670928 0.0
  endloop
endfacet
facet normal -0.0 -0.0 1.0
  outer loop
    vertex 8.799847533485712 32.84147809382832 0.0
    vertex 16.999999999999975 -29.444863728670928 0.0
    vertex 17.000000000000004 29.444863728670914 0.0
  endloop
endfacet
facet normal -0.0 -0.0 1.0
  outer loop
    vertex 17.000000000000004 29.444863728670914 0.0
    vertex 16.999999999999975 -29.444863728670928 0.0
    vertex 24.04163056034261 -24.04163056034262 0.0
  endloop
endfacet
facet normal -0.0 -0.0 1.0
  outer loop
    vertex 17.000000000000004 29.444863728670914 0.0
    vertex 24.04163056034261 -24.04163056034262 0.0
    vertex 24.041630560342618 24.041630560342615 0.0
  endloop
endfacet
facet normal -0.0 -0.0 1.0
  outer loop
    vertex 24.041630560342618 24.041630560342615 0.0
    vertex 24.04163056034261 -24.04163056034262 0.0
    vertex 29.444863728670903 -17.000000000000014 0.0
  endloop
endfacet
facet normal -0.0 -0.0 1.0
  outer loop
    vertex 24.041630560342618 24.041630560342615 0.0
    vertex 29.444863728670903 -17.000000000000014 0.0
    vertex 29.444863728670914 16.999999999999996 0.0
  endloop
endfacet
facet normal -0.0 -0.0 1.0
  outer loop
    vertex 29.444863728670914 16.999999999999996 0.0
    vertex 29.444863728670903 -17.000000000000014 0.0
    vertex 32.841478093828314 -8.799847533485734 0.0
  endloop
endfacet
facet normal -0.0 -0.0 1.0
  outer loop
    vertex 29.444863728670914 16.999999999999996 0.0
    vertex 32.841478093828314 -8.799847533485734 0.0
    vertex 32.84147809382832 8.799847533485705 0.0
  endloop
endfacet
facet normal -0.0 -0.0 1.0
  outer loop
    vertex 32.84147809382832 8.799847533485705 0.0
    vertex 32.841478093828314 -8.799847533485734 0.0
    vertex 34.0 0.0 0.0
  endloop
endfacet
facet normal 0.0 0.0 -1.0
  outer loop
    vertex -34.77332974640646 9.317485623690757 -1.9999999999999998
    vertex -34.77332974640647 -9.317485623690734 -1.9999999999999998
    vertex -36.0 4.408728476930472e-15 -1.9999999999999998
  endloop
endfacet
facet normal 0.0 0.0 -1.0
  outer loop
    vertex -34.77332974640647 -9.317485623690734 -1.9999999999999998
    vertex -34.77332974640646 9.317485623690757 -1.9999999999999998
    vertex -31.1769145362398 -17.99999999999999 -1.9999999999999998
  endloop
endfacet
facet normal 0.0 0.0 -1.0
  outer loop
    vertex -31.1769145362398 -17.99999999999999 -1.9999999999999998
    vertex -34.77332974640646 9.317485623690757 -1.9999999999999998
    vertex -31.17691453623979 18.00000000000001 -1.9999999999999998
  endloop
endfacet
facet normal 0.0 0.0 -1.0
  outer loop
    vertex -31.1769145362398 -17.99999999999999 -1.9999999999999998
    vertex -31.17691453623979 18.00000000000001 -1.9999999999999998
    vertex -25.455844122715725 -25.455844122715696 -1.9999999999999998
  endloop
endfacet
facet normal 0.0 0.0 -1.0
  outer loop
    vertex -25.455844122715725 -25.455844122715696 -1.9999999999999998
    vertex -31.17691453623979 18.00000000000001 -1.9999999999999998
    vertex -25.455844122715714 25.455844122715714 -1.9999999999999998
  endloop
endfacet
facet normal 0.0 0.0 -1.0
  outer loop
    vertex -25.455844122715725 -25.455844122715696 -1.9999999999999998
    vertex -25.455844122715714 25.455844122715714 -1.9999999999999998
    vertex -18.000000000000018 -31.17691453623978 -1.9999999999999998
  endloop
endfacet
facet normal 0.0 0.0 -1.0
  outer loop
    vertex -18.000000000000018 -31.17691453623978 -1.9999999999999998
    vertex -25.455844122715714 25.455844122715714 -1.9999999999999998
    vertex -17.999999999999993 31.176914536239792 -1.9999999999999998
  endloop
endfacet
facet normal 0.0 0.0 -1.0
  outer loop
    vertex -18.000000000000018 -31.17691453623978 -1.9999999999999998
    vertex -17.999999999999993 31.176914536239792 -1.9999999999999998
    vertex -9.317485623690775 -34.77332974640645 -1.9999999999999998
  endloop
endfacet
facet normal 0.0 0.0 -1.0
  outer loop
    vertex -9.317485623690775 -34.77332974640645 -1.9999999999999998
    vertex -17.999999999999993 31.176914536239792 -1.9999999999999998
    vertex -9.317485623690743 34.77332974640646 -1.9999999999999998
  endloop
endfacet
facet normal 0.0 0.0 -1.0
  outer loop
    vertex -9.317485623690775 -34.77332974640645 -1.9999999999999998
    vertex -9.317485623690743 34.77332974640646 -1.9999999999999998
    vertex -6.613092715395707e-15 -36.0 -1.9999999999999998
  endloop
endfacet
facet normal 0.0 0.0 -1.0
  outer loop
    vertex -6.613092715395707e-15 -36.0 -1.9999999999999998
    vertex -9.317485623690743 34.77332974640646 -1.9999999999999998
    vertex 2.204364238465236e-15 36.0 -1.9999999999999998
  endloop
endfacet
facet normal 0.0 0.0 -1.0
  outer loop
    vertex -6.613092715395707e-15 -36.0 -1.9999999999999998
    vertex 2.204364238465236e-15 36.0 -1.9999999999999998
    vertex 9.31748562369073 -34.77332974640647 -1.9999999999999998
  endloop
endfacet
facet normal 0.0 0.0 -1.0
  outer loop
    vertex 9.31748562369073 -34.77332974640647 -1.9999999999999998
    vertex 2.204364238465236e-15 36.0 -1.9999999999999998
    vertex 9.317485623690756 34.77332974640646 -1.9999999999999998
  endloop
endfacet
facet normal 0.0 0.0 -1.0
  outer loop
    vertex 9.31748562369073 -34.77332974640647 -1.9999999999999998
    vertex 9.317485623690756 34.77332974640646 -1.9999999999999998
    vertex 17.999999999999975 -31.176914536239803 -1.9999999999999998
  endloop
endfacet
facet normal 0.0 0.0 -1.0
  outer loop
    vertex 17.999999999999975 -31.176914536239803 -1.9999999999999998
    vertex 9.317485623690756 34.77332974640646 -1.9999999999999998
    vertex 18.000000000000004 31.176914536239792 -1.9999999999999998
  endloop
endfacet
facet normal 0.0 0.0 -1.0
  outer loop
    vertex 17.999999999999975 -31.176914536239803 -1.9999999999999998
    vertex 18.000000000000004 31.176914536239792 -1.9999999999999998
    vertex 25.455844122715707 -25.455844122715718 -1.9999999999999998
  endloop
endfacet
facet normal 0.0 0.0 -1.0
  outer loop
    vertex 25.455844122715707 -25.455844122715718 -1.9999999999999998
    vertex 18.000000000000004 31.176914536239792 -1.9999999999999998
    vertex 25.455844122715714 25.455844122715714 -1.9999999999999998
  endloop
endfacet
facet normal 0.0 0.0 -1.0
  outer loop
    vertex 25.455844122715707 -25.455844122715718 -1.9999999999999998
    vertex 25.455844122715714 25.455844122715714 -1.9999999999999998
    vertex 31.17691453623978 -18.000000000000018 -1.9999999999999998
  endloop
endfacet
facet normal 0.0 0.0 -1.0
  outer loop
    vertex 31.17691453623978 -18.000000000000018 -1.9999999999999998
    vertex 25.455844122715714 25.455844122715714 -1.9999999999999998
    vertex 31.176914536239792 17.999999999999996 -1.9999999999999998
  endloop
endfacet
facet normal 0.0 0.0 -1.0
  outer loop
    vertex 31.17691453623978 -18.000000000000018 -1.9999999999999998
    vertex 31.176914536239792 17.999999999999996 -1.9999999999999998
    vertex 34.77332974640645 -9.317485623690777 -1.9999999999999998
  endloop
endfacet
facet normal 0.0 0.0 -1.0
  outer loop
    vertex 34.77332974640645 -9.317485623690777 -1.9999999999999998
    vertex 31.176914536239792 17.999999999999996 -1.9999999999999998
    vertex 34.77332974640646 9.317485623690748 -1.9999999999999998
  endloop
endfacet
facet normal 0.0 0.0 -1.0
  outer loop
    vertex 34.77332974640645 -9.317485623690777 -1.9999999999999998
    vertex 34.77332974640646 9.317485623690748 -1.9999999999999998
    vertex 36.0 0.0 -1.9999999999999998
  endloop
endfacet
endsolid Lid-Stage02
